<svg width="505" height="177" viewBox="0 0 505 177" fill="none" xmlns="http://www.w3.org/2000/svg">
<path d="M6.70858 156.501C7.47991 156.071 8.37733 155.856 9.40083 155.856C10.4243 155.856 11.3217 156.071 12.0931 156.501C12.8644 156.931 13.4652 157.517 13.8953 158.259C14.7408 159.712 15.1636 161.485 15.1636 163.577C15.1636 165.624 14.7334 167.389 13.8731 168.872C13.4281 169.629 12.8199 170.222 12.0486 170.652C11.2772 171.082 10.3724 171.297 9.33408 171.297C8.31058 171.297 7.42058 171.082 6.66408 170.652C5.90758 170.222 5.31425 169.636 4.88408 168.894C4.03858 167.441 3.61583 165.668 3.61583 163.577C3.61583 161.5 4.05341 159.727 4.92858 158.259C5.35875 157.517 5.95208 156.931 6.70858 156.501ZM6.64183 167.782C7.23516 168.865 8.14741 169.406 9.37858 169.406C10.6097 169.406 11.5146 168.865 12.0931 167.782C12.6864 166.699 12.9831 165.297 12.9831 163.577C12.9831 161.841 12.6864 160.439 12.0931 159.371C11.5146 158.288 10.6097 157.747 9.37858 157.747C8.14741 157.747 7.23516 158.288 6.64183 159.371C6.06333 160.439 5.77408 161.841 5.77408 163.577C5.77408 165.297 6.06333 166.699 6.64183 167.782ZM29.8507 160.462C29.8358 160.15 29.8284 159.839 29.8284 159.527C29.8284 159.216 29.8358 158.904 29.8507 158.593L25.8012 169.384H24.1102L20.0607 158.593C20.0755 158.904 20.0829 159.216 20.0829 159.527C20.0829 159.839 20.0755 160.15 20.0607 160.462L19.7047 171.008H17.7467L18.4364 156.145H20.9062L24.9557 167.159L29.0052 156.145H31.4749L32.1647 171.008H30.2067L29.8507 160.462ZM42.4735 167.181H37.2448L35.9765 171.008H33.796L38.6688 156.145H41.0495L45.9223 171.008H43.764L42.4735 167.181ZM41.984 165.512L39.848 158.17L37.7343 165.512H41.984ZM55.9025 162.464V156.145H58.0385V171.008H55.9025V164.244H49.984V171.008H47.848V156.145H49.984V162.464H55.9025ZM68.6564 167.181H63.4277L62.1594 171.008H59.9789L64.8517 156.145H67.2324L72.1052 171.008H69.9469L68.6564 167.181ZM68.1669 165.512L66.0309 158.17L63.9172 165.512H68.1669ZM75.8998 169.695C75.8998 171.253 75.2397 172.64 73.9196 173.856H72.0728C73.2892 172.447 73.8973 171.171 73.8973 170.029C73.8973 169.54 73.7712 169.006 73.5191 168.427H75.6328C75.8108 168.813 75.8998 169.235 75.8998 169.695ZM94.7386 171.008H92.5581L85.5271 158.971C85.5865 159.549 85.6161 160.172 85.6161 160.84V171.008H83.5914V156.145H85.7719L92.8029 168.182C92.7435 167.604 92.7139 166.981 92.7139 166.313V156.145H94.7386V171.008ZM100.394 169.206H106.713V171.008H98.2581V156.145H106.513V157.947H100.394V162.442H106.157V164.2H100.394V169.206ZM133.881 166.781H131.367V171.008H129.387V166.781H122.979V165.49L129.097 156.323H131.367V165.312H133.881V166.781ZM129.387 165.312V159.216L125.293 165.312H129.387ZM140.311 171.297C139.303 171.297 138.465 171.082 137.797 170.652C137.144 170.222 136.618 169.428 136.217 168.271C135.832 167.114 135.639 165.564 135.639 163.621C135.639 161.678 135.846 160.12 136.262 158.949C136.677 157.777 137.219 156.968 137.886 156.523C138.568 156.078 139.414 155.856 140.423 155.856C141.965 155.856 143.13 156.427 143.916 157.569C144.717 158.711 145.117 160.706 145.117 163.554C145.117 166.387 144.702 168.39 143.871 169.562C143.055 170.719 141.869 171.297 140.311 171.297ZM142.381 159.038C141.95 158.177 141.283 157.747 140.378 157.747C139.473 157.747 138.806 158.177 138.376 159.038C137.945 159.898 137.73 161.418 137.73 163.599C137.73 165.764 137.938 167.277 138.353 168.138C138.783 168.983 139.458 169.406 140.378 169.406C141.298 169.406 141.965 168.983 142.381 168.138C142.811 167.277 143.026 165.764 143.026 163.599C143.026 161.418 142.811 159.898 142.381 159.038ZM146.882 171.008V169.206C148.469 167.5 149.841 165.95 150.998 164.556C152.155 163.146 152.86 162.212 153.112 161.752C153.379 161.292 153.512 160.714 153.512 160.017C153.512 159.305 153.29 158.748 152.845 158.348C152.4 157.947 151.747 157.747 150.887 157.747C150.026 157.747 149.129 157.932 148.194 158.303L147.705 156.701C148.921 156.138 150.152 155.856 151.398 155.856C152.644 155.856 153.631 156.219 154.358 156.946C155.099 157.673 155.47 158.682 155.47 159.972C155.47 161.263 154.84 162.687 153.579 164.244C151.784 166.484 150.405 168.138 149.44 169.206H156.004L155.848 171.008H146.882ZM166.438 163.933V165.69H157.916V163.933H166.438ZM173.398 171.297C170.416 171.297 168.925 169.087 168.925 164.667C168.925 161.878 169.474 159.712 170.572 158.17C171.684 156.627 173.116 155.856 174.866 155.856C175.712 155.856 176.483 156.012 177.18 156.323L176.713 157.97C176.149 157.821 175.6 157.747 175.066 157.747C174.058 157.747 173.227 158.133 172.574 158.904C171.936 159.661 171.491 160.736 171.239 162.13C172.025 161.403 172.99 161.04 174.132 161.04C175.289 161.04 176.209 161.441 176.891 162.242C177.573 163.043 177.914 164.237 177.914 165.824C177.914 167.396 177.521 168.701 176.735 169.74C175.964 170.778 174.851 171.297 173.398 171.297ZM173.954 162.887C172.782 162.887 171.796 163.287 170.995 164.088C170.995 165.483 171.106 166.588 171.328 167.404C171.551 168.205 171.825 168.739 172.152 169.006C172.493 169.273 172.93 169.406 173.464 169.406C174.236 169.406 174.829 169.095 175.244 168.472C175.66 167.834 175.867 166.973 175.867 165.891C175.867 163.888 175.23 162.887 173.954 162.887ZM189.043 167.159C189.043 168.242 188.65 169.206 187.864 170.051C187.092 170.882 185.958 171.297 184.459 171.297C182.976 171.297 181.827 170.919 181.011 170.163C180.21 169.406 179.809 168.375 179.809 167.07C179.809 166.239 180.039 165.475 180.499 164.778C180.974 164.066 181.597 163.502 182.368 163.087C181.122 162.271 180.499 161.107 180.499 159.594C180.499 158.407 180.877 157.495 181.634 156.857C182.39 156.204 183.354 155.878 184.526 155.878C185.713 155.878 186.662 156.19 187.374 156.813C188.101 157.421 188.464 158.266 188.464 159.349C188.464 160.12 188.272 160.832 187.886 161.485C187.5 162.138 186.951 162.664 186.239 163.065C187.159 163.48 187.856 163.999 188.331 164.622C188.806 165.23 189.043 166.076 189.043 167.159ZM181.878 167.07C181.878 167.811 182.116 168.39 182.59 168.805C183.065 169.206 183.688 169.406 184.459 169.406C185.246 169.406 185.869 169.184 186.328 168.739C186.788 168.279 187.018 167.685 187.018 166.959C187.018 166.113 186.699 165.46 186.061 165.001C185.513 164.615 185.016 164.34 184.571 164.177C184.052 163.97 183.785 163.858 183.77 163.844C182.509 164.585 181.878 165.661 181.878 167.07ZM186.551 159.394C186.551 158.86 186.366 158.452 185.995 158.17C185.624 157.873 185.142 157.725 184.548 157.725C183.97 157.725 183.466 157.866 183.035 158.148C182.62 158.415 182.412 158.86 182.412 159.483C182.412 160.091 182.62 160.669 183.035 161.218C183.451 161.752 183.977 162.16 184.615 162.442C185.209 162.115 185.676 161.663 186.017 161.085C186.373 160.491 186.551 159.928 186.551 159.394ZM190.686 171.008V169.206C192.274 167.5 193.646 165.95 194.803 164.556C195.96 163.146 196.664 162.212 196.916 161.752C197.183 161.292 197.317 160.714 197.317 160.017C197.317 159.305 197.094 158.748 196.649 158.348C196.204 157.947 195.552 157.747 194.691 157.747C193.831 157.747 192.934 157.932 191.999 158.303L191.51 156.701C192.726 156.138 193.957 155.856 195.203 155.856C196.449 155.856 197.436 156.219 198.162 156.946C198.904 157.673 199.275 158.682 199.275 159.972C199.275 161.263 198.644 162.687 197.384 164.244C195.589 166.484 194.209 168.138 193.245 169.206H199.809L199.653 171.008H190.686ZM210.243 163.933V165.69H201.721V163.933H210.243ZM221.875 167.159C221.875 168.242 221.482 169.206 220.696 170.051C219.924 170.882 218.789 171.297 217.291 171.297C215.808 171.297 214.658 170.919 213.843 170.163C213.042 169.406 212.641 168.375 212.641 167.07C212.641 166.239 212.871 165.475 213.331 164.778C213.805 164.066 214.428 163.502 215.2 163.087C213.954 162.271 213.331 161.107 213.331 159.594C213.331 158.407 213.709 157.495 214.466 156.857C215.222 156.204 216.186 155.878 217.358 155.878C218.545 155.878 219.494 156.19 220.206 156.813C220.933 157.421 221.296 158.266 221.296 159.349C221.296 160.12 221.103 160.832 220.718 161.485C220.332 162.138 219.783 162.664 219.071 163.065C219.991 163.48 220.688 163.999 221.163 164.622C221.637 165.23 221.875 166.076 221.875 167.159ZM214.71 167.07C214.71 167.811 214.948 168.39 215.422 168.805C215.897 169.206 216.52 169.406 217.291 169.406C218.077 169.406 218.7 169.184 219.16 168.739C219.62 168.279 219.85 167.685 219.85 166.959C219.85 166.113 219.531 165.46 218.893 165.001C218.344 164.615 217.848 164.34 217.403 164.177C216.883 163.97 216.616 163.858 216.602 163.844C215.341 164.585 214.71 165.661 214.71 167.07ZM219.383 159.394C219.383 158.86 219.197 158.452 218.827 158.17C218.456 157.873 217.974 157.725 217.38 157.725C216.802 157.725 216.297 157.866 215.867 158.148C215.452 158.415 215.244 158.86 215.244 159.483C215.244 160.091 215.452 160.669 215.867 161.218C216.283 161.752 216.809 162.16 217.447 162.442C218.04 162.115 218.508 161.663 218.849 161.085C219.205 160.491 219.383 159.928 219.383 159.394ZM229.081 171.008H227.011V157.992L223.807 159.483L223.207 157.992L227.323 156.145H229.081V171.008ZM235.567 169.406C236.443 169.406 237.103 169.109 237.548 168.516C238.007 167.908 238.237 167.129 238.237 166.18C238.237 165.23 238.045 164.474 237.659 163.91C237.288 163.332 236.672 163.043 235.812 163.043C234.967 163.043 234.225 163.391 233.587 164.088L232.297 163.421V156.145H239.639V157.947H234.166V161.797C234.759 161.411 235.545 161.218 236.524 161.218C237.518 161.218 238.393 161.648 239.15 162.509C239.906 163.354 240.284 164.533 240.284 166.046C240.284 167.559 239.899 168.813 239.127 169.807C238.356 170.8 237.221 171.297 235.723 171.297C234.225 171.297 232.838 170.904 231.562 170.118L232.23 168.494C232.675 168.731 233.231 168.946 233.899 169.139C234.566 169.317 235.122 169.406 235.567 169.406ZM247.398 171.008H245.329V157.992L242.125 159.483L241.524 157.992L245.64 156.145H247.398V171.008ZM274.65 160.551C274.65 162.182 274.176 163.369 273.226 164.111C272.722 164.496 272.158 164.771 271.535 164.934L275.629 170.296L274.027 171.386L269.422 165.223C269.184 165.238 268.813 165.245 268.309 165.245H267.508V171.008H265.372V156.145H268.888C270.03 156.145 270.935 156.241 271.602 156.434C272.27 156.612 272.856 156.931 273.36 157.391C274.22 158.148 274.65 159.201 274.65 160.551ZM271.535 162.909C272.173 162.449 272.492 161.722 272.492 160.729C272.492 159.735 272.24 159 271.736 158.526C271.216 158.007 270.208 157.747 268.71 157.747H267.508V163.465H268.354C269.985 163.465 271.046 163.28 271.535 162.909ZM280.336 156.501C281.107 156.071 282.005 155.856 283.028 155.856C284.052 155.856 284.949 156.071 285.72 156.501C286.492 156.931 287.092 157.517 287.523 158.259C288.368 159.712 288.791 161.485 288.791 163.577C288.791 165.624 288.361 167.389 287.5 168.872C287.055 169.629 286.447 170.222 285.676 170.652C284.904 171.082 284 171.297 282.961 171.297C281.938 171.297 281.048 171.082 280.291 170.652C279.535 170.222 278.941 169.636 278.511 168.894C277.666 167.441 277.243 165.668 277.243 163.577C277.243 161.5 277.681 159.727 278.556 158.259C278.986 157.517 279.579 156.931 280.336 156.501ZM280.269 167.782C280.862 168.865 281.775 169.406 283.006 169.406C284.237 169.406 285.142 168.865 285.72 167.782C286.314 166.699 286.61 165.297 286.61 163.577C286.61 161.841 286.314 160.439 285.72 159.371C285.142 158.288 284.237 157.747 283.006 157.747C281.775 157.747 280.862 158.288 280.269 159.371C279.691 160.439 279.401 161.841 279.401 163.577C279.401 165.297 279.691 166.699 280.269 167.782ZM297.493 171.297C293.221 171.297 291.085 168.716 291.085 163.554C291.085 160.884 291.626 158.934 292.709 157.703C293.807 156.471 295.312 155.856 297.226 155.856C298.234 155.856 299.354 156.026 300.585 156.368L300.185 158.036C299.191 157.814 298.316 157.703 297.559 157.703C296.195 157.703 295.127 158.14 294.355 159.015C293.599 159.89 293.221 161.374 293.221 163.465C293.221 167.47 294.786 169.473 297.915 169.473C298.672 169.473 299.488 169.384 300.363 169.206L300.652 170.875C299.48 171.156 298.427 171.297 297.493 171.297ZM305.402 156.145V171.008H303.288V156.145H305.402ZM306.025 163.399L311.677 156.145H314.324L308.428 163.287L314.658 171.008H311.877L306.025 163.399ZM324.994 167.137C324.994 168.338 324.563 169.332 323.703 170.118C322.843 170.904 321.708 171.297 320.299 171.297C319.542 171.297 318.734 171.216 317.874 171.053C317.028 170.889 316.346 170.682 315.827 170.43L316.405 168.538C317.859 169.117 319.068 169.406 320.032 169.406C320.996 169.406 321.723 169.198 322.212 168.783C322.702 168.353 322.947 167.811 322.947 167.159C322.947 166.506 322.68 165.95 322.146 165.49C321.612 165.03 320.914 164.593 320.054 164.177C319.209 163.747 318.638 163.443 318.341 163.265C318.044 163.087 317.703 162.82 317.317 162.464C316.576 161.826 316.205 160.907 316.205 159.705C316.205 158.504 316.628 157.562 317.473 156.879C318.319 156.197 319.35 155.856 320.566 155.856C321.797 155.856 323.058 156.093 324.348 156.568L323.77 158.348C322.643 157.947 321.641 157.747 320.766 157.747C319.906 157.747 319.268 157.925 318.853 158.281C318.452 158.622 318.252 159.075 318.252 159.638C318.252 160.202 318.489 160.684 318.964 161.085C319.439 161.47 320.062 161.871 320.833 162.286C321.604 162.687 322.168 163.005 322.524 163.243C322.895 163.48 323.295 163.784 323.725 164.155C324.571 164.926 324.994 165.92 324.994 167.137ZM330.094 156.501C330.865 156.071 331.763 155.856 332.786 155.856C333.81 155.856 334.707 156.071 335.479 156.501C336.25 156.931 336.851 157.517 337.281 158.259C338.126 159.712 338.549 161.485 338.549 163.577C338.549 165.624 338.119 167.389 337.259 168.872C336.814 169.629 336.205 170.222 335.434 170.652C334.663 171.082 333.758 171.297 332.72 171.297C331.696 171.297 330.806 171.082 330.05 170.652C329.293 170.222 328.7 169.636 328.27 168.894C327.424 167.441 327.001 165.668 327.001 163.577C327.001 161.5 327.439 159.727 328.314 158.259C328.744 157.517 329.338 156.931 330.094 156.501ZM330.027 167.782C330.621 168.865 331.533 169.406 332.764 169.406C333.995 169.406 334.9 168.865 335.479 167.782C336.072 166.699 336.369 165.297 336.369 163.577C336.369 161.841 336.072 160.439 335.479 159.371C334.9 158.288 333.995 157.747 332.764 157.747C331.533 157.747 330.621 158.288 330.027 159.371C329.449 160.439 329.16 161.841 329.16 163.577C329.16 165.297 329.449 166.699 330.027 167.782ZM343.58 169.206H349.142V171.008H341.444V156.145H343.58V169.206ZM353.488 156.145V171.008H351.352V156.145H353.488ZM359.137 157.947V169.206H360.984C362.734 169.206 363.921 168.753 364.544 167.849C365.167 166.944 365.479 165.52 365.479 163.577C365.479 161.633 365.167 160.209 364.544 159.305C363.921 158.4 362.734 157.947 360.984 157.947H359.137ZM360.828 171.008H357.001V156.145H360.828C362.727 156.145 364.047 156.345 364.789 156.746C366.687 157.71 367.637 159.994 367.637 163.599C367.637 167.188 366.687 169.465 364.789 170.43C364.062 170.815 362.742 171.008 360.828 171.008ZM372.718 169.206H378.28V171.008H370.582V156.145H372.718V169.206ZM382.626 169.206H388.945V171.008H380.49V156.145H388.745V157.947H382.626V162.442H388.389V164.2H382.626V169.206ZM392.566 156.145L396.17 168.561L399.775 156.145H402.089L397.305 171.008H395.036L390.252 156.145H392.566ZM406.136 169.206H412.455V171.008H404V156.145H412.255V157.947H406.136V162.442H411.899V164.2H406.136V169.206ZM417.5 169.206H423.063V171.008H415.364V156.145H417.5V169.206ZM427.408 156.145V171.008H425.272V156.145H427.408ZM442.069 171.008H439.888L432.857 158.971C432.917 159.549 432.946 160.172 432.946 160.84V171.008H430.922V156.145H433.102L440.133 168.182C440.074 167.604 440.044 166.981 440.044 166.313V156.145H442.069V171.008ZM451.507 157.68C450.142 157.68 449.074 158.118 448.303 158.993C447.546 159.868 447.168 161.344 447.168 163.421C447.168 165.483 447.546 166.996 448.303 167.96C449.074 168.924 450.031 169.406 451.173 169.406C451.9 169.406 452.612 169.243 453.309 168.917V165.334H450.817V163.554H455.312V169.94C453.888 170.845 452.464 171.297 451.04 171.297C449.364 171.297 447.962 170.719 446.834 169.562C446.256 168.968 445.796 168.16 445.455 167.137C445.129 166.098 444.965 164.897 444.965 163.532C444.965 160.862 445.514 158.911 446.612 157.68C447.724 156.449 449.245 155.834 451.173 155.834C452.286 155.834 453.458 156.004 454.689 156.345L454.244 158.014C453.25 157.792 452.338 157.68 451.507 157.68ZM458.055 168.805C458.322 168.538 458.641 168.405 459.012 168.405C459.383 168.405 459.702 168.538 459.969 168.805C460.236 169.057 460.369 169.376 460.369 169.762C460.369 170.133 460.236 170.459 459.969 170.741C459.702 171.008 459.383 171.142 459.012 171.142C458.641 171.142 458.322 171.008 458.055 170.741C457.788 170.459 457.655 170.133 457.655 169.762C457.655 169.376 457.788 169.057 458.055 168.805ZM468.757 171.297C464.485 171.297 462.349 168.716 462.349 163.554C462.349 160.884 462.89 158.934 463.973 157.703C465.071 156.471 466.576 155.856 468.49 155.856C469.498 155.856 470.618 156.026 471.85 156.368L471.449 158.036C470.455 157.814 469.58 157.703 468.824 157.703C467.459 157.703 466.391 158.14 465.62 159.015C464.863 159.89 464.485 161.374 464.485 163.465C464.485 167.47 466.05 169.473 469.18 169.473C469.936 169.473 470.752 169.384 471.627 169.206L471.916 170.875C470.744 171.156 469.691 171.297 468.757 171.297ZM476.609 156.501C477.381 156.071 478.278 155.856 479.302 155.856C480.325 155.856 481.223 156.071 481.994 156.501C482.765 156.931 483.366 157.517 483.796 158.259C484.642 159.712 485.064 161.485 485.064 163.577C485.064 165.624 484.634 167.389 483.774 168.872C483.329 169.629 482.721 170.222 481.949 170.652C481.178 171.082 480.273 171.297 479.235 171.297C478.211 171.297 477.321 171.082 476.565 170.652C475.808 170.222 475.215 169.636 474.785 168.894C473.939 167.441 473.517 165.668 473.517 163.577C473.517 161.5 473.954 159.727 474.829 158.259C475.26 157.517 475.853 156.931 476.609 156.501ZM476.543 167.782C477.136 168.865 478.048 169.406 479.279 169.406C480.511 169.406 481.415 168.865 481.994 167.782C482.587 166.699 482.884 165.297 482.884 163.577C482.884 161.841 482.587 160.439 481.994 159.371C481.415 158.288 480.511 157.747 479.279 157.747C478.048 157.747 477.136 158.288 476.543 159.371C475.964 160.439 475.675 161.841 475.675 163.577C475.675 165.297 475.964 166.699 476.543 167.782ZM499.752 160.462C499.737 160.15 499.729 159.839 499.729 159.527C499.729 159.216 499.737 158.904 499.752 158.593L495.702 169.384H494.011L489.962 158.593C489.976 158.904 489.984 159.216 489.984 159.527C489.984 159.839 489.976 160.15 489.962 160.462L489.606 171.008H487.648L488.337 156.145H490.807L494.857 167.159L498.906 156.145H501.376L502.066 171.008H500.108L499.752 160.462Z" fill="#17507B"/>
<path d="M113.849 171.965V155.567H116.43V171.965H113.849ZM255.041 171.965V155.567H257.622V171.965H255.041Z" fill="#393B41"/>
<path d="M24.2831 4.168V28.936C30.6831 28.936 34.9711 28.008 37.1471 26.152C39.3231 24.296 40.4111 21.192 40.4111 16.84C40.4111 12.488 39.2911 9.288 37.0511 7.24C34.8111 5.192 30.5551 4.168 24.2831 4.168ZM62.0111 56.968H57.7871C49.7871 56.968 44.2191 55.24 41.0831 51.784C38.5871 49.096 36.8911 45.544 35.9951 41.128C35.6111 39.272 35.1951 37.576 34.7471 36.04C33.7231 32.584 31.6431 30.856 28.5071 30.856H24.2831V54.088H29.0831V56.008H5.08313V54.088H9.88313V4.168H5.08313V2.248H30.3311C46.6511 2.248 54.8111 7.016 54.8111 16.552C54.8111 20.328 53.4351 23.4 50.6831 25.768C47.9311 28.136 44.4111 29.32 40.1231 29.32V29.992C46.5231 29.992 50.9711 34.216 53.4671 42.664C54.7471 47.144 56.0271 50.344 57.3071 52.264C58.6511 54.12 60.2191 55.048 62.0111 55.048V56.968ZM105.289 29.032C105.289 20.84 104.169 14.472 101.929 9.928C99.7531 5.32 96.7131 3.016 92.8091 3.016C88.9691 3.016 85.9291 5.32 83.6891 9.928C81.4491 14.536 80.3291 20.968 80.3291 29.224C80.3291 37.48 81.3851 43.848 83.4971 48.328C85.6731 52.808 88.7771 55.048 92.8091 55.048C101.129 55.048 105.289 46.376 105.289 29.032ZM120.745 29.608C120.745 38.376 118.153 45.128 112.969 49.864C107.785 54.6 101.033 56.968 92.7131 56.968C84.3931 56.968 77.6731 54.632 72.5531 49.96C67.4331 45.224 64.8731 38.472 64.8731 29.704C64.8731 20.872 67.4331 13.896 72.5531 8.776C77.6731 3.656 84.4571 1.096 92.9051 1.096C101.417 1.096 108.169 3.656 113.161 8.776C118.217 13.832 120.745 20.776 120.745 29.608ZM173.072 23.656H171.152C171.152 18.536 169.52 13.8 166.256 9.448C162.992 5.096 158.32 2.92 152.24 2.92C148.848 2.92 146.032 4.904 143.792 8.872C141.616 12.84 140.528 19.624 140.528 29.224C140.528 38.824 141.616 45.608 143.792 49.576C146.032 53.544 149.488 55.528 154.16 55.528C158.896 55.528 162.864 54.056 166.064 51.112C169.328 48.168 171.344 44.008 172.112 38.632H174.032C173.136 44.968 170.896 49.704 167.312 52.84C163.792 55.912 159.568 57.448 154.64 57.448C145.104 57.448 137.776 55.176 132.656 50.632C127.6 46.024 125.072 38.856 125.072 29.128C125.072 19.336 127.536 12.2 132.464 7.72C137.456 3.24 144.048 1 152.24 1C156.656 1 160.944 2.184 165.104 4.552C166.448 5.384 167.536 5.8 168.368 5.8C169.264 5.8 169.968 5.416 170.48 4.648C170.992 3.816 171.248 3.016 171.248 2.248H173.072V23.656ZM236.871 54.088V56.008H211.911V54.088H216.231L203.463 30.76L199.431 35.848V54.088H204.231V56.008H180.231V54.088H185.031V4.168H180.231V2.248H204.231V4.168H199.431V32.488L221.703 4.168H212.871V2.248H232.455V4.168H224.295L212.967 18.568L232.743 54.088H236.871Z" fill="#393B41"/>
<path d="M24.2831 4.168V3.168H23.2831V4.168H24.2831ZM24.2831 28.936H23.2831V29.936H24.2831V28.936ZM37.1471 26.152L36.4982 25.3912V25.3912L37.1471 26.152ZM37.0511 7.24L36.3764 7.97803V7.97803L37.0511 7.24ZM62.0111 56.968V57.968H63.0111V56.968H62.0111ZM41.0831 51.784L41.8237 51.112L41.8159 51.1036L41.0831 51.784ZM35.9951 41.128L36.9752 40.9292L36.9744 40.9254L35.9951 41.128ZM34.7471 36.04L35.7071 35.76L35.7059 35.7559L34.7471 36.04ZM24.2831 30.856V29.856H23.2831V30.856H24.2831ZM24.2831 54.088H23.2831V55.088H24.2831V54.088ZM29.0831 54.088H30.0831V53.088H29.0831V54.088ZM29.0831 56.008V57.008H30.0831V56.008H29.0831ZM5.08313 56.008H4.08313V57.008H5.08313V56.008ZM5.08313 54.088V53.088H4.08313V54.088H5.08313ZM9.88313 54.088V55.088H10.8831V54.088H9.88313ZM9.88313 4.168H10.8831V3.168H9.88313V4.168ZM5.08313 4.168H4.08313V5.168H5.08313V4.168ZM5.08313 2.248V1.248H4.08313V2.248H5.08313ZM50.6831 25.768L50.0309 25.01V25.01L50.6831 25.768ZM40.1231 29.32V28.32H39.1231V29.32H40.1231ZM40.1231 29.992H39.1231V30.992H40.1231V29.992ZM53.4671 42.664L54.4287 42.3893L54.4261 42.3807L53.4671 42.664ZM57.3071 52.264L56.4751 52.8187L56.4858 52.8348L56.4972 52.8505L57.3071 52.264ZM62.0111 55.048H63.0111V54.048H62.0111V55.048ZM24.2831 4.168H23.2831V28.936H24.2831H25.2831V4.168H24.2831ZM24.2831 28.936V29.936C27.525 29.936 30.2734 29.7015 32.5106 29.2174C34.7374 28.7355 36.5328 27.9903 37.7961 26.9128L37.1471 26.152L36.4982 25.3912C35.5854 26.1697 34.1488 26.8165 32.0876 27.2626C30.0368 27.7065 27.4413 27.936 24.2831 27.936V28.936ZM37.1471 26.152L37.7961 26.9128C40.29 24.7856 41.4111 21.3308 41.4111 16.84H40.4111H39.4111C39.4111 21.0532 38.3562 23.8064 36.4982 25.3912L37.1471 26.152ZM40.4111 16.84H41.4111C41.4111 12.3315 40.2498 8.80957 37.7259 6.50197L37.0511 7.24L36.3764 7.97803C38.3324 9.76644 39.4111 12.6445 39.4111 16.84H40.4111ZM37.0511 7.24L37.7259 6.50197C35.1848 4.17867 30.5804 3.168 24.2831 3.168V4.168V5.168C30.5299 5.168 34.4375 6.20534 36.3764 7.97803L37.0511 7.24ZM62.0111 56.968V55.968H57.7871V56.968V57.968H62.0111V56.968ZM57.7871 56.968V55.968C49.8782 55.968 44.6716 54.2505 41.8237 51.112L41.0831 51.784L40.3426 52.456C43.7667 56.2295 49.696 57.968 57.7871 57.968V56.968ZM41.0831 51.784L41.8159 51.1036C39.4708 48.578 37.8429 45.2061 36.9752 40.9292L35.9951 41.128L35.0151 41.3269C35.9393 45.882 37.7034 49.614 40.3503 52.4645L41.0831 51.784ZM35.9951 41.128L36.9744 40.9254C36.5859 39.0479 36.1638 37.3257 35.7071 35.76L34.7471 36.04L33.7871 36.32C34.2265 37.8263 34.6363 39.4961 35.0159 41.3306L35.9951 41.128ZM34.7471 36.04L35.7059 35.7559C35.1561 33.9001 34.2935 32.4091 33.0581 31.3828C31.8106 30.3464 30.2693 29.856 28.5071 29.856V30.856V31.856C29.881 31.856 30.9477 32.2296 31.7801 32.9212C32.6248 33.6229 33.3142 34.7239 33.7883 36.3241L34.7471 36.04ZM28.5071 30.856V29.856H24.2831V30.856V31.856H28.5071V30.856ZM24.2831 30.856H23.2831V54.088H24.2831H25.2831V30.856H24.2831ZM24.2831 54.088V55.088H29.0831V54.088V53.088H24.2831V54.088ZM29.0831 54.088H28.0831V56.008H29.0831H30.0831V54.088H29.0831ZM29.0831 56.008V55.008H5.08313V56.008V57.008H29.0831V56.008ZM5.08313 56.008H6.08313V54.088H5.08313H4.08313V56.008H5.08313ZM5.08313 54.088V55.088H9.88313V54.088V53.088H5.08313V54.088ZM9.88313 54.088H10.8831V4.168H9.88313H8.88313V54.088H9.88313ZM9.88313 4.168V3.168H5.08313V4.168V5.168H9.88313V4.168ZM5.08313 4.168H6.08313V2.248H5.08313H4.08313V4.168H5.08313ZM5.08313 2.248V3.248H30.3311V2.248V1.248H5.08313V2.248ZM30.3311 2.248V3.248C38.4265 3.248 44.3341 4.43635 48.1866 6.68741C51.9564 8.89012 53.8111 12.1354 53.8111 16.552H54.8111H55.8111C55.8111 11.4326 53.5859 7.52589 49.1956 4.96059C44.8881 2.44366 38.5558 1.248 30.3311 1.248V2.248ZM54.8111 16.552H53.8111C53.8111 20.0501 52.5522 22.8405 50.0309 25.01L50.6831 25.768L51.3354 26.526C54.3181 23.9595 55.8111 20.6059 55.8111 16.552H54.8111ZM50.6831 25.768L50.0309 25.01C47.4921 27.1945 44.2174 28.32 40.1231 28.32V29.32V30.32C44.6049 30.32 48.3701 29.0775 51.3354 26.526L50.6831 25.768ZM40.1231 29.32H39.1231V29.992H40.1231H41.1231V29.32H40.1231ZM40.1231 29.992V30.992C43.0791 30.992 45.5411 31.9579 47.5705 33.8851C49.6234 35.8347 51.2895 38.8227 52.5081 42.9473L53.4671 42.664L54.4261 42.3807C53.1488 38.0574 51.3428 34.7093 48.9477 32.4349C46.5292 30.1381 43.5671 28.992 40.1231 28.992V29.992ZM53.4671 42.664L52.5056 42.9387C53.7912 47.4384 55.1049 50.7635 56.4751 52.8187L57.3071 52.264L58.1392 51.7093C56.9493 49.9245 55.703 46.8496 54.4287 42.3893L53.4671 42.664ZM57.3071 52.264L56.4972 52.8505C57.9712 54.886 59.8109 56.048 62.0111 56.048V55.048V54.048C60.6274 54.048 59.3311 53.354 58.1171 51.6775L57.3071 52.264ZM62.0111 55.048H61.0111V56.968H62.0111H63.0111V55.048H62.0111ZM101.929 9.928L101.025 10.355L101.028 10.3626L101.032 10.3702L101.929 9.928ZM83.6891 9.928L82.7898 9.49081L83.6891 9.928ZM83.4971 48.328L82.5925 48.7545L82.5976 48.7649L83.4971 48.328ZM112.969 49.864L112.295 49.1257V49.1257L112.969 49.864ZM72.5531 49.96L71.8741 50.6941L71.8791 50.6987L72.5531 49.96ZM72.5531 8.776L73.2602 9.48311V9.48311L72.5531 8.776ZM113.161 8.776L112.445 9.47416L112.454 9.48311L113.161 8.776ZM105.289 29.032H106.289C106.289 20.7706 105.163 14.2268 102.826 9.48585L101.929 9.928L101.032 10.3702C103.175 14.7172 104.289 20.9094 104.289 29.032H105.289ZM101.929 9.928L102.833 9.501C100.552 4.67042 97.2233 2.016 92.8091 2.016V3.016V4.016C96.203 4.016 98.954 5.96958 101.025 10.355L101.929 9.928ZM92.8091 3.016V2.016C88.456 2.016 85.1314 4.67381 82.7898 9.49081L83.6891 9.928L84.5885 10.3652C86.7269 5.96619 89.4823 4.016 92.8091 4.016V3.016ZM83.6891 9.928L82.7898 9.49081C80.4551 14.2935 79.3291 20.8988 79.3291 29.224H80.3291H81.3291C81.3291 21.0372 82.4431 14.7785 84.5885 10.3652L83.6891 9.928ZM80.3291 29.224H79.3291C79.3291 37.5415 80.3892 44.0806 82.5926 48.7544L83.4971 48.328L84.4016 47.9016C82.381 43.6154 81.3291 37.4185 81.3291 29.224H80.3291ZM83.4971 48.328L82.5976 48.7649C83.7368 51.1102 85.1515 52.9374 86.8719 54.1789C88.6037 55.4286 90.595 56.048 92.8091 56.048V55.048V54.048C90.9913 54.048 89.4145 53.5474 88.0423 52.5571C86.6587 51.5586 85.4335 50.0258 84.3966 47.8911L83.4971 48.328ZM92.8091 55.048V56.048C95.0728 56.048 97.0963 55.4547 98.8398 54.2432C100.575 53.0375 101.975 51.2598 103.071 48.9765C105.248 44.4368 106.289 37.7521 106.289 29.032H105.289H104.289C104.289 37.6559 103.25 43.9792 101.268 48.1115C100.283 50.1642 99.0834 51.6385 97.6985 52.6008C96.3219 53.5573 94.7054 54.048 92.8091 54.048V55.048ZM120.745 29.608H119.745C119.745 38.17 117.222 44.6244 112.295 49.1257L112.969 49.864L113.644 50.6023C119.084 45.6316 121.745 38.582 121.745 29.608H120.745ZM112.969 49.864L112.295 49.1257C107.328 53.663 100.832 55.968 92.7131 55.968V56.968V57.968C101.234 57.968 108.242 55.537 113.644 50.6023L112.969 49.864ZM92.7131 56.968V55.968C84.5898 55.968 78.1274 53.6927 73.2272 49.2213L72.5531 49.96L71.8791 50.6987C77.2189 55.5713 84.1965 57.968 92.7131 57.968V56.968ZM72.5531 49.96L73.2322 49.2259C68.3669 44.7255 65.8731 38.2698 65.8731 29.704H64.8731H63.8731C63.8731 38.6742 66.4993 45.7225 71.8741 50.6941L72.5531 49.96ZM64.8731 29.704H65.8731C65.8731 21.0752 68.3675 14.3758 73.2602 9.48311L72.5531 8.776L71.846 8.06889C66.4987 13.4162 63.8731 20.6688 63.8731 29.704H64.8731ZM72.5531 8.776L73.2602 9.48311C78.1614 4.5819 84.6746 2.096 92.9051 2.096V1.096V0.0960007C84.2397 0.0960007 77.1848 2.7301 71.846 8.06889L72.5531 8.776ZM92.9051 1.096V2.096C101.203 2.096 107.677 4.58343 112.445 9.4741L113.161 8.776L113.877 8.0779C108.662 2.72857 101.631 0.0960007 92.9051 0.0960007V1.096ZM113.161 8.776L112.454 9.48311C117.28 14.3095 119.745 20.9751 119.745 29.608H120.745H121.745C121.745 20.5769 119.154 13.3545 113.868 8.06889L113.161 8.776ZM173.072 23.656V24.656H174.072V23.656H173.072ZM171.152 23.656H170.152V24.656H171.152V23.656ZM166.256 9.448L167.056 8.848V8.848L166.256 9.448ZM143.792 8.872L142.921 8.38037L142.915 8.39117L143.792 8.872ZM143.792 49.576L142.915 50.0569L142.921 50.0676L143.792 49.576ZM166.064 51.112L165.394 50.3694L165.387 50.3761L166.064 51.112ZM172.112 38.632V37.632H171.245L171.122 38.4906L172.112 38.632ZM174.032 38.632L175.022 38.772L175.183 37.632H174.032V38.632ZM167.312 52.84L167.969 53.5934L167.97 53.5926L167.312 52.84ZM132.656 50.632L131.982 51.3712L131.992 51.3799L132.656 50.632ZM132.464 7.72L131.796 6.97574L131.791 6.98006L132.464 7.72ZM165.104 4.552L165.63 3.70174L165.615 3.69205L165.599 3.68294L165.104 4.552ZM170.48 4.648L171.312 5.2027L171.322 5.18758L171.332 5.1721L170.48 4.648ZM171.248 2.248V1.248H170.248V2.248H171.248ZM173.072 2.248H174.072V1.248H173.072V2.248ZM173.072 23.656V22.656H171.152V23.656V24.656H173.072V23.656ZM171.152 23.656H172.152C172.152 18.3056 170.441 13.3616 167.056 8.848L166.256 9.448L165.456 10.048C168.599 14.2384 170.152 18.7664 170.152 23.656H171.152ZM166.256 9.448L167.056 8.848C163.579 4.212 158.592 1.92 152.24 1.92V2.92V3.92C158.048 3.92 162.405 5.98 165.456 10.048L166.256 9.448ZM152.24 2.92V1.92C148.365 1.92 145.269 4.22124 142.921 8.38041L143.792 8.872L144.663 9.36359C146.795 5.58675 149.331 3.92 152.24 3.92V2.92ZM143.792 8.872L142.915 8.39117C140.608 12.5973 139.528 19.6047 139.528 29.224H140.528H141.528C141.528 19.6433 142.623 13.0827 144.669 9.35283L143.792 8.872ZM140.528 29.224H139.528C139.528 38.8433 140.608 45.8507 142.915 50.0568L143.792 49.576L144.669 49.0952C142.623 45.3653 141.528 38.8047 141.528 29.224H140.528ZM143.792 49.576L142.921 50.0676C145.344 54.3595 149.138 56.528 154.16 56.528V55.528V54.528C149.837 54.528 146.72 52.7285 144.663 49.0844L143.792 49.576ZM154.16 55.528V56.528C159.122 56.528 163.339 54.9775 166.741 51.8479L166.064 51.112L165.387 50.3761C162.389 53.1345 158.669 54.528 154.16 54.528V55.528ZM166.064 51.112L166.734 51.8546C170.209 48.7195 172.309 44.3248 173.102 38.7734L172.112 38.632L171.122 38.4906C170.379 43.6912 168.446 47.6165 165.394 50.3694L166.064 51.112ZM172.112 38.632V39.632H174.032V38.632V37.632H172.112V38.632ZM174.032 38.632L173.042 38.492C172.168 44.6729 170.003 49.1565 166.653 52.0874L167.312 52.84L167.97 53.5926C171.789 50.2515 174.104 45.2631 175.022 38.772L174.032 38.632ZM167.312 52.84L166.654 52.0866C163.327 54.9904 159.341 56.448 154.64 56.448V57.448V58.448C159.795 58.448 164.257 56.8336 167.969 53.5934L167.312 52.84ZM154.64 57.448V56.448C145.252 56.448 138.196 54.2116 133.32 49.8841L132.656 50.632L131.992 51.3799C137.356 56.1404 144.955 58.448 154.64 58.448V57.448ZM132.656 50.632L133.329 49.8929C128.557 45.5432 126.072 38.6963 126.072 29.128H125.072H124.072C124.072 39.0157 126.643 46.5048 131.982 51.3711L132.656 50.632ZM125.072 29.128H126.072C126.072 19.4838 128.499 12.6759 133.137 8.45994L132.464 7.72L131.791 6.98006C126.573 11.7241 124.072 19.1882 124.072 29.128H125.072ZM132.464 7.72L133.132 8.46424C137.902 4.18346 144.237 2 152.24 2V1V0C143.858 0 137.01 2.29654 131.796 6.97576L132.464 7.72ZM152.24 1V2C156.468 2 160.587 3.13146 164.609 5.42107L165.104 4.552L165.599 3.68294C161.301 1.23655 156.844 0 152.24 0V1ZM165.104 4.552L164.578 5.40227C165.96 6.25805 167.247 6.8 168.368 6.8V5.8V4.8C167.825 4.8 166.936 4.50995 165.63 3.70174L165.104 4.552ZM168.368 5.8V6.8C169.61 6.8 170.621 6.23882 171.312 5.2027L170.48 4.648L169.648 4.0933C169.315 4.59318 168.918 4.8 168.368 4.8V5.8ZM170.48 4.648L171.332 5.1721C171.914 4.22485 172.248 3.24519 172.248 2.248H171.248H170.248C170.248 2.78682 170.069 3.40715 169.628 4.1239L170.48 4.648ZM171.248 2.248V3.248H173.072V2.248V1.248H171.248V2.248ZM173.072 2.248H172.072V23.656H173.072H174.072V2.248H173.072ZM236.871 54.088H237.871V53.088H236.871V54.088ZM236.871 56.008V57.008H237.871V56.008H236.871ZM211.911 56.008H210.911V57.008H211.911V56.008ZM211.911 54.088V53.088H210.911V54.088H211.911ZM216.231 54.088V55.088H217.918L217.108 53.6079L216.231 54.088ZM203.463 30.76L204.34 30.2799L203.616 28.9568L202.679 30.1389L203.463 30.76ZM199.431 35.848L198.647 35.2269L198.431 35.4998V35.848H199.431ZM199.431 54.088H198.431V55.088H199.431V54.088ZM204.231 54.088H205.231V53.088H204.231V54.088ZM204.231 56.008V57.008H205.231V56.008H204.231ZM180.231 56.008H179.231V57.008H180.231V56.008ZM180.231 54.088V53.088H179.231V54.088H180.231ZM185.031 54.088V55.088H186.031V54.088H185.031ZM185.031 4.168H186.031V3.168H185.031V4.168ZM180.231 4.168H179.231V5.168H180.231V4.168ZM180.231 2.248V1.248H179.231V2.248H180.231ZM204.231 2.248H205.231V1.248H204.231V2.248ZM204.231 4.168V5.168H205.231V4.168H204.231ZM199.431 4.168V3.168H198.431V4.168H199.431ZM199.431 32.488H198.431V35.3772L200.217 33.1062L199.431 32.488ZM221.703 4.168L222.489 4.78617L223.761 3.168H221.703V4.168ZM212.871 4.168H211.871V5.168H212.871V4.168ZM212.871 2.248V1.248H211.871V2.248H212.871ZM232.455 2.248H233.455V1.248H232.455V2.248ZM232.455 4.168V5.168H233.455V4.168H232.455ZM224.295 4.168V3.168H223.809L223.509 3.54972L224.295 4.168ZM212.967 18.568L212.181 17.9497L211.769 18.4729L212.093 19.0544L212.967 18.568ZM232.743 54.088L231.869 54.5744L232.155 55.088H232.743V54.088ZM236.871 54.088H235.871V56.008H236.871H237.871V54.088H236.871ZM236.871 56.008V55.008H211.911V56.008V57.008H236.871V56.008ZM211.911 56.008H212.911V54.088H211.911H210.911V56.008H211.911ZM211.911 54.088V55.088H216.231V54.088V53.088H211.911V54.088ZM216.231 54.088L217.108 53.6079L204.34 30.2799L203.463 30.76L202.585 31.2401L215.353 54.5681L216.231 54.088ZM203.463 30.76L202.679 30.1389L198.647 35.2269L199.431 35.848L200.214 36.4691L204.246 31.3811L203.463 30.76ZM199.431 35.848H198.431V54.088H199.431H200.431V35.848H199.431ZM199.431 54.088V55.088H204.231V54.088V53.088H199.431V54.088ZM204.231 54.088H203.231V56.008H204.231H205.231V54.088H204.231ZM204.231 56.008V55.008H180.231V56.008V57.008H204.231V56.008ZM180.231 56.008H181.231V54.088H180.231H179.231V56.008H180.231ZM180.231 54.088V55.088H185.031V54.088V53.088H180.231V54.088ZM185.031 54.088H186.031V4.168H185.031H184.031V54.088H185.031ZM185.031 4.168V3.168H180.231V4.168V5.168H185.031V4.168ZM180.231 4.168H181.231V2.248H180.231H179.231V4.168H180.231ZM180.231 2.248V3.248H204.231V2.248V1.248H180.231V2.248ZM204.231 2.248H203.231V4.168H204.231H205.231V2.248H204.231ZM204.231 4.168V3.168H199.431V4.168V5.168H204.231V4.168ZM199.431 4.168H198.431V32.488H199.431H200.431V4.168H199.431ZM199.431 32.488L200.217 33.1062L222.489 4.78617L221.703 4.168L220.917 3.54983L198.645 31.8698L199.431 32.488ZM221.703 4.168V3.168H212.871V4.168V5.168H221.703V4.168ZM212.871 4.168H213.871V2.248H212.871H211.871V4.168H212.871ZM212.871 2.248V3.248H232.455V2.248V1.248H212.871V2.248ZM232.455 2.248H231.455V4.168H232.455H233.455V2.248H232.455ZM232.455 4.168V3.168H224.295V4.168V5.168H232.455V4.168ZM224.295 4.168L223.509 3.54972L212.181 17.9497L212.967 18.568L213.753 19.1863L225.081 4.78629L224.295 4.168ZM212.967 18.568L212.093 19.0544L231.869 54.5744L232.743 54.088L233.616 53.6016L213.84 18.0816L212.967 18.568ZM232.743 54.088V55.088H236.871V54.088V53.088H232.743V54.088Z" fill="#393B41"/>
<path d="M258.743 56.008H256.823V33.64H258.743C258.743 39.656 260.887 44.776 265.174 49C269.527 53.224 274.807 55.336 281.015 55.336C283.575 55.336 285.623 54.6 287.159 53.128C288.759 51.592 289.559 49.576 289.559 47.08C289.559 44.264 287.735 41.864 284.087 39.88C282.103 38.856 278.679 37.256 273.815 35.08C268.951 32.84 265.527 30.952 263.543 29.416C259.575 26.344 257.815 22.28 258.263 17.224C258.775 12.168 260.695 8.264 264.023 5.512C267.351 2.696 271.095 1.288 275.255 1.288C279.479 1.288 283.255 1.864 286.583 3.016C289.975 4.104 291.895 4.648 292.343 4.648C293.623 4.648 294.263 3.528 294.263 1.288H296.183V18.856H294.263C294.263 14.248 292.567 10.504 289.175 7.624C285.783 4.68 281.431 3.208 276.119 3.208C273.751 3.208 271.895 3.912 270.551 5.32C269.207 6.664 268.535 8.168 268.535 9.832C268.535 11.496 268.759 12.776 269.207 13.672C269.655 14.568 270.423 15.4 271.511 16.168C272.663 16.872 273.655 17.448 274.487 17.896C275.319 18.344 276.631 18.952 278.423 19.72C280.279 20.488 281.559 21.032 282.263 21.352C285.783 22.952 287.863 23.912 288.503 24.232C289.143 24.488 290.071 24.936 291.287 25.576C292.503 26.216 293.399 26.792 293.975 27.304C294.615 27.816 295.415 28.456 296.375 29.224C297.335 29.992 298.039 30.792 298.487 31.624C298.935 32.392 299.383 33.288 299.831 34.312C300.727 36.36 301.047 38.76 300.791 41.512C300.279 46.696 298.327 50.664 294.935 53.416C291.607 56.104 287.095 57.448 281.399 57.448C276.279 57.448 271.191 56.136 266.135 53.512C264.407 52.616 263.127 52.168 262.295 52.168C259.927 52.168 258.743 53.448 258.743 56.008ZM346.93 29.032C346.93 20.84 345.81 14.472 343.57 9.928C341.394 5.32 338.354 3.016 334.45 3.016C330.61 3.016 327.57 5.32 325.33 9.928C323.09 14.536 321.97 20.968 321.97 29.224C321.97 37.48 323.026 43.848 325.138 48.328C327.314 52.808 330.418 55.048 334.45 55.048C342.77 55.048 346.93 46.376 346.93 29.032ZM362.386 29.608C362.386 38.376 359.794 45.128 354.61 49.864C349.426 54.6 342.674 56.968 334.354 56.968C326.034 56.968 319.314 54.632 314.194 49.96C309.074 45.224 306.514 38.472 306.514 29.704C306.514 20.872 309.074 13.896 314.194 8.776C319.314 3.656 326.098 1.096 334.546 1.096C343.058 1.096 349.81 3.656 354.802 8.776C359.858 13.832 362.386 20.776 362.386 29.608ZM411.353 37.768H413.273V56.008H368.153V54.088H372.953V4.168H368.153V2.248H393.113V4.168H387.353V54.088H396.953C399.129 54.088 400.921 53.928 402.329 53.608C403.801 53.288 405.305 52.616 406.841 51.592C409.849 49.608 411.353 45 411.353 37.768ZM442.028 56.008H418.028V54.088H422.828V4.168H418.028V2.248H442.028V4.168H437.228V54.088H442.028V56.008ZM473.715 56.008H449.715V54.088H454.515V4.168H449.715V2.248H473.715C478.451 2.248 482.707 3.048 486.483 4.648C490.323 6.184 493.427 8.232 495.795 10.792C500.595 16.104 502.995 22.12 502.995 28.84C502.995 37.928 500.595 44.744 495.795 49.288C490.995 53.768 483.635 56.008 473.715 56.008ZM468.915 54.088C475.827 54.088 480.819 52.232 483.891 48.52C486.963 44.744 488.499 38.632 488.499 30.184C488.499 21.672 486.835 15.208 483.507 10.792C480.179 6.376 475.315 4.168 468.915 4.168V54.088Z" fill="#393B41"/>
<path d="M258.743 56.008V57.008H259.743V56.008H258.743ZM256.823 56.008H255.823V57.008H256.823V56.008ZM256.823 33.64V32.64H255.823V33.64H256.823ZM258.743 33.64H259.743V32.64H258.743V33.64ZM265.174 49L264.473 49.7124L264.478 49.7176L265.174 49ZM287.159 53.128L287.85 53.85L287.851 53.8494L287.159 53.128ZM284.087 39.88L284.564 39.0015L284.555 38.9963L284.545 38.9914L284.087 39.88ZM273.815 35.08L273.396 35.9884L273.406 35.9928L273.815 35.08ZM263.543 29.416L262.93 30.2067H262.93L263.543 29.416ZM258.263 17.224L257.268 17.1232L257.266 17.1357L258.263 17.224ZM264.023 5.512L264.66 6.2827L264.668 6.27539L264.023 5.512ZM286.583 3.016L286.255 3.96098L286.266 3.96472L286.277 3.96822L286.583 3.016ZM294.263 1.288V0.287998H293.263V1.288H294.263ZM296.183 1.288H297.183V0.287998H296.183V1.288ZM296.183 18.856V19.856H297.183V18.856H296.183ZM294.263 18.856H293.263V19.856H294.263V18.856ZM289.174 7.624L288.519 8.37926L288.527 8.3863L289.174 7.624ZM270.551 5.32L271.258 6.02711L271.266 6.01889L271.274 6.01048L270.551 5.32ZM271.511 16.168L270.934 16.985L270.961 17.004L270.989 17.0213L271.511 16.168ZM274.487 17.896L274.961 17.0155V17.0155L274.487 17.896ZM278.423 19.72L278.029 20.6392L278.04 20.644L278.423 19.72ZM282.263 21.352L282.676 20.4416V20.4416L282.263 21.352ZM288.503 24.232L288.055 25.1264L288.092 25.145L288.131 25.1605L288.503 24.232ZM291.287 25.576L290.821 26.4609V26.4609L291.287 25.576ZM293.975 27.304L293.31 28.0514L293.33 28.0687L293.35 28.0849L293.975 27.304ZM296.375 29.224L296.999 28.4431V28.4431L296.375 29.224ZM298.487 31.624L297.606 32.0981L297.614 32.1131L297.623 32.1279L298.487 31.624ZM299.831 34.312L298.914 34.7128V34.7128L299.831 34.312ZM300.791 41.512L301.786 41.6103L301.786 41.6046L300.791 41.512ZM294.935 53.416L295.563 54.1939L295.565 54.1926L294.935 53.416ZM266.135 53.512L266.595 52.6244L266.595 52.6242L266.135 53.512ZM258.743 56.008V55.008H256.823V56.008V57.008H258.743V56.008ZM256.823 56.008H257.823V33.64H256.823H255.823V56.008H256.823ZM256.823 33.64V34.64H258.743V33.64V32.64H256.823V33.64ZM258.743 33.64H257.743C257.743 39.924 259.994 45.3006 264.473 49.7124L265.174 49L265.876 48.2876C261.779 44.2514 259.743 39.388 259.743 33.64H258.743ZM265.174 49L264.478 49.7176C269.021 54.1274 274.553 56.336 281.014 56.336V55.336V54.336C275.06 54.336 270.032 52.3206 265.871 48.2824L265.174 49ZM281.014 55.336V56.336C283.777 56.336 286.092 55.5355 287.85 53.85L287.159 53.128L286.467 52.406C285.153 53.6645 283.372 54.336 281.014 54.336V55.336ZM287.159 53.128L287.851 53.8494C289.673 52.1003 290.559 49.8108 290.559 47.08H289.559H288.559C288.559 49.3412 287.844 51.0837 286.466 52.4066L287.159 53.128ZM289.559 47.08H290.559C290.559 43.7387 288.365 41.0686 284.564 39.0015L284.087 39.88L283.609 40.7585C287.104 42.6594 288.559 44.7893 288.559 47.08H289.559ZM284.087 39.88L284.545 38.9914C282.534 37.9533 279.087 36.3433 274.223 34.1672L273.815 35.08L273.406 35.9928C278.27 38.1687 281.671 39.7587 283.628 40.7686L284.087 39.88ZM273.815 35.08L274.233 34.1717C269.378 31.9361 266.043 30.0871 264.155 28.6253L263.543 29.416L262.93 30.2067C265.01 31.8169 268.523 33.7439 273.396 35.9883L273.815 35.08ZM263.543 29.416L264.155 28.6253C260.46 25.7647 258.84 22.0337 259.259 17.3123L258.263 17.224L257.266 17.1357C256.789 22.5263 258.689 26.9233 262.93 30.2067L263.543 29.416ZM258.263 17.224L259.257 17.3248C259.748 12.4807 261.57 8.83771 264.66 6.28265L264.023 5.512L263.385 4.74136C259.819 7.6903 257.801 11.8553 257.268 17.1233L258.263 17.224ZM264.023 5.512L264.668 6.27539C267.825 3.6042 271.343 2.288 275.255 2.288V1.288V0.287998C270.846 0.287998 266.876 1.7878 263.377 4.74862L264.023 5.512ZM275.255 1.288V2.288C279.389 2.288 283.051 2.85184 286.255 3.96098L286.583 3.016L286.91 2.07101C283.458 0.876156 279.568 0.287998 275.255 0.287998V1.288ZM286.583 3.016L286.277 3.96822C287.977 4.51346 289.318 4.9255 290.294 5.20213C290.781 5.3402 291.187 5.44725 291.507 5.52061C291.792 5.58618 292.101 5.648 292.342 5.648V4.648V3.648C292.36 3.648 292.261 3.64182 291.954 3.57139C291.682 3.50875 291.312 3.4118 290.839 3.27787C289.895 3.0105 288.58 2.60654 286.888 2.06378L286.583 3.016ZM292.342 4.648V5.648C293.345 5.648 294.154 5.1727 294.651 4.30414C295.099 3.51913 295.263 2.47046 295.263 1.288H294.263H293.263C293.263 2.34554 293.106 2.97688 292.914 3.31186C292.771 3.5633 292.62 3.648 292.342 3.648V4.648ZM294.263 1.288V2.288H296.183V1.288V0.287998H294.263V1.288ZM296.183 1.288H295.183V18.856H296.183H297.183V1.288H296.183ZM296.183 18.856V17.856H294.263V18.856V19.856H296.183V18.856ZM294.263 18.856H295.263C295.263 13.9664 293.446 9.93933 289.822 6.86171L289.174 7.624L288.527 8.3863C291.687 11.0687 293.263 14.5296 293.263 18.856H294.263ZM289.174 7.624L289.83 6.86878C286.224 3.73899 281.625 2.208 276.118 2.208V3.208V4.208C281.236 4.208 285.341 5.62101 288.519 8.37922L289.174 7.624ZM276.118 3.208V2.208C273.541 2.208 271.4 2.98217 269.827 4.62953L270.551 5.32L271.274 6.01048C272.389 4.84184 273.96 4.208 276.118 4.208V3.208ZM270.551 5.32L269.843 4.6129C268.341 6.11544 267.535 7.86442 267.535 9.832H268.535H269.535C269.535 8.47158 270.072 7.21256 271.258 6.02711L270.551 5.32ZM268.535 9.832H267.535C267.535 11.5611 267.763 13.0215 268.312 14.1192L269.207 13.672L270.101 13.2248C269.754 12.5305 269.535 11.4309 269.535 9.832H268.535ZM269.207 13.672L268.312 14.1192C268.854 15.2034 269.754 16.152 270.934 16.985L271.511 16.168L272.087 15.351C271.091 14.648 270.455 13.9326 270.101 13.2248L269.207 13.672ZM271.511 16.168L270.989 17.0213C272.151 17.7311 273.159 18.3171 274.012 18.7765L274.487 17.896L274.961 17.0155C274.15 16.5789 273.174 16.0129 272.032 15.3147L271.511 16.168ZM274.487 17.896L274.012 18.7765C274.886 19.2466 276.232 19.869 278.029 20.6391L278.423 19.72L278.816 18.8009C277.029 18.035 275.751 17.4414 274.961 17.0155L274.487 17.896ZM278.423 19.72L278.04 20.644C279.897 21.4124 281.162 21.9504 281.849 22.2624L282.263 21.352L282.676 20.4416C281.955 20.1136 280.66 19.5636 278.805 18.796L278.423 19.72ZM282.263 21.352L281.849 22.2624C285.378 23.8667 287.436 24.8169 288.055 25.1264L288.503 24.232L288.95 23.3376C288.289 23.0071 286.187 22.0373 282.676 20.4416L282.263 21.352ZM288.503 24.232L288.131 25.1605C288.721 25.3965 289.612 25.8245 290.821 26.4609L291.287 25.576L291.752 24.6911C290.529 24.0475 289.564 23.5795 288.874 23.3035L288.503 24.232ZM291.287 25.576L290.821 26.4609C292.012 27.0877 292.824 27.6193 293.31 28.0514L293.975 27.304L294.639 26.5566C293.973 25.9647 292.993 25.3443 291.752 24.6911L291.287 25.576ZM293.975 27.304L293.35 28.0849C293.99 28.5969 294.79 29.2369 295.75 30.0049L296.375 29.224L296.999 28.4431C296.039 27.6751 295.239 27.0351 294.599 26.5231L293.975 27.304ZM296.375 29.224L295.75 30.0049C296.635 30.713 297.238 31.4144 297.606 32.0981L298.487 31.624L299.367 31.1499C298.839 30.1696 298.034 29.271 296.999 28.4431L296.375 29.224ZM298.487 31.624L297.623 32.1279C298.047 32.8554 298.478 33.7156 298.914 34.7128L299.831 34.312L300.747 33.9112C300.287 32.8604 299.822 31.9286 299.35 31.1201L298.487 31.624ZM299.831 34.312L298.914 34.7128C299.728 36.5731 300.039 38.7966 299.795 41.4194L300.791 41.512L301.786 41.6046C302.054 38.7234 301.725 36.1469 300.747 33.9112L299.831 34.312ZM300.791 41.512L299.795 41.4137C299.304 46.3869 297.45 50.0876 294.304 52.6394L294.935 53.416L295.565 54.1926C299.203 51.2404 301.253 47.0051 301.786 41.6103L300.791 41.512ZM294.935 53.416L294.306 52.6381C291.207 55.141 286.942 56.448 281.399 56.448V57.448V58.448C287.247 58.448 292.006 57.0671 295.563 54.1939L294.935 53.416ZM281.399 57.448V56.448C276.456 56.448 271.525 55.183 266.595 52.6244L266.135 53.512L265.674 54.3996C270.856 57.089 276.101 58.448 281.399 58.448V57.448ZM266.135 53.512L266.595 52.6242C264.867 51.7283 263.394 51.168 262.295 51.168V52.168V53.168C262.859 53.168 263.946 53.5037 265.674 54.3998L266.135 53.512ZM262.295 52.168V51.168C260.935 51.168 259.738 51.5389 258.896 52.449C258.068 53.3443 257.743 54.5924 257.743 56.008H258.743H259.743C259.743 54.8636 260.009 54.1917 260.365 53.807C260.707 53.4371 261.286 53.168 262.295 53.168V52.168ZM343.57 9.928L342.666 10.355L342.669 10.3626L342.673 10.3702L343.57 9.928ZM325.33 9.928L324.43 9.49081L325.33 9.928ZM325.138 48.328L324.233 48.7545L324.238 48.7649L325.138 48.328ZM354.61 49.864L353.935 49.1257V49.1257L354.61 49.864ZM314.194 49.96L313.515 50.6941L313.52 50.6987L314.194 49.96ZM314.194 8.776L314.901 9.48311V9.48311L314.194 8.776ZM354.802 8.776L354.086 9.47416L354.095 9.48311L354.802 8.776ZM346.93 29.032H347.93C347.93 20.7706 346.804 14.2268 344.467 9.48585L343.57 9.928L342.673 10.3702C344.816 14.7172 345.93 20.9094 345.93 29.032H346.93ZM343.57 9.928L344.474 9.501C342.193 4.67042 338.864 2.016 334.45 2.016V3.016V4.016C337.844 4.016 340.595 5.96958 342.666 10.355L343.57 9.928ZM334.45 3.016V2.016C330.097 2.016 326.772 4.67381 324.43 9.49081L325.33 9.928L326.229 10.3652C328.368 5.96619 331.123 4.016 334.45 4.016V3.016ZM325.33 9.928L324.43 9.49081C322.096 14.2935 320.97 20.8988 320.97 29.224H321.97H322.97C322.97 21.0372 324.084 14.7785 326.229 10.3652L325.33 9.928ZM321.97 29.224H320.97C320.97 37.5415 322.03 44.0806 324.233 48.7544L325.138 48.328L326.042 47.9016C324.022 43.6154 322.97 37.4185 322.97 29.224H321.97ZM325.138 48.328L324.238 48.7649C325.377 51.1102 326.792 52.9374 328.513 54.1789C330.244 55.4286 332.236 56.048 334.45 56.048V55.048V54.048C332.632 54.048 331.055 53.5474 329.683 52.5571C328.299 51.5586 327.074 50.0258 326.037 47.8911L325.138 48.328ZM334.45 55.048V56.048C336.713 56.048 338.737 55.4547 340.48 54.2432C342.215 53.0375 343.616 51.2598 344.711 48.9765C346.889 44.4368 347.93 37.7521 347.93 29.032H346.93H345.93C345.93 37.6559 344.89 43.9792 342.908 48.1115C341.923 50.1642 340.724 51.6385 339.339 52.6008C337.963 53.5573 336.346 54.048 334.45 54.048V55.048ZM362.386 29.608H361.386C361.386 38.17 358.862 44.6244 353.935 49.1257L354.61 49.864L355.284 50.6023C360.725 45.6316 363.386 38.582 363.386 29.608H362.386ZM354.61 49.864L353.935 49.1257C348.969 53.663 342.473 55.968 334.354 55.968V56.968V57.968C342.874 57.968 349.883 55.537 355.284 50.6023L354.61 49.864ZM334.354 56.968V55.968C326.23 55.968 319.768 53.6927 314.868 49.2213L314.194 49.96L313.52 50.6987C318.86 55.5713 325.837 57.968 334.354 57.968V56.968ZM314.194 49.96L314.873 49.2259C310.008 44.7255 307.514 38.2698 307.514 29.704H306.514H305.514C305.514 38.6742 308.14 45.7225 313.515 50.6941L314.194 49.96ZM306.514 29.704H307.514C307.514 21.0752 310.008 14.3758 314.901 9.48311L314.194 8.776L313.487 8.06889C308.139 13.4162 305.514 20.6688 305.514 29.704H306.514ZM314.194 8.776L314.901 9.48311C319.802 4.5819 326.315 2.096 334.546 2.096V1.096V0.0960007C325.88 0.0960007 318.825 2.7301 313.487 8.06889L314.194 8.776ZM334.546 1.096V2.096C342.843 2.096 349.317 4.58343 354.086 9.4741L354.802 8.776L355.518 8.0779C350.302 2.72857 343.272 0.0960007 334.546 0.0960007V1.096ZM354.802 8.776L354.095 9.48311C358.921 14.3095 361.386 20.9751 361.386 29.608H362.386H363.386C363.386 20.5769 360.794 13.3545 355.509 8.06889L354.802 8.776ZM411.353 37.768V36.768H410.353V37.768H411.353ZM413.273 37.768H414.273V36.768H413.273V37.768ZM413.273 56.008V57.008H414.273V56.008H413.273ZM368.152 56.008H367.152V57.008H368.152V56.008ZM368.152 54.088V53.088H367.152V54.088H368.152ZM372.952 54.088V55.088H373.952V54.088H372.952ZM372.952 4.168H373.952V3.168H372.952V4.168ZM368.152 4.168H367.152V5.168H368.152V4.168ZM368.152 2.248V1.248H367.152V2.248H368.152ZM393.113 2.248H394.113V1.248H393.113V2.248ZM393.113 4.168V5.168H394.113V4.168H393.113ZM387.353 4.168V3.168H386.353V4.168H387.353ZM387.353 54.088H386.353V55.088H387.353V54.088ZM402.329 53.608L402.116 52.6308L402.107 52.6329L402.329 53.608ZM406.84 51.592L406.29 50.7572L406.286 50.76L406.84 51.592ZM411.353 37.768V38.768H413.273V37.768V36.768H411.353V37.768ZM413.273 37.768H412.273V56.008H413.273H414.273V37.768H413.273ZM413.273 56.008V55.008H368.152V56.008V57.008H413.273V56.008ZM368.152 56.008H369.152V54.088H368.152H367.152V56.008H368.152ZM368.152 54.088V55.088H372.952V54.088V53.088H368.152V54.088ZM372.952 54.088H373.952V4.168H372.952H371.952V54.088H372.952ZM372.952 4.168V3.168H368.152V4.168V5.168H372.952V4.168ZM368.152 4.168H369.152V2.248H368.152H367.152V4.168H368.152ZM368.152 2.248V3.248H393.113V2.248V1.248H368.152V2.248ZM393.113 2.248H392.113V4.168H393.113H394.113V2.248H393.113ZM393.113 4.168V3.168H387.353V4.168V5.168H393.113V4.168ZM387.353 4.168H386.353V54.088H387.353H388.353V4.168H387.353ZM387.353 54.088V55.088H396.952V54.088V53.088H387.353V54.088ZM396.952 54.088V55.088C399.17 55.088 401.043 54.9257 402.55 54.5831L402.329 53.608L402.107 52.6329C400.798 52.9303 399.087 53.088 396.952 53.088V54.088ZM402.329 53.608L402.541 54.5852C404.159 54.2334 405.778 53.5022 407.395 52.4241L406.84 51.592L406.286 50.76C404.831 51.7298 403.442 52.3426 402.116 52.6308L402.329 53.608ZM406.84 51.592L407.391 52.4268C409.14 51.2732 410.377 49.4033 411.175 46.9583C411.972 44.5178 412.353 41.4428 412.353 37.768H411.353H410.353C410.353 41.3252 409.981 44.1702 409.274 46.3377C408.568 48.5007 407.549 49.9268 406.29 50.7572L406.84 51.592ZM442.027 56.008V57.008H443.027V56.008H442.027ZM418.027 56.008H417.027V57.008H418.027V56.008ZM418.027 54.088V53.088H417.027V54.088H418.027ZM422.827 54.088V55.088H423.827V54.088H422.827ZM422.827 4.168H423.827V3.168H422.827V4.168ZM418.027 4.168H417.027V5.168H418.027V4.168ZM418.027 2.248V1.248H417.027V2.248H418.027ZM442.027 2.248H443.027V1.248H442.027V2.248ZM442.027 4.168V5.168H443.027V4.168H442.027ZM437.228 4.168V3.168H436.228V4.168H437.228ZM437.228 54.088H436.228V55.088H437.228V54.088ZM442.027 54.088H443.027V53.088H442.027V54.088ZM442.027 56.008V55.008H418.027V56.008V57.008H442.027V56.008ZM418.027 56.008H419.027V54.088H418.027H417.027V56.008H418.027ZM418.027 54.088V55.088H422.827V54.088V53.088H418.027V54.088ZM422.827 54.088H423.827V4.168H422.827H421.827V54.088H422.827ZM422.827 4.168V3.168H418.027V4.168V5.168H422.827V4.168ZM418.027 4.168H419.027V2.248H418.027H417.027V4.168H418.027ZM418.027 2.248V3.248H442.027V2.248V1.248H418.027V2.248ZM442.027 2.248H441.027V4.168H442.027H443.027V2.248H442.027ZM442.027 4.168V3.168H437.228V4.168V5.168H442.027V4.168ZM437.228 4.168H436.228V54.088H437.228H438.228V4.168H437.228ZM437.228 54.088V55.088H442.027V54.088V53.088H437.228V54.088ZM442.027 54.088H441.027V56.008H442.027H443.027V54.088H442.027ZM449.715 56.008H448.715V57.008H449.715V56.008ZM449.715 54.088V53.088H448.715V54.088H449.715ZM454.515 54.088V55.088H455.515V54.088H454.515ZM454.515 4.168H455.515V3.168H454.515V4.168ZM449.715 4.168H448.715V5.168H449.715V4.168ZM449.715 2.248V1.248H448.715V2.248H449.715ZM486.483 4.648L486.093 5.56875L486.102 5.57271L486.112 5.57648L486.483 4.648ZM495.795 10.792L496.537 10.1215L496.529 10.113L495.795 10.792ZM495.795 49.288L496.477 50.0191L496.482 50.0142L495.795 49.288ZM468.915 54.088H467.915V55.088H468.915V54.088ZM483.891 48.52L484.661 49.1576L484.667 49.1511L483.891 48.52ZM468.915 4.168V3.168H467.915V4.168H468.915ZM473.715 56.008V55.008H449.715V56.008V57.008H473.715V56.008ZM449.715 56.008H450.715V54.088H449.715H448.715V56.008H449.715ZM449.715 54.088V55.088H454.515V54.088V53.088H449.715V54.088ZM454.515 54.088H455.515V4.168H454.515H453.515V54.088H454.515ZM454.515 4.168V3.168H449.715V4.168V5.168H454.515V4.168ZM449.715 4.168H450.715V2.248H449.715H448.715V4.168H449.715ZM449.715 2.248V3.248H473.715V2.248V1.248H449.715V2.248ZM473.715 2.248V3.248C478.338 3.248 482.458 4.02852 486.093 5.56875L486.483 4.648L486.873 3.72725C482.956 2.06748 478.564 1.248 473.715 1.248V2.248ZM486.483 4.648L486.112 5.57648C489.839 7.06746 492.811 9.03854 495.061 11.471L495.795 10.792L496.529 10.113C494.043 7.42546 490.807 5.30054 486.854 3.71952L486.483 4.648ZM495.795 10.792L495.053 11.4624C499.699 16.6038 501.995 22.3849 501.995 28.84H502.995H503.995C503.995 21.8551 501.491 15.6042 496.537 10.1216L495.795 10.792ZM502.995 28.84H501.995C501.995 37.7594 499.642 44.269 495.108 48.5618L495.795 49.288L496.482 50.0142C501.548 45.219 503.995 38.0966 503.995 28.84H502.995ZM495.795 49.288L495.113 48.5569C490.573 52.7939 483.508 55.008 473.715 55.008V56.008V57.008C483.762 57.008 491.417 54.7421 496.477 50.0191L495.795 49.288ZM468.915 54.088V55.088C475.991 55.088 481.328 53.1856 484.661 49.1576L483.891 48.52L483.121 47.8824C480.31 51.2784 475.663 53.088 468.915 53.088V54.088ZM483.891 48.52L484.667 49.1511C487.957 45.1064 489.499 38.7092 489.499 30.184H488.499H487.499C487.499 38.5548 485.969 44.3817 483.115 47.8889L483.891 48.52ZM488.499 30.184H489.499C489.499 21.5651 487.818 14.8507 484.306 10.1902L483.507 10.792L482.708 11.3939C485.852 15.5653 487.499 21.7789 487.499 30.184H488.499ZM483.507 10.792L484.306 10.1902C480.757 5.48176 475.573 3.168 468.915 3.168V4.168V5.168C475.057 5.168 479.601 7.27024 482.708 11.3939L483.507 10.792ZM468.915 4.168H467.915V54.088H468.915H469.915V4.168H468.915Z" fill="#393B41"/>
<mask id="path-6-outside-1_7_13" maskUnits="userSpaceOnUse" x="4" y="67.008" width="498" height="72" fill="black">
<rect fill="white" x="4" y="67.008" width="498" height="72"/>
<path d="M57.8056 113.778H60.1456V136.008H5.15559V133.668H11.0056V72.828H5.15559V70.488H35.5756V72.828H28.5556V133.668H40.2556C42.9076 133.668 45.0916 133.473 46.8076 133.083C48.6016 132.693 50.4346 131.874 52.3066 130.626C55.9726 128.208 57.8056 122.592 57.8056 113.778ZM101.041 133.668C112.741 133.668 118.591 127.038 118.591 113.778H120.931V136.008H65.9407V133.668H71.7907V72.828H65.9407V70.488H119.761V90.378H117.421C117.421 83.436 116.017 78.795 113.209 76.455C110.479 74.037 106.033 72.828 99.8707 72.828H89.3407V100.908H94.0207C99.6367 100.908 103.186 100.206 104.668 98.802C106.15 97.398 106.891 94.59 106.891 90.378H109.231V113.778H106.891C106.891 109.41 106.15 106.563 104.668 105.237C103.186 103.911 99.6367 103.248 94.0207 103.248H89.3407V133.668H101.041ZM197.089 70.488V72.828H189.133L164.212 136.008H161.17L131.803 72.828H126.187V70.488H159.298V72.828H153.565L170.647 112.023L186.091 72.828H176.731V70.488H197.089ZM238.036 133.668C249.736 133.668 255.586 127.038 255.586 113.778H257.926V136.008H202.936V133.668H208.786V72.828H202.936V70.488H256.756V90.378H254.416C254.416 83.436 253.012 78.795 250.204 76.455C247.474 74.037 243.028 72.828 236.866 72.828H226.336V100.908H231.016C236.632 100.908 240.181 100.206 241.663 98.802C243.145 97.398 243.886 94.59 243.886 90.378H246.226V113.778H243.886C243.886 109.41 243.145 106.563 241.663 105.237C240.181 103.911 236.632 103.248 231.016 103.248H226.336V133.668H238.036ZM319.342 113.778H321.682V136.008H266.692V133.668H272.542V72.828H266.692V70.488H297.112V72.828H290.092V133.668H301.792C304.444 133.668 306.628 133.473 308.344 133.083C310.138 132.693 311.971 131.874 313.843 130.626C317.509 128.208 319.342 122.592 319.342 113.778ZM356.727 136.008H327.477V133.668H333.327V72.828H327.477V70.488H356.727V72.828H350.877V133.668H356.727V136.008ZM373.116 133.668H382.476V136.008H363.756V133.668H370.776V77.976C368.28 74.544 365.94 72.828 363.756 72.828V70.488H385.635L418.512 109.449V72.828H409.152V70.488H429.042V72.828H420.852V137.178H418.512L373.116 80.901V133.668ZM492.416 136.008C492.416 134.214 491.909 132.732 490.895 131.562C489.881 130.314 488.555 129.69 486.917 129.69C485.357 129.69 483.719 130.353 482.003 131.679C480.365 133.005 478.415 134.37 476.153 135.774C473.969 137.1 471.317 137.763 468.197 137.763C457.589 137.763 449.36 135.033 443.51 129.573C437.738 124.113 434.852 115.728 434.852 104.418C434.852 80.784 445.889 68.967 467.963 68.967C471.941 68.967 475.997 69.942 480.131 71.892C484.343 73.842 486.917 74.817 487.853 74.817C488.789 74.817 489.569 74.349 490.193 73.413C490.817 72.399 491.129 71.424 491.129 70.488H493.352V94.239H491.012C491.012 88.311 488.672 83.007 483.992 78.327C479.39 73.647 474.047 71.307 467.963 71.307C463.283 71.307 459.734 73.842 457.316 78.912C454.898 83.904 453.689 92.211 453.689 103.833C453.689 115.377 454.898 123.528 457.316 128.286C459.812 133.044 463.439 135.423 468.197 135.423C475.685 135.423 479.429 128.754 479.429 115.416V106.758H472.058V104.418H500.138V106.758H494.639V136.008H492.416Z"/>
</mask>
<path d="M57.8056 113.778H60.1456V136.008H5.15559V133.668H11.0056V72.828H5.15559V70.488H35.5756V72.828H28.5556V133.668H40.2556C42.9076 133.668 45.0916 133.473 46.8076 133.083C48.6016 132.693 50.4346 131.874 52.3066 130.626C55.9726 128.208 57.8056 122.592 57.8056 113.778ZM101.041 133.668C112.741 133.668 118.591 127.038 118.591 113.778H120.931V136.008H65.9407V133.668H71.7907V72.828H65.9407V70.488H119.761V90.378H117.421C117.421 83.436 116.017 78.795 113.209 76.455C110.479 74.037 106.033 72.828 99.8707 72.828H89.3407V100.908H94.0207C99.6367 100.908 103.186 100.206 104.668 98.802C106.15 97.398 106.891 94.59 106.891 90.378H109.231V113.778H106.891C106.891 109.41 106.15 106.563 104.668 105.237C103.186 103.911 99.6367 103.248 94.0207 103.248H89.3407V133.668H101.041ZM197.089 70.488V72.828H189.133L164.212 136.008H161.17L131.803 72.828H126.187V70.488H159.298V72.828H153.565L170.647 112.023L186.091 72.828H176.731V70.488H197.089ZM238.036 133.668C249.736 133.668 255.586 127.038 255.586 113.778H257.926V136.008H202.936V133.668H208.786V72.828H202.936V70.488H256.756V90.378H254.416C254.416 83.436 253.012 78.795 250.204 76.455C247.474 74.037 243.028 72.828 236.866 72.828H226.336V100.908H231.016C236.632 100.908 240.181 100.206 241.663 98.802C243.145 97.398 243.886 94.59 243.886 90.378H246.226V113.778H243.886C243.886 109.41 243.145 106.563 241.663 105.237C240.181 103.911 236.632 103.248 231.016 103.248H226.336V133.668H238.036ZM319.342 113.778H321.682V136.008H266.692V133.668H272.542V72.828H266.692V70.488H297.112V72.828H290.092V133.668H301.792C304.444 133.668 306.628 133.473 308.344 133.083C310.138 132.693 311.971 131.874 313.843 130.626C317.509 128.208 319.342 122.592 319.342 113.778ZM356.727 136.008H327.477V133.668H333.327V72.828H327.477V70.488H356.727V72.828H350.877V133.668H356.727V136.008ZM373.116 133.668H382.476V136.008H363.756V133.668H370.776V77.976C368.28 74.544 365.94 72.828 363.756 72.828V70.488H385.635L418.512 109.449V72.828H409.152V70.488H429.042V72.828H420.852V137.178H418.512L373.116 80.901V133.668ZM492.416 136.008C492.416 134.214 491.909 132.732 490.895 131.562C489.881 130.314 488.555 129.69 486.917 129.69C485.357 129.69 483.719 130.353 482.003 131.679C480.365 133.005 478.415 134.37 476.153 135.774C473.969 137.1 471.317 137.763 468.197 137.763C457.589 137.763 449.36 135.033 443.51 129.573C437.738 124.113 434.852 115.728 434.852 104.418C434.852 80.784 445.889 68.967 467.963 68.967C471.941 68.967 475.997 69.942 480.131 71.892C484.343 73.842 486.917 74.817 487.853 74.817C488.789 74.817 489.569 74.349 490.193 73.413C490.817 72.399 491.129 71.424 491.129 70.488H493.352V94.239H491.012C491.012 88.311 488.672 83.007 483.992 78.327C479.39 73.647 474.047 71.307 467.963 71.307C463.283 71.307 459.734 73.842 457.316 78.912C454.898 83.904 453.689 92.211 453.689 103.833C453.689 115.377 454.898 123.528 457.316 128.286C459.812 133.044 463.439 135.423 468.197 135.423C475.685 135.423 479.429 128.754 479.429 115.416V106.758H472.058V104.418H500.138V106.758H494.639V136.008H492.416Z" fill="#17507B"/>
<path d="M57.8056 113.778V112.778H56.8056V113.778H57.8056ZM60.1456 113.778H61.1456V112.778H60.1456V113.778ZM60.1456 136.008V137.008H61.1456V136.008H60.1456ZM5.15559 136.008H4.15559V137.008H5.15559V136.008ZM5.15559 133.668V132.668H4.15559V133.668H5.15559ZM11.0056 133.668V134.668H12.0056V133.668H11.0056ZM11.0056 72.828H12.0056V71.828H11.0056V72.828ZM5.15559 72.828H4.15559V73.828H5.15559V72.828ZM5.15559 70.488V69.488H4.15559V70.488H5.15559ZM35.5756 70.488H36.5756V69.488H35.5756V70.488ZM35.5756 72.828V73.828H36.5756V72.828H35.5756ZM28.5556 72.828V71.828H27.5556V72.828H28.5556ZM28.5556 133.668H27.5556V134.668H28.5556V133.668ZM46.8076 133.083L46.5951 132.106L46.586 132.108L46.8076 133.083ZM52.3066 130.626L51.756 129.791L51.7519 129.794L52.3066 130.626ZM57.8056 113.778V114.778H60.1456V113.778V112.778H57.8056V113.778ZM60.1456 113.778H59.1456V136.008H60.1456H61.1456V113.778H60.1456ZM60.1456 136.008V135.008H5.15559V136.008V137.008H60.1456V136.008ZM5.15559 136.008H6.15559V133.668H5.15559H4.15559V136.008H5.15559ZM5.15559 133.668V134.668H11.0056V133.668V132.668H5.15559V133.668ZM11.0056 133.668H12.0056V72.828H11.0056H10.0056V133.668H11.0056ZM11.0056 72.828V71.828H5.15559V72.828V73.828H11.0056V72.828ZM5.15559 72.828H6.15559V70.488H5.15559H4.15559V72.828H5.15559ZM5.15559 70.488V71.488H35.5756V70.488V69.488H5.15559V70.488ZM35.5756 70.488H34.5756V72.828H35.5756H36.5756V70.488H35.5756ZM35.5756 72.828V71.828H28.5556V72.828V73.828H35.5756V72.828ZM28.5556 72.828H27.5556V133.668H28.5556H29.5556V72.828H28.5556ZM28.5556 133.668V134.668H40.2556V133.668V132.668H28.5556V133.668ZM40.2556 133.668V134.668C42.9486 134.668 45.2138 134.471 47.0292 134.058L46.8076 133.083L46.586 132.108C44.9694 132.475 42.8665 132.668 40.2556 132.668V133.668ZM46.8076 133.083L47.02 134.06C48.9603 133.638 50.908 132.76 52.8613 131.458L52.3066 130.626L51.7519 129.794C49.9612 130.988 48.2429 131.748 46.5952 132.106L46.8076 133.083ZM52.3066 130.626L52.8572 131.461C54.9351 130.09 56.419 127.86 57.3815 124.911C58.3425 121.966 58.8056 118.244 58.8056 113.778H57.8056H56.8056C56.8056 118.126 56.3521 121.619 55.4802 124.29C54.6097 126.957 53.3441 128.744 51.756 129.791L52.3066 130.626ZM118.591 113.778V112.778H117.591V113.778H118.591ZM120.931 113.778H121.931V112.778H120.931V113.778ZM120.931 136.008V137.008H121.931V136.008H120.931ZM65.9407 136.008H64.9407V137.008H65.9407V136.008ZM65.9407 133.668V132.668H64.9407V133.668H65.9407ZM71.7907 133.668V134.668H72.7907V133.668H71.7907ZM71.7907 72.828H72.7907V71.828H71.7907V72.828ZM65.9407 72.828H64.9407V73.828H65.9407V72.828ZM65.9407 70.488V69.488H64.9407V70.488H65.9407ZM119.761 70.488H120.761V69.488H119.761V70.488ZM119.761 90.378V91.378H120.761V90.378H119.761ZM117.421 90.378H116.421V91.378H117.421V90.378ZM113.209 76.455L112.546 77.2036L112.557 77.2136L112.569 77.2232L113.209 76.455ZM89.3407 72.828V71.828H88.3407V72.828H89.3407ZM89.3407 100.908H88.3407V101.908H89.3407V100.908ZM106.891 90.378V89.378H105.891V90.378H106.891ZM109.231 90.378H110.231V89.378H109.231V90.378ZM109.231 113.778V114.778H110.231V113.778H109.231ZM106.891 113.778H105.891V114.778H106.891V113.778ZM104.668 105.237L105.335 104.492V104.492L104.668 105.237ZM89.3407 103.248V102.248H88.3407V103.248H89.3407ZM89.3407 133.668H88.3407V134.668H89.3407V133.668ZM101.041 133.668V134.668C107.08 134.668 111.782 132.951 114.953 129.357C118.103 125.787 119.591 120.534 119.591 113.778H118.591H117.591C117.591 120.283 116.153 124.974 113.453 128.034C110.775 131.07 106.702 132.668 101.041 132.668V133.668ZM118.591 113.778V114.778H120.931V113.778V112.778H118.591V113.778ZM120.931 113.778H119.931V136.008H120.931H121.931V113.778H120.931ZM120.931 136.008V135.008H65.9407V136.008V137.008H120.931V136.008ZM65.9407 136.008H66.9407V133.668H65.9407H64.9407V136.008H65.9407ZM65.9407 133.668V134.668H71.7907V133.668V132.668H65.9407V133.668ZM71.7907 133.668H72.7907V72.828H71.7907H70.7907V133.668H71.7907ZM71.7907 72.828V71.828H65.9407V72.828V73.828H71.7907V72.828ZM65.9407 72.828H66.9407V70.488H65.9407H64.9407V72.828H65.9407ZM65.9407 70.488V71.488H119.761V70.488V69.488H65.9407V70.488ZM119.761 70.488H118.761V90.378H119.761H120.761V70.488H119.761ZM119.761 90.378V89.378H117.421V90.378V91.378H119.761V90.378ZM117.421 90.378H118.421C118.421 83.3835 117.022 78.3314 113.849 75.6868L113.209 76.455L112.569 77.2232C115.011 79.2586 116.421 83.4885 116.421 90.378H117.421ZM113.209 76.455L113.872 75.7064C110.869 73.0466 106.121 71.828 99.8707 71.828V72.828V73.828C105.944 73.828 110.089 75.0274 112.546 77.2036L113.209 76.455ZM99.8707 72.828V71.828H89.3407V72.828V73.828H99.8707V72.828ZM89.3407 72.828H88.3407V100.908H89.3407H90.3407V72.828H89.3407ZM89.3407 100.908V101.908H94.0207V100.908V99.908H89.3407V100.908ZM94.0207 100.908V101.908C96.8624 101.908 99.2253 101.731 101.089 101.362C102.924 100.999 104.408 100.426 105.355 99.528L104.668 98.802L103.98 98.076C103.446 98.5821 102.414 99.0615 100.7 99.4005C99.0147 99.734 96.7951 99.908 94.0207 99.908V100.908ZM104.668 98.802L105.355 99.528C106.277 98.6549 106.903 97.4098 107.302 95.8982C107.702 94.3827 107.891 92.5351 107.891 90.378H106.891H105.891C105.891 92.4329 105.709 94.0953 105.368 95.3878C105.026 96.6842 104.54 97.5451 103.98 98.076L104.668 98.802ZM106.891 90.378V91.378H109.231V90.378V89.378H106.891V90.378ZM109.231 90.378H108.231V113.778H109.231H110.231V90.378H109.231ZM109.231 113.778V112.778H106.891V113.778V114.778H109.231V113.778ZM106.891 113.778H107.891C107.891 111.546 107.702 109.65 107.303 108.115C106.905 106.587 106.277 105.335 105.335 104.492L104.668 105.237L104.001 105.982C104.541 106.465 105.024 107.3 105.367 108.619C105.709 109.931 105.891 111.642 105.891 113.778H106.891ZM104.668 105.237L105.335 104.492C104.386 103.643 102.907 103.104 101.078 102.762C99.2195 102.415 96.8605 102.248 94.0207 102.248V103.248V104.248C96.797 104.248 99.0205 104.412 100.711 104.728C102.431 105.05 103.467 105.505 104.001 105.982L104.668 105.237ZM94.0207 103.248V102.248H89.3407V103.248V104.248H94.0207V103.248ZM89.3407 103.248H88.3407V133.668H89.3407H90.3407V103.248H89.3407ZM89.3407 133.668V134.668H101.041V133.668V132.668H89.3407V133.668ZM197.089 70.488H198.089V69.488H197.089V70.488ZM197.089 72.828V73.828H198.089V72.828H197.089ZM189.133 72.828V71.828H188.452L188.202 72.4611L189.133 72.828ZM164.212 136.008V137.008H164.892L165.142 136.375L164.212 136.008ZM161.17 136.008L160.263 136.43L160.532 137.008H161.17V136.008ZM131.803 72.828L132.709 72.4065L132.441 71.828H131.803V72.828ZM126.187 72.828H125.187V73.828H126.187V72.828ZM126.187 70.488V69.488H125.187V70.488H126.187ZM159.298 70.488H160.298V69.488H159.298V70.488ZM159.298 72.828V73.828H160.298V72.828H159.298ZM153.565 72.828V71.828H152.038L152.648 73.2275L153.565 72.828ZM170.647 112.023L169.73 112.423L170.693 114.633L171.577 112.39L170.647 112.023ZM186.091 72.828L187.021 73.1946L187.559 71.828H186.091V72.828ZM176.731 72.828H175.731V73.828H176.731V72.828ZM176.731 70.488V69.488H175.731V70.488H176.731ZM197.089 70.488H196.089V72.828H197.089H198.089V70.488H197.089ZM197.089 72.828V71.828H189.133V72.828V73.828H197.089V72.828ZM189.133 72.828L188.202 72.4611L163.281 135.641L164.212 136.008L165.142 136.375L190.063 73.1949L189.133 72.828ZM164.212 136.008V135.008H161.17V136.008V137.008H164.212V136.008ZM161.17 136.008L162.076 135.586L132.709 72.4065L131.803 72.828L130.896 73.2495L160.263 136.43L161.17 136.008ZM131.803 72.828V71.828H126.187V72.828V73.828H131.803V72.828ZM126.187 72.828H127.187V70.488H126.187H125.187V72.828H126.187ZM126.187 70.488V71.488H159.298V70.488V69.488H126.187V70.488ZM159.298 70.488H158.298V72.828H159.298H160.298V70.488H159.298ZM159.298 72.828V71.828H153.565V72.828V73.828H159.298V72.828ZM153.565 72.828L152.648 73.2275L169.73 112.423L170.647 112.023L171.563 111.623L154.481 72.4285L153.565 72.828ZM170.647 112.023L171.577 112.39L187.021 73.1946L186.091 72.828L185.16 72.4614L169.716 111.656L170.647 112.023ZM186.091 72.828V71.828H176.731V72.828V73.828H186.091V72.828ZM176.731 72.828H177.731V70.488H176.731H175.731V72.828H176.731ZM176.731 70.488V71.488H197.089V70.488V69.488H176.731V70.488ZM255.586 113.778V112.778H254.586V113.778H255.586ZM257.926 113.778H258.926V112.778H257.926V113.778ZM257.926 136.008V137.008H258.926V136.008H257.926ZM202.936 136.008H201.936V137.008H202.936V136.008ZM202.936 133.668V132.668H201.936V133.668H202.936ZM208.786 133.668V134.668H209.786V133.668H208.786ZM208.786 72.828H209.786V71.828H208.786V72.828ZM202.936 72.828H201.936V73.828H202.936V72.828ZM202.936 70.488V69.488H201.936V70.488H202.936ZM256.756 70.488H257.756V69.488H256.756V70.488ZM256.756 90.378V91.378H257.756V90.378H256.756ZM254.416 90.378H253.416V91.378H254.416V90.378ZM250.204 76.455L249.541 77.2036L249.552 77.2136L249.564 77.2232L250.204 76.455ZM226.336 72.828V71.828H225.336V72.828H226.336ZM226.336 100.908H225.336V101.908H226.336V100.908ZM243.886 90.378V89.378H242.886V90.378H243.886ZM246.226 90.378H247.226V89.378H246.226V90.378ZM246.226 113.778V114.778H247.226V113.778H246.226ZM243.886 113.778H242.886V114.778H243.886V113.778ZM241.663 105.237L242.33 104.492V104.492L241.663 105.237ZM226.336 103.248V102.248H225.336V103.248H226.336ZM226.336 133.668H225.336V134.668H226.336V133.668ZM238.036 133.668V134.668C244.075 134.668 248.777 132.951 251.948 129.357C255.098 125.787 256.586 120.534 256.586 113.778H255.586H254.586C254.586 120.283 253.148 124.974 250.449 128.034C247.77 131.07 243.697 132.668 238.036 132.668V133.668ZM255.586 113.778V114.778H257.926V113.778V112.778H255.586V113.778ZM257.926 113.778H256.926V136.008H257.926H258.926V113.778H257.926ZM257.926 136.008V135.008H202.936V136.008V137.008H257.926V136.008ZM202.936 136.008H203.936V133.668H202.936H201.936V136.008H202.936ZM202.936 133.668V134.668H208.786V133.668V132.668H202.936V133.668ZM208.786 133.668H209.786V72.828H208.786H207.786V133.668H208.786ZM208.786 72.828V71.828H202.936V72.828V73.828H208.786V72.828ZM202.936 72.828H203.936V70.488H202.936H201.936V72.828H202.936ZM202.936 70.488V71.488H256.756V70.488V69.488H202.936V70.488ZM256.756 70.488H255.756V90.378H256.756H257.756V70.488H256.756ZM256.756 90.378V89.378H254.416V90.378V91.378H256.756V90.378ZM254.416 90.378H255.416C255.416 83.3835 254.018 78.3314 250.844 75.6868L250.204 76.455L249.564 77.2232C252.006 79.2586 253.416 83.4885 253.416 90.378H254.416ZM250.204 76.455L250.867 75.7064C247.864 73.0466 243.117 71.828 236.866 71.828V72.828V73.828C242.939 73.828 247.084 75.0274 249.541 77.2036L250.204 76.455ZM236.866 72.828V71.828H226.336V72.828V73.828H236.866V72.828ZM226.336 72.828H225.336V100.908H226.336H227.336V72.828H226.336ZM226.336 100.908V101.908H231.016V100.908V99.908H226.336V100.908ZM231.016 100.908V101.908C233.858 101.908 236.22 101.731 238.084 101.362C239.919 100.999 241.403 100.426 242.351 99.528L241.663 98.802L240.975 98.076C240.441 98.5821 239.409 99.0615 237.696 99.4005C236.01 99.734 233.79 99.908 231.016 99.908V100.908ZM241.663 98.802L242.351 99.528C243.272 98.6549 243.898 97.4098 244.297 95.8982C244.697 94.3827 244.886 92.5351 244.886 90.378H243.886H242.886C242.886 92.4329 242.704 94.0953 242.363 95.3878C242.021 96.6842 241.536 97.5451 240.975 98.076L241.663 98.802ZM243.886 90.378V91.378H246.226V90.378V89.378H243.886V90.378ZM246.226 90.378H245.226V113.778H246.226H247.226V90.378H246.226ZM246.226 113.778V112.778H243.886V113.778V114.778H246.226V113.778ZM243.886 113.778H244.886C244.886 111.546 244.697 109.65 244.298 108.115C243.9 106.587 243.272 105.335 242.33 104.492L241.663 105.237L240.996 105.982C241.536 106.465 242.019 107.3 242.362 108.619C242.704 109.931 242.886 111.642 242.886 113.778H243.886ZM241.663 105.237L242.33 104.492C241.381 103.643 239.902 103.104 238.073 102.762C236.215 102.415 233.856 102.248 231.016 102.248V103.248V104.248C233.792 104.248 236.016 104.412 237.706 104.728C239.426 105.05 240.463 105.505 240.996 105.982L241.663 105.237ZM231.016 103.248V102.248H226.336V103.248V104.248H231.016V103.248ZM226.336 103.248H225.336V133.668H226.336H227.336V103.248H226.336ZM226.336 133.668V134.668H238.036V133.668V132.668H226.336V133.668ZM319.342 113.778V112.778H318.342V113.778H319.342ZM321.682 113.778H322.682V112.778H321.682V113.778ZM321.682 136.008V137.008H322.682V136.008H321.682ZM266.692 136.008H265.692V137.008H266.692V136.008ZM266.692 133.668V132.668H265.692V133.668H266.692ZM272.542 133.668V134.668H273.542V133.668H272.542ZM272.542 72.828H273.542V71.828H272.542V72.828ZM266.692 72.828H265.692V73.828H266.692V72.828ZM266.692 70.488V69.488H265.692V70.488H266.692ZM297.112 70.488H298.112V69.488H297.112V70.488ZM297.112 72.828V73.828H298.112V72.828H297.112ZM290.092 72.828V71.828H289.092V72.828H290.092ZM290.092 133.668H289.092V134.668H290.092V133.668ZM308.344 133.083L308.131 132.106L308.122 132.108L308.344 133.083ZM313.843 130.626L313.292 129.791L313.288 129.794L313.843 130.626ZM319.342 113.778V114.778H321.682V113.778V112.778H319.342V113.778ZM321.682 113.778H320.682V136.008H321.682H322.682V113.778H321.682ZM321.682 136.008V135.008H266.692V136.008V137.008H321.682V136.008ZM266.692 136.008H267.692V133.668H266.692H265.692V136.008H266.692ZM266.692 133.668V134.668H272.542V133.668V132.668H266.692V133.668ZM272.542 133.668H273.542V72.828H272.542H271.542V133.668H272.542ZM272.542 72.828V71.828H266.692V72.828V73.828H272.542V72.828ZM266.692 72.828H267.692V70.488H266.692H265.692V72.828H266.692ZM266.692 70.488V71.488H297.112V70.488V69.488H266.692V70.488ZM297.112 70.488H296.112V72.828H297.112H298.112V70.488H297.112ZM297.112 72.828V71.828H290.092V72.828V73.828H297.112V72.828ZM290.092 72.828H289.092V133.668H290.092H291.092V72.828H290.092ZM290.092 133.668V134.668H301.792V133.668V132.668H290.092V133.668ZM301.792 133.668V134.668C304.485 134.668 306.75 134.471 308.565 134.058L308.344 133.083L308.122 132.108C306.505 132.475 304.403 132.668 301.792 132.668V133.668ZM308.344 133.083L308.556 134.06C310.496 133.638 312.444 132.76 314.397 131.458L313.843 130.626L313.288 129.794C311.497 130.988 309.779 131.748 308.131 132.106L308.344 133.083ZM313.843 130.626L314.393 131.461C316.471 130.09 317.955 127.86 318.918 124.911C319.879 121.966 320.342 118.244 320.342 113.778H319.342H318.342C318.342 118.126 317.888 121.619 317.016 124.29C316.146 126.957 314.88 128.744 313.292 129.791L313.843 130.626ZM356.727 136.008V137.008H357.727V136.008H356.727ZM327.477 136.008H326.477V137.008H327.477V136.008ZM327.477 133.668V132.668H326.477V133.668H327.477ZM333.327 133.668V134.668H334.327V133.668H333.327ZM333.327 72.828H334.327V71.828H333.327V72.828ZM327.477 72.828H326.477V73.828H327.477V72.828ZM327.477 70.488V69.488H326.477V70.488H327.477ZM356.727 70.488H357.727V69.488H356.727V70.488ZM356.727 72.828V73.828H357.727V72.828H356.727ZM350.877 72.828V71.828H349.877V72.828H350.877ZM350.877 133.668H349.877V134.668H350.877V133.668ZM356.727 133.668H357.727V132.668H356.727V133.668ZM356.727 136.008V135.008H327.477V136.008V137.008H356.727V136.008ZM327.477 136.008H328.477V133.668H327.477H326.477V136.008H327.477ZM327.477 133.668V134.668H333.327V133.668V132.668H327.477V133.668ZM333.327 133.668H334.327V72.828H333.327H332.327V133.668H333.327ZM333.327 72.828V71.828H327.477V72.828V73.828H333.327V72.828ZM327.477 72.828H328.477V70.488H327.477H326.477V72.828H327.477ZM327.477 70.488V71.488H356.727V70.488V69.488H327.477V70.488ZM356.727 70.488H355.727V72.828H356.727H357.727V70.488H356.727ZM356.727 72.828V71.828H350.877V72.828V73.828H356.727V72.828ZM350.877 72.828H349.877V133.668H350.877H351.877V72.828H350.877ZM350.877 133.668V134.668H356.727V133.668V132.668H350.877V133.668ZM356.727 133.668H355.727V136.008H356.727H357.727V133.668H356.727ZM373.116 133.668H372.116V134.668H373.116V133.668ZM382.476 133.668H383.476V132.668H382.476V133.668ZM382.476 136.008V137.008H383.476V136.008H382.476ZM363.756 136.008H362.756V137.008H363.756V136.008ZM363.756 133.668V132.668H362.756V133.668H363.756ZM370.776 133.668V134.668H371.776V133.668H370.776ZM370.776 77.976H371.776V77.6508L371.585 77.3878L370.776 77.976ZM363.756 72.828H362.756V73.828H363.756V72.828ZM363.756 70.488V69.488H362.756V70.488H363.756ZM385.635 70.488L386.399 69.8431L386.1 69.488H385.635V70.488ZM418.512 109.449L417.748 110.094L419.512 112.185V109.449H418.512ZM418.512 72.828H419.512V71.828H418.512V72.828ZM409.152 72.828H408.152V73.828H409.152V72.828ZM409.152 70.488V69.488H408.152V70.488H409.152ZM429.042 70.488H430.042V69.488H429.042V70.488ZM429.042 72.828V73.828H430.042V72.828H429.042ZM420.852 72.828V71.828H419.852V72.828H420.852ZM420.852 137.178V138.178H421.852V137.178H420.852ZM418.512 137.178L417.734 137.806L418.034 138.178H418.512V137.178ZM373.116 80.901L373.894 80.2732L372.116 78.0686V80.901H373.116ZM373.116 133.668V134.668H382.476V133.668V132.668H373.116V133.668ZM382.476 133.668H381.476V136.008H382.476H383.476V133.668H382.476ZM382.476 136.008V135.008H363.756V136.008V137.008H382.476V136.008ZM363.756 136.008H364.756V133.668H363.756H362.756V136.008H363.756ZM363.756 133.668V134.668H370.776V133.668V132.668H363.756V133.668ZM370.776 133.668H371.776V77.976H370.776H369.776V133.668H370.776ZM370.776 77.976L371.585 77.3878C369.065 73.923 366.463 71.828 363.756 71.828V72.828V73.828C365.417 73.828 367.495 75.165 369.967 78.5642L370.776 77.976ZM363.756 72.828H364.756V70.488H363.756H362.756V72.828H363.756ZM363.756 70.488V71.488H385.635V70.488V69.488H363.756V70.488ZM385.635 70.488L384.871 71.1329L417.748 110.094L418.512 109.449L419.276 108.804L386.399 69.8431L385.635 70.488ZM418.512 109.449H419.512V72.828H418.512H417.512V109.449H418.512ZM418.512 72.828V71.828H409.152V72.828V73.828H418.512V72.828ZM409.152 72.828H410.152V70.488H409.152H408.152V72.828H409.152ZM409.152 70.488V71.488H429.042V70.488V69.488H409.152V70.488ZM429.042 70.488H428.042V72.828H429.042H430.042V70.488H429.042ZM429.042 72.828V71.828H420.852V72.828V73.828H429.042V72.828ZM420.852 72.828H419.852V137.178H420.852H421.852V72.828H420.852ZM420.852 137.178V136.178H418.512V137.178V138.178H420.852V137.178ZM418.512 137.178L419.29 136.55L373.894 80.2732L373.116 80.901L372.338 81.5289L417.734 137.806L418.512 137.178ZM373.116 80.901H372.116V133.668H373.116H374.116V80.901H373.116ZM492.416 136.008H491.416V137.008H492.416V136.008ZM490.895 131.562L490.119 132.193L490.129 132.205L490.139 132.217L490.895 131.562ZM482.003 131.679L481.391 130.888L481.382 130.895L481.374 130.902L482.003 131.679ZM476.153 135.774L476.672 136.629L476.68 136.624L476.153 135.774ZM443.51 129.573L442.823 130.299L442.827 130.304L443.51 129.573ZM480.131 71.892L479.704 72.7965L479.711 72.7995L480.131 71.892ZM490.193 73.413L491.025 73.9677L491.035 73.9526L491.044 73.9371L490.193 73.413ZM491.129 70.488V69.488H490.129V70.488H491.129ZM493.352 70.488H494.352V69.488H493.352V70.488ZM493.352 94.239V95.239H494.352V94.239H493.352ZM491.012 94.239H490.012V95.239H491.012V94.239ZM483.992 78.327L483.279 79.0282L483.285 79.0341L483.992 78.327ZM457.316 78.912L458.216 79.3479L458.218 79.3425L457.316 78.912ZM457.316 128.286L456.424 128.739L456.43 128.751L457.316 128.286ZM479.429 106.758H480.429V105.758H479.429V106.758ZM472.058 106.758H471.058V107.758H472.058V106.758ZM472.058 104.418V103.418H471.058V104.418H472.058ZM500.138 104.418H501.138V103.418H500.138V104.418ZM500.138 106.758V107.758H501.138V106.758H500.138ZM494.639 106.758V105.758H493.639V106.758H494.639ZM494.639 136.008V137.008H495.639V136.008H494.639ZM492.416 136.008H493.416C493.416 134.014 492.847 132.287 491.65 130.907L490.895 131.562L490.139 132.217C490.971 133.177 491.416 134.414 491.416 136.008H492.416ZM490.895 131.562L491.671 130.931C490.463 129.445 488.849 128.69 486.917 128.69V129.69V130.69C488.26 130.69 489.299 131.183 490.119 132.193L490.895 131.562ZM486.917 129.69V128.69C485.064 128.69 483.215 129.478 481.391 130.888L482.003 131.679L482.614 132.47C484.222 131.228 485.65 130.69 486.917 130.69V129.69ZM482.003 131.679L481.374 130.902C479.775 132.196 477.861 133.537 475.625 134.924L476.153 135.774L476.68 136.624C478.969 135.203 480.954 133.814 482.632 132.456L482.003 131.679ZM476.153 135.774L475.634 134.919C473.638 136.131 471.174 136.763 468.197 136.763V137.763V138.763C471.459 138.763 474.3 138.069 476.672 136.629L476.153 135.774ZM468.197 137.763V136.763C457.758 136.763 449.803 134.079 444.192 128.842L443.51 129.573L442.827 130.304C448.916 135.987 457.42 138.763 468.197 138.763V137.763ZM443.51 129.573L444.197 128.847C438.697 123.644 435.852 115.572 435.852 104.418H434.852H433.852C433.852 115.884 436.779 124.582 442.823 130.299L443.51 129.573ZM434.852 104.418H435.852C435.852 92.7388 438.58 84.1656 443.86 78.5123C449.128 72.8719 457.098 69.967 467.963 69.967V68.967V67.967C456.754 67.967 448.168 70.9706 442.399 77.1472C436.642 83.3109 433.852 92.4632 433.852 104.418H434.852ZM467.963 68.967V69.967C471.773 69.967 475.684 70.9 479.704 72.7964L480.131 71.892L480.557 70.9876C476.31 68.984 472.109 67.967 467.963 67.967V68.967ZM480.131 71.892L479.711 72.7995C481.826 73.7787 483.547 74.5212 484.866 75.0209C485.525 75.2706 486.097 75.4647 486.576 75.5977C487.036 75.7255 487.479 75.817 487.853 75.817V74.817V73.817C487.759 73.817 487.529 73.7866 487.111 73.6707C486.713 73.5599 486.202 73.3884 485.575 73.1506C484.32 72.6753 482.648 71.9553 480.551 70.9845L480.131 71.892ZM487.853 74.817V75.817C489.194 75.817 490.258 75.1174 491.025 73.9677L490.193 73.413L489.361 72.8583C488.879 73.5806 488.384 73.817 487.853 73.817V74.817ZM490.193 73.413L491.044 73.9371C491.739 72.8079 492.129 71.6532 492.129 70.488H491.129H490.129C490.129 71.1948 489.894 71.9901 489.341 72.8889L490.193 73.413ZM491.129 70.488V71.488H493.352V70.488V69.488H491.129V70.488ZM493.352 70.488H492.352V94.239H493.352H494.352V70.488H493.352ZM493.352 94.239V93.239H491.012V94.239V95.239H493.352V94.239ZM491.012 94.239H492.012C492.012 88.0138 489.543 82.4635 484.699 77.6199L483.992 78.327L483.285 79.0341C487.801 83.5505 490.012 88.6082 490.012 94.239H491.012ZM483.992 78.327L484.705 77.6259C479.931 72.7714 474.337 70.307 467.963 70.307V71.307V72.307C473.756 72.307 478.848 74.5226 483.279 79.0281L483.992 78.327ZM467.963 71.307V70.307C465.43 70.307 463.167 70.9968 461.21 72.3945C459.263 73.7849 457.675 75.8365 456.413 78.4815L457.316 78.912L458.218 79.3425C459.375 76.9175 460.77 75.1666 462.372 74.022C463.965 72.8847 465.815 72.307 467.963 72.307V71.307ZM457.316 78.912L456.416 78.4761C453.892 83.686 452.689 92.1903 452.689 103.833H453.689H454.689C454.689 92.2317 455.903 84.122 458.216 79.3479L457.316 78.912ZM453.689 103.833H452.689C452.689 115.392 453.89 123.753 456.424 128.739L457.316 128.286L458.207 127.833C455.905 123.303 454.689 115.362 454.689 103.833H453.689ZM457.316 128.286L456.43 128.751C457.739 131.245 459.374 133.172 461.36 134.475C463.352 135.782 465.643 136.423 468.197 136.423V135.423V134.423C465.993 134.423 464.091 133.875 462.457 132.803C460.815 131.726 459.389 130.085 458.201 127.821L457.316 128.286ZM468.197 135.423V136.423C470.222 136.423 472.041 135.971 473.621 135.032C475.2 134.095 476.486 132.705 477.493 130.911C479.49 127.353 480.429 122.146 480.429 115.416H479.429H478.429C478.429 122.024 477.496 126.82 475.749 129.932C474.884 131.472 473.829 132.583 472.6 133.313C471.372 134.042 469.916 134.423 468.197 134.423V135.423ZM479.429 115.416H480.429V106.758H479.429H478.429V115.416H479.429ZM479.429 106.758V105.758H472.058V106.758V107.758H479.429V106.758ZM472.058 106.758H473.058V104.418H472.058H471.058V106.758H472.058ZM472.058 104.418V105.418H500.138V104.418V103.418H472.058V104.418ZM500.138 104.418H499.138V106.758H500.138H501.138V104.418H500.138ZM500.138 106.758V105.758H494.639V106.758V107.758H500.138V106.758ZM494.639 106.758H493.639V136.008H494.639H495.639V106.758H494.639ZM494.639 136.008V135.008H492.416V136.008V137.008H494.639V136.008Z" fill="#17507B" mask="url(#path-6-outside-1_7_13)"/>
</svg>
