<svg width="505" height="140" viewBox="0 0 505 140" fill="none" xmlns="http://www.w3.org/2000/svg">
<path d="M24.2831 5.072V29.84C30.6831 29.84 34.9711 28.912 37.1471 27.056C39.3231 25.2 40.4111 22.096 40.4111 17.744C40.4111 13.392 39.2911 10.192 37.0511 8.144C34.8111 6.096 30.5551 5.072 24.2831 5.072ZM62.0111 57.872H57.7871C49.7871 57.872 44.2191 56.144 41.0831 52.688C38.5871 50 36.8911 46.448 35.9951 42.032C35.6111 40.176 35.1951 38.48 34.7471 36.944C33.7231 33.488 31.6431 31.76 28.5071 31.76H24.2831V54.992H29.0831V56.912H5.08313V54.992H9.88313V5.072H5.08313V3.152H30.3311C46.6511 3.152 54.8111 7.92 54.8111 17.456C54.8111 21.232 53.4351 24.304 50.6831 26.672C47.9311 29.04 44.4111 30.224 40.1231 30.224V30.896C46.5231 30.896 50.9711 35.12 53.4671 43.568C54.7471 48.048 56.0271 51.248 57.3071 53.168C58.6511 55.024 60.2191 55.952 62.0111 55.952V57.872ZM105.289 29.936C105.289 21.744 104.169 15.376 101.929 10.832C99.7531 6.224 96.7131 3.92 92.8091 3.92C88.9691 3.92 85.9291 6.224 83.6891 10.832C81.4491 15.44 80.3291 21.872 80.3291 30.128C80.3291 38.384 81.3851 44.752 83.4971 49.232C85.6731 53.712 88.7771 55.952 92.8091 55.952C101.129 55.952 105.289 47.28 105.289 29.936ZM120.745 30.512C120.745 39.28 118.153 46.032 112.969 50.768C107.785 55.504 101.033 57.872 92.7131 57.872C84.3931 57.872 77.6731 55.536 72.5531 50.864C67.4331 46.128 64.8731 39.376 64.8731 30.608C64.8731 21.776 67.4331 14.8 72.5531 9.68C77.6731 4.56 84.4571 2 92.9051 2C101.417 2 108.169 4.56 113.161 9.68C118.217 14.736 120.745 21.68 120.745 30.512ZM173.072 24.56H171.152C171.152 19.44 169.52 14.704 166.256 10.352C162.992 6 158.32 3.824 152.24 3.824C148.848 3.824 146.032 5.808 143.792 9.776C141.616 13.744 140.528 20.528 140.528 30.128C140.528 39.728 141.616 46.512 143.792 50.48C146.032 54.448 149.488 56.432 154.16 56.432C158.896 56.432 162.864 54.96 166.064 52.016C169.328 49.072 171.344 44.912 172.112 39.536H174.032C173.136 45.872 170.896 50.608 167.312 53.744C163.792 56.816 159.568 58.352 154.64 58.352C145.104 58.352 137.776 56.08 132.656 51.536C127.6 46.928 125.072 39.76 125.072 30.032C125.072 20.24 127.536 13.104 132.464 8.624C137.456 4.144 144.048 1.904 152.24 1.904C156.656 1.904 160.944 3.088 165.104 5.456C166.448 6.288 167.536 6.704 168.368 6.704C169.264 6.704 169.968 6.32 170.48 5.552C170.992 4.72 171.248 3.92 171.248 3.152H173.072V24.56ZM236.871 54.992V56.912H211.911V54.992H216.231L203.463 31.664L199.431 36.752V54.992H204.231V56.912H180.231V54.992H185.031V5.072H180.231V3.152H204.231V5.072H199.431V33.392L221.703 5.072H212.871V3.152H232.455V5.072H224.295L212.967 19.472L232.743 54.992H236.871Z" fill="#393B41"/>
<path d="M24.2831 5.072V4.072H23.2831V5.072H24.2831ZM24.2831 29.84H23.2831V30.84H24.2831V29.84ZM37.1471 27.056L36.4982 26.2952V26.2952L37.1471 27.056ZM37.0511 8.144L36.3764 8.88203V8.88203L37.0511 8.144ZM62.0111 57.872V58.872H63.0111V57.872H62.0111ZM41.0831 52.688L41.8237 52.016L41.8159 52.0076L41.0831 52.688ZM35.9951 42.032L36.9752 41.8332L36.9744 41.8294L35.9951 42.032ZM34.7471 36.944L35.7071 36.664L35.7059 36.6599L34.7471 36.944ZM24.2831 31.76V30.76H23.2831V31.76H24.2831ZM24.2831 54.992H23.2831V55.992H24.2831V54.992ZM29.0831 54.992H30.0831V53.992H29.0831V54.992ZM29.0831 56.912V57.912H30.0831V56.912H29.0831ZM5.08313 56.912H4.08313V57.912H5.08313V56.912ZM5.08313 54.992V53.992H4.08313V54.992H5.08313ZM9.88313 54.992V55.992H10.8831V54.992H9.88313ZM9.88313 5.072H10.8831V4.072H9.88313V5.072ZM5.08313 5.072H4.08313V6.072H5.08313V5.072ZM5.08313 3.152V2.152H4.08313V3.152H5.08313ZM50.6831 26.672L50.0309 25.914V25.914L50.6831 26.672ZM40.1231 30.224V29.224H39.1231V30.224H40.1231ZM40.1231 30.896H39.1231V31.896H40.1231V30.896ZM53.4671 43.568L54.4287 43.2933L54.4261 43.2847L53.4671 43.568ZM57.3071 53.168L56.4751 53.7227L56.4858 53.7388L56.4972 53.7545L57.3071 53.168ZM62.0111 55.952H63.0111V54.952H62.0111V55.952ZM24.2831 5.072H23.2831V29.84H24.2831H25.2831V5.072H24.2831ZM24.2831 29.84V30.84C27.525 30.84 30.2734 30.6055 32.5106 30.1214C34.7374 29.6395 36.5328 28.8943 37.7961 27.8168L37.1471 27.056L36.4982 26.2952C35.5854 27.0737 34.1488 27.7205 32.0876 28.1666C30.0368 28.6105 27.4413 28.84 24.2831 28.84V29.84ZM37.1471 27.056L37.7961 27.8168C40.29 25.6896 41.4111 22.2348 41.4111 17.744H40.4111H39.4111C39.4111 21.9572 38.3562 24.7104 36.4982 26.2952L37.1471 27.056ZM40.4111 17.744H41.4111C41.4111 13.2355 40.2498 9.71357 37.7259 7.40597L37.0511 8.144L36.3764 8.88203C38.3324 10.6704 39.4111 13.5485 39.4111 17.744H40.4111ZM37.0511 8.144L37.7259 7.40597C35.1848 5.08266 30.5804 4.072 24.2831 4.072V5.072V6.072C30.5299 6.072 34.4375 7.10934 36.3764 8.88203L37.0511 8.144ZM62.0111 57.872V56.872H57.7871V57.872V58.872H62.0111V57.872ZM57.7871 57.872V56.872C49.8782 56.872 44.6716 55.1545 41.8237 52.016L41.0831 52.688L40.3426 53.36C43.7667 57.1335 49.696 58.872 57.7871 58.872V57.872ZM41.0831 52.688L41.8159 52.0076C39.4708 49.482 37.8429 46.1101 36.9752 41.8332L35.9951 42.032L35.0151 42.2309C35.9393 46.786 37.7034 50.518 40.3503 53.3685L41.0831 52.688ZM35.9951 42.032L36.9744 41.8294C36.5859 39.9519 36.1638 38.2297 35.7071 36.664L34.7471 36.944L33.7871 37.224C34.2265 38.7303 34.6363 40.4001 35.0159 42.2346L35.9951 42.032ZM34.7471 36.944L35.7059 36.6599C35.1561 34.8041 34.2935 33.3131 33.0581 32.2868C31.8106 31.2504 30.2693 30.76 28.5071 30.76V31.76V32.76C29.881 32.76 30.9477 33.1336 31.7801 33.8252C32.6248 34.5269 33.3142 35.6279 33.7883 37.2281L34.7471 36.944ZM28.5071 31.76V30.76H24.2831V31.76V32.76H28.5071V31.76ZM24.2831 31.76H23.2831V54.992H24.2831H25.2831V31.76H24.2831ZM24.2831 54.992V55.992H29.0831V54.992V53.992H24.2831V54.992ZM29.0831 54.992H28.0831V56.912H29.0831H30.0831V54.992H29.0831ZM29.0831 56.912V55.912H5.08313V56.912V57.912H29.0831V56.912ZM5.08313 56.912H6.08313V54.992H5.08313H4.08313V56.912H5.08313ZM5.08313 54.992V55.992H9.88313V54.992V53.992H5.08313V54.992ZM9.88313 54.992H10.8831V5.072H9.88313H8.88313V54.992H9.88313ZM9.88313 5.072V4.072H5.08313V5.072V6.072H9.88313V5.072ZM5.08313 5.072H6.08313V3.152H5.08313H4.08313V5.072H5.08313ZM5.08313 3.152V4.152H30.3311V3.152V2.152H5.08313V3.152ZM30.3311 3.152V4.152C38.4265 4.152 44.3341 5.34035 48.1866 7.59141C51.9564 9.79412 53.8111 13.0394 53.8111 17.456H54.8111H55.8111C55.8111 12.3366 53.5859 8.42989 49.1956 5.86459C44.8881 3.34766 38.5558 2.152 30.3311 2.152V3.152ZM54.8111 17.456H53.8111C53.8111 20.9541 52.5522 23.7445 50.0309 25.914L50.6831 26.672L51.3354 27.43C54.3181 24.8635 55.8111 21.5099 55.8111 17.456H54.8111ZM50.6831 26.672L50.0309 25.914C47.4921 28.0985 44.2174 29.224 40.1231 29.224V30.224V31.224C44.6049 31.224 48.3701 29.9815 51.3354 27.43L50.6831 26.672ZM40.1231 30.224H39.1231V30.896H40.1231H41.1231V30.224H40.1231ZM40.1231 30.896V31.896C43.0791 31.896 45.5411 32.8619 47.5705 34.7891C49.6234 36.7387 51.2895 39.7267 52.5081 43.8513L53.4671 43.568L54.4261 43.2847C53.1488 38.9613 51.3428 35.6133 48.9477 33.3389C46.5292 31.0421 43.5671 29.896 40.1231 29.896V30.896ZM53.4671 43.568L52.5056 43.8427C53.7912 48.3424 55.1049 51.6675 56.4751 53.7227L57.3071 53.168L58.1392 52.6133C56.9493 50.8285 55.703 47.7536 54.4287 43.2933L53.4671 43.568ZM57.3071 53.168L56.4972 53.7545C57.9712 55.79 59.8109 56.952 62.0111 56.952V55.952V54.952C60.6274 54.952 59.3311 54.258 58.1171 52.5815L57.3071 53.168ZM62.0111 55.952H61.0111V57.872H62.0111H63.0111V55.952H62.0111ZM101.929 10.832L101.025 11.259L101.028 11.2666L101.032 11.2742L101.929 10.832ZM83.6891 10.832L82.7898 10.3948L83.6891 10.832ZM83.4971 49.232L82.5925 49.6585L82.5976 49.6689L83.4971 49.232ZM112.969 50.768L112.295 50.0297V50.0297L112.969 50.768ZM72.5531 50.864L71.8741 51.5981L71.8791 51.6027L72.5531 50.864ZM72.5531 9.68L73.2602 10.3871V10.3871L72.5531 9.68ZM113.161 9.68L112.445 10.3782L112.454 10.3871L113.161 9.68ZM105.289 29.936H106.289C106.289 21.6746 105.163 15.1308 102.826 10.3898L101.929 10.832L101.032 11.2742C103.175 15.6212 104.289 21.8134 104.289 29.936H105.289ZM101.929 10.832L102.833 10.405C100.552 5.57442 97.2233 2.92 92.8091 2.92V3.92V4.92C96.203 4.92 98.954 6.87358 101.025 11.259L101.929 10.832ZM92.8091 3.92V2.92C88.456 2.92 85.1314 5.57781 82.7898 10.3948L83.6891 10.832L84.5885 11.2692C86.7269 6.87019 89.4823 4.92 92.8091 4.92V3.92ZM83.6891 10.832L82.7898 10.3948C80.4551 15.1975 79.3291 21.8028 79.3291 30.128H80.3291H81.3291C81.3291 21.9412 82.4431 15.6825 84.5885 11.2692L83.6891 10.832ZM80.3291 30.128H79.3291C79.3291 38.4455 80.3892 44.9846 82.5926 49.6584L83.4971 49.232L84.4016 48.8056C82.381 44.5194 81.3291 38.3225 81.3291 30.128H80.3291ZM83.4971 49.232L82.5976 49.6689C83.7368 52.0142 85.1515 53.8414 86.8719 55.0829C88.6037 56.3326 90.595 56.952 92.8091 56.952V55.952V54.952C90.9913 54.952 89.4145 54.4514 88.0423 53.4611C86.6587 52.4626 85.4335 50.9298 84.3966 48.7951L83.4971 49.232ZM92.8091 55.952V56.952C95.0728 56.952 97.0963 56.3587 98.8398 55.1472C100.575 53.9415 101.975 52.1638 103.071 49.8805C105.248 45.3408 106.289 38.6561 106.289 29.936H105.289H104.289C104.289 38.5599 103.25 44.8832 101.268 49.0155C100.283 51.0682 99.0834 52.5425 97.6985 53.5048C96.3219 54.4613 94.7054 54.952 92.8091 54.952V55.952ZM120.745 30.512H119.745C119.745 39.074 117.222 45.5284 112.295 50.0297L112.969 50.768L113.644 51.5063C119.084 46.5356 121.745 39.486 121.745 30.512H120.745ZM112.969 50.768L112.295 50.0297C107.328 54.567 100.832 56.872 92.7131 56.872V57.872V58.872C101.234 58.872 108.242 56.441 113.644 51.5063L112.969 50.768ZM92.7131 57.872V56.872C84.5898 56.872 78.1274 54.5967 73.2272 50.1253L72.5531 50.864L71.8791 51.6027C77.2189 56.4753 84.1965 58.872 92.7131 58.872V57.872ZM72.5531 50.864L73.2322 50.1299C68.3669 45.6295 65.8731 39.1738 65.8731 30.608H64.8731H63.8731C63.8731 39.5782 66.4993 46.6265 71.8741 51.5981L72.5531 50.864ZM64.8731 30.608H65.8731C65.8731 21.9792 68.3675 15.2798 73.2602 10.3871L72.5531 9.68L71.846 8.97289C66.4987 14.3202 63.8731 21.5728 63.8731 30.608H64.8731ZM72.5531 9.68L73.2602 10.3871C78.1614 5.4859 84.6746 3 92.9051 3V2V1C84.2397 1 77.1848 3.6341 71.846 8.97289L72.5531 9.68ZM92.9051 2V3C101.203 3 107.677 5.48743 112.445 10.3781L113.161 9.68L113.877 8.9819C108.662 3.63257 101.631 1 92.9051 1V2ZM113.161 9.68L112.454 10.3871C117.28 15.2135 119.745 21.8791 119.745 30.512H120.745H121.745C121.745 21.4809 119.154 14.2585 113.868 8.97289L113.161 9.68ZM173.072 24.56V25.56H174.072V24.56H173.072ZM171.152 24.56H170.152V25.56H171.152V24.56ZM166.256 10.352L167.056 9.752V9.752L166.256 10.352ZM143.792 9.776L142.921 9.28437L142.915 9.29517L143.792 9.776ZM143.792 50.48L142.915 50.9609L142.921 50.9716L143.792 50.48ZM166.064 52.016L165.394 51.2734L165.387 51.2801L166.064 52.016ZM172.112 39.536V38.536H171.245L171.122 39.3946L172.112 39.536ZM174.032 39.536L175.022 39.676L175.183 38.536H174.032V39.536ZM167.312 53.744L167.969 54.4974L167.97 54.4966L167.312 53.744ZM132.656 51.536L131.982 52.2752L131.992 52.2839L132.656 51.536ZM132.464 8.624L131.796 7.87974L131.791 7.88406L132.464 8.624ZM165.104 5.456L165.63 4.60574L165.615 4.59605L165.599 4.58694L165.104 5.456ZM170.48 5.552L171.312 6.1067L171.322 6.09158L171.332 6.0761L170.48 5.552ZM171.248 3.152V2.152H170.248V3.152H171.248ZM173.072 3.152H174.072V2.152H173.072V3.152ZM173.072 24.56V23.56H171.152V24.56V25.56H173.072V24.56ZM171.152 24.56H172.152C172.152 19.2096 170.441 14.2656 167.056 9.752L166.256 10.352L165.456 10.952C168.599 15.1424 170.152 19.6704 170.152 24.56H171.152ZM166.256 10.352L167.056 9.752C163.579 5.116 158.592 2.824 152.24 2.824V3.824V4.824C158.048 4.824 162.405 6.884 165.456 10.952L166.256 10.352ZM152.24 3.824V2.824C148.365 2.824 145.269 5.12524 142.921 9.2844L143.792 9.776L144.663 10.2676C146.795 6.49075 149.331 4.824 152.24 4.824V3.824ZM143.792 9.776L142.915 9.29517C140.608 13.5013 139.528 20.5087 139.528 30.128H140.528H141.528C141.528 20.5473 142.623 13.9867 144.669 10.2568L143.792 9.776ZM140.528 30.128H139.528C139.528 39.7473 140.608 46.7547 142.915 50.9608L143.792 50.48L144.669 49.9992C142.623 46.2693 141.528 39.7087 141.528 30.128H140.528ZM143.792 50.48L142.921 50.9716C145.344 55.2635 149.138 57.432 154.16 57.432V56.432V55.432C149.837 55.432 146.72 53.6325 144.663 49.9884L143.792 50.48ZM154.16 56.432V57.432C159.122 57.432 163.339 55.8815 166.741 52.7519L166.064 52.016L165.387 51.2801C162.389 54.0385 158.669 55.432 154.16 55.432V56.432ZM166.064 52.016L166.734 52.7586C170.209 49.6235 172.309 45.2288 173.102 39.6774L172.112 39.536L171.122 39.3946C170.379 44.5952 168.446 48.5205 165.394 51.2734L166.064 52.016ZM172.112 39.536V40.536H174.032V39.536V38.536H172.112V39.536ZM174.032 39.536L173.042 39.396C172.168 45.5769 170.003 50.0605 166.653 52.9914L167.312 53.744L167.97 54.4966C171.789 51.1555 174.104 46.1671 175.022 39.676L174.032 39.536ZM167.312 53.744L166.654 52.9906C163.327 55.8944 159.341 57.352 154.64 57.352V58.352V59.352C159.795 59.352 164.257 57.7376 167.969 54.4974L167.312 53.744ZM154.64 58.352V57.352C145.252 57.352 138.196 55.1156 133.32 50.7881L132.656 51.536L131.992 52.2839C137.356 57.0444 144.955 59.352 154.64 59.352V58.352ZM132.656 51.536L133.329 50.7969C128.557 46.4472 126.072 39.6003 126.072 30.032H125.072H124.072C124.072 39.9197 126.643 47.4088 131.982 52.2751L132.656 51.536ZM125.072 30.032H126.072C126.072 20.3878 128.499 13.5799 133.137 9.36394L132.464 8.624L131.791 7.88406C126.573 12.6281 124.072 20.0922 124.072 30.032H125.072ZM132.464 8.624L133.132 9.36824C137.902 5.08746 144.237 2.904 152.24 2.904V1.904V0.903999C143.858 0.903999 137.01 3.20054 131.796 7.87976L132.464 8.624ZM152.24 1.904V2.904C156.468 2.904 160.587 4.03546 164.609 6.32507L165.104 5.456L165.599 4.58694C161.301 2.14054 156.844 0.903999 152.24 0.903999V1.904ZM165.104 5.456L164.578 6.30627C165.96 7.16205 167.247 7.704 168.368 7.704V6.704V5.704C167.825 5.704 166.936 5.41395 165.63 4.60574L165.104 5.456ZM168.368 6.704V7.704C169.61 7.704 170.621 7.14282 171.312 6.1067L170.48 5.552L169.648 4.9973C169.315 5.49718 168.918 5.704 168.368 5.704V6.704ZM170.48 5.552L171.332 6.0761C171.914 5.12885 172.248 4.14919 172.248 3.152H171.248H170.248C170.248 3.69081 170.069 4.31115 169.628 5.0279L170.48 5.552ZM171.248 3.152V4.152H173.072V3.152V2.152H171.248V3.152ZM173.072 3.152H172.072V24.56H173.072H174.072V3.152H173.072ZM236.871 54.992H237.871V53.992H236.871V54.992ZM236.871 56.912V57.912H237.871V56.912H236.871ZM211.911 56.912H210.911V57.912H211.911V56.912ZM211.911 54.992V53.992H210.911V54.992H211.911ZM216.231 54.992V55.992H217.918L217.108 54.5119L216.231 54.992ZM203.463 31.664L204.34 31.1839L203.616 29.8608L202.679 31.0429L203.463 31.664ZM199.431 36.752L198.647 36.1309L198.431 36.4038V36.752H199.431ZM199.431 54.992H198.431V55.992H199.431V54.992ZM204.231 54.992H205.231V53.992H204.231V54.992ZM204.231 56.912V57.912H205.231V56.912H204.231ZM180.231 56.912H179.231V57.912H180.231V56.912ZM180.231 54.992V53.992H179.231V54.992H180.231ZM185.031 54.992V55.992H186.031V54.992H185.031ZM185.031 5.072H186.031V4.072H185.031V5.072ZM180.231 5.072H179.231V6.072H180.231V5.072ZM180.231 3.152V2.152H179.231V3.152H180.231ZM204.231 3.152H205.231V2.152H204.231V3.152ZM204.231 5.072V6.072H205.231V5.072H204.231ZM199.431 5.072V4.072H198.431V5.072H199.431ZM199.431 33.392H198.431V36.2812L200.217 34.0102L199.431 33.392ZM221.703 5.072L222.489 5.69017L223.761 4.072H221.703V5.072ZM212.871 5.072H211.871V6.072H212.871V5.072ZM212.871 3.152V2.152H211.871V3.152H212.871ZM232.455 3.152H233.455V2.152H232.455V3.152ZM232.455 5.072V6.072H233.455V5.072H232.455ZM224.295 5.072V4.072H223.809L223.509 4.45372L224.295 5.072ZM212.967 19.472L212.181 18.8537L211.769 19.3769L212.093 19.9584L212.967 19.472ZM232.743 54.992L231.869 55.4784L232.155 55.992H232.743V54.992ZM236.871 54.992H235.871V56.912H236.871H237.871V54.992H236.871ZM236.871 56.912V55.912H211.911V56.912V57.912H236.871V56.912ZM211.911 56.912H212.911V54.992H211.911H210.911V56.912H211.911ZM211.911 54.992V55.992H216.231V54.992V53.992H211.911V54.992ZM216.231 54.992L217.108 54.5119L204.34 31.1839L203.463 31.664L202.585 32.1441L215.353 55.4721L216.231 54.992ZM203.463 31.664L202.679 31.0429L198.647 36.1309L199.431 36.752L200.214 37.3731L204.246 32.2851L203.463 31.664ZM199.431 36.752H198.431V54.992H199.431H200.431V36.752H199.431ZM199.431 54.992V55.992H204.231V54.992V53.992H199.431V54.992ZM204.231 54.992H203.231V56.912H204.231H205.231V54.992H204.231ZM204.231 56.912V55.912H180.231V56.912V57.912H204.231V56.912ZM180.231 56.912H181.231V54.992H180.231H179.231V56.912H180.231ZM180.231 54.992V55.992H185.031V54.992V53.992H180.231V54.992ZM185.031 54.992H186.031V5.072H185.031H184.031V54.992H185.031ZM185.031 5.072V4.072H180.231V5.072V6.072H185.031V5.072ZM180.231 5.072H181.231V3.152H180.231H179.231V5.072H180.231ZM180.231 3.152V4.152H204.231V3.152V2.152H180.231V3.152ZM204.231 3.152H203.231V5.072H204.231H205.231V3.152H204.231ZM204.231 5.072V4.072H199.431V5.072V6.072H204.231V5.072ZM199.431 5.072H198.431V33.392H199.431H200.431V5.072H199.431ZM199.431 33.392L200.217 34.0102L222.489 5.69017L221.703 5.072L220.917 4.45383L198.645 32.7738L199.431 33.392ZM221.703 5.072V4.072H212.871V5.072V6.072H221.703V5.072ZM212.871 5.072H213.871V3.152H212.871H211.871V5.072H212.871ZM212.871 3.152V4.152H232.455V3.152V2.152H212.871V3.152ZM232.455 3.152H231.455V5.072H232.455H233.455V3.152H232.455ZM232.455 5.072V4.072H224.295V5.072V6.072H232.455V5.072ZM224.295 5.072L223.509 4.45372L212.181 18.8537L212.967 19.472L213.753 20.0903L225.081 5.69028L224.295 5.072ZM212.967 19.472L212.093 19.9584L231.869 55.4784L232.743 54.992L233.616 54.5056L213.84 18.9856L212.967 19.472ZM232.743 54.992V55.992H236.871V54.992V53.992H232.743V54.992Z" fill="#393B41"/>
<mask id="path-3-outside-1_6_5" maskUnits="userSpaceOnUse" x="254" y="-0.0879974" width="251" height="61" fill="black">
<rect fill="white" x="254" y="-0.0879974" width="251" height="61"/>
<path d="M258.743 56.912H256.823V34.544H258.743C258.743 40.56 260.887 45.68 265.174 49.904C269.527 54.128 274.807 56.24 281.015 56.24C283.575 56.24 285.623 55.504 287.159 54.032C288.759 52.496 289.559 50.48 289.559 47.984C289.559 45.168 287.735 42.768 284.087 40.784C282.103 39.76 278.679 38.16 273.815 35.984C268.951 33.744 265.527 31.856 263.543 30.32C259.575 27.248 257.815 23.184 258.263 18.128C258.775 13.072 260.695 9.168 264.023 6.416C267.351 3.6 271.095 2.192 275.255 2.192C279.479 2.192 283.255 2.768 286.583 3.92C289.975 5.008 291.895 5.552 292.343 5.552C293.623 5.552 294.263 4.432 294.263 2.192H296.183V19.76H294.263C294.263 15.152 292.567 11.408 289.175 8.528C285.783 5.584 281.431 4.112 276.119 4.112C273.751 4.112 271.895 4.816 270.551 6.224C269.207 7.568 268.535 9.072 268.535 10.736C268.535 12.4 268.759 13.68 269.207 14.576C269.655 15.472 270.423 16.304 271.511 17.072C272.663 17.776 273.655 18.352 274.487 18.8C275.319 19.248 276.631 19.856 278.423 20.624C280.279 21.392 281.559 21.936 282.263 22.256C285.783 23.856 287.863 24.816 288.503 25.136C289.143 25.392 290.071 25.84 291.287 26.48C292.503 27.12 293.399 27.696 293.975 28.208C294.615 28.72 295.415 29.36 296.375 30.128C297.335 30.896 298.039 31.696 298.487 32.528C298.935 33.296 299.383 34.192 299.831 35.216C300.727 37.264 301.047 39.664 300.791 42.416C300.279 47.6 298.327 51.568 294.935 54.32C291.607 57.008 287.095 58.352 281.399 58.352C276.279 58.352 271.191 57.04 266.135 54.416C264.407 53.52 263.127 53.072 262.295 53.072C259.927 53.072 258.743 54.352 258.743 56.912ZM346.93 29.936C346.93 21.744 345.81 15.376 343.57 10.832C341.394 6.224 338.354 3.92 334.45 3.92C330.61 3.92 327.57 6.224 325.33 10.832C323.09 15.44 321.97 21.872 321.97 30.128C321.97 38.384 323.026 44.752 325.138 49.232C327.314 53.712 330.418 55.952 334.45 55.952C342.77 55.952 346.93 47.28 346.93 29.936ZM362.386 30.512C362.386 39.28 359.794 46.032 354.61 50.768C349.426 55.504 342.674 57.872 334.354 57.872C326.034 57.872 319.314 55.536 314.194 50.864C309.074 46.128 306.514 39.376 306.514 30.608C306.514 21.776 309.074 14.8 314.194 9.68C319.314 4.56 326.098 2 334.546 2C343.058 2 349.81 4.56 354.802 9.68C359.858 14.736 362.386 21.68 362.386 30.512ZM411.353 38.672H413.273V56.912H368.153V54.992H372.953V5.072H368.153V3.152H393.113V5.072H387.353V54.992H396.953C399.129 54.992 400.921 54.832 402.329 54.512C403.801 54.192 405.305 53.52 406.841 52.496C409.849 50.512 411.353 45.904 411.353 38.672ZM442.028 56.912H418.028V54.992H422.828V5.072H418.028V3.152H442.028V5.072H437.228V54.992H442.028V56.912ZM473.715 56.912H449.715V54.992H454.515V5.072H449.715V3.152H473.715C478.451 3.152 482.707 3.952 486.483 5.552C490.323 7.088 493.427 9.136 495.795 11.696C500.595 17.008 502.995 23.024 502.995 29.744C502.995 38.832 500.595 45.648 495.795 50.192C490.995 54.672 483.635 56.912 473.715 56.912ZM468.915 54.992C475.827 54.992 480.819 53.136 483.891 49.424C486.963 45.648 488.499 39.536 488.499 31.088C488.499 22.576 486.835 16.112 483.507 11.696C480.179 7.28 475.315 5.072 468.915 5.072V54.992Z"/>
</mask>
<path d="M258.743 56.912H256.823V34.544H258.743C258.743 40.56 260.887 45.68 265.174 49.904C269.527 54.128 274.807 56.24 281.015 56.24C283.575 56.24 285.623 55.504 287.159 54.032C288.759 52.496 289.559 50.48 289.559 47.984C289.559 45.168 287.735 42.768 284.087 40.784C282.103 39.76 278.679 38.16 273.815 35.984C268.951 33.744 265.527 31.856 263.543 30.32C259.575 27.248 257.815 23.184 258.263 18.128C258.775 13.072 260.695 9.168 264.023 6.416C267.351 3.6 271.095 2.192 275.255 2.192C279.479 2.192 283.255 2.768 286.583 3.92C289.975 5.008 291.895 5.552 292.343 5.552C293.623 5.552 294.263 4.432 294.263 2.192H296.183V19.76H294.263C294.263 15.152 292.567 11.408 289.175 8.528C285.783 5.584 281.431 4.112 276.119 4.112C273.751 4.112 271.895 4.816 270.551 6.224C269.207 7.568 268.535 9.072 268.535 10.736C268.535 12.4 268.759 13.68 269.207 14.576C269.655 15.472 270.423 16.304 271.511 17.072C272.663 17.776 273.655 18.352 274.487 18.8C275.319 19.248 276.631 19.856 278.423 20.624C280.279 21.392 281.559 21.936 282.263 22.256C285.783 23.856 287.863 24.816 288.503 25.136C289.143 25.392 290.071 25.84 291.287 26.48C292.503 27.12 293.399 27.696 293.975 28.208C294.615 28.72 295.415 29.36 296.375 30.128C297.335 30.896 298.039 31.696 298.487 32.528C298.935 33.296 299.383 34.192 299.831 35.216C300.727 37.264 301.047 39.664 300.791 42.416C300.279 47.6 298.327 51.568 294.935 54.32C291.607 57.008 287.095 58.352 281.399 58.352C276.279 58.352 271.191 57.04 266.135 54.416C264.407 53.52 263.127 53.072 262.295 53.072C259.927 53.072 258.743 54.352 258.743 56.912ZM346.93 29.936C346.93 21.744 345.81 15.376 343.57 10.832C341.394 6.224 338.354 3.92 334.45 3.92C330.61 3.92 327.57 6.224 325.33 10.832C323.09 15.44 321.97 21.872 321.97 30.128C321.97 38.384 323.026 44.752 325.138 49.232C327.314 53.712 330.418 55.952 334.45 55.952C342.77 55.952 346.93 47.28 346.93 29.936ZM362.386 30.512C362.386 39.28 359.794 46.032 354.61 50.768C349.426 55.504 342.674 57.872 334.354 57.872C326.034 57.872 319.314 55.536 314.194 50.864C309.074 46.128 306.514 39.376 306.514 30.608C306.514 21.776 309.074 14.8 314.194 9.68C319.314 4.56 326.098 2 334.546 2C343.058 2 349.81 4.56 354.802 9.68C359.858 14.736 362.386 21.68 362.386 30.512ZM411.353 38.672H413.273V56.912H368.153V54.992H372.953V5.072H368.153V3.152H393.113V5.072H387.353V54.992H396.953C399.129 54.992 400.921 54.832 402.329 54.512C403.801 54.192 405.305 53.52 406.841 52.496C409.849 50.512 411.353 45.904 411.353 38.672ZM442.028 56.912H418.028V54.992H422.828V5.072H418.028V3.152H442.028V5.072H437.228V54.992H442.028V56.912ZM473.715 56.912H449.715V54.992H454.515V5.072H449.715V3.152H473.715C478.451 3.152 482.707 3.952 486.483 5.552C490.323 7.088 493.427 9.136 495.795 11.696C500.595 17.008 502.995 23.024 502.995 29.744C502.995 38.832 500.595 45.648 495.795 50.192C490.995 54.672 483.635 56.912 473.715 56.912ZM468.915 54.992C475.827 54.992 480.819 53.136 483.891 49.424C486.963 45.648 488.499 39.536 488.499 31.088C488.499 22.576 486.835 16.112 483.507 11.696C480.179 7.28 475.315 5.072 468.915 5.072V54.992Z" fill="#393B41"/>
<path d="M258.743 56.912V58.912H260.743V56.912H258.743ZM256.823 56.912H254.823V58.912H256.823V56.912ZM256.823 34.544V32.544H254.823V34.544H256.823ZM258.743 34.544H260.743V32.544H258.743V34.544ZM265.174 49.904L263.771 51.3288L263.776 51.334L263.782 51.3392L265.174 49.904ZM287.159 54.032L288.542 55.476L288.544 55.4748L287.159 54.032ZM284.087 40.784L285.042 39.027L285.023 39.0167L285.004 39.0068L284.087 40.784ZM273.815 35.984L272.978 37.8006L272.988 37.8052L272.998 37.8096L273.815 35.984ZM263.543 30.32L262.318 31.9014H262.318L263.543 30.32ZM258.263 18.128L256.273 17.9265L256.271 17.939L256.27 17.9515L258.263 18.128ZM264.023 6.416L265.297 7.95729L265.306 7.95008L265.314 7.94277L264.023 6.416ZM286.583 3.92L285.928 5.80997L285.95 5.81745L285.972 5.82443L286.583 3.92ZM294.263 2.192V0.191998H292.263V2.192H294.263ZM296.183 2.192H298.183V0.191998H296.183V2.192ZM296.183 19.76V21.76H298.183V19.76H296.183ZM294.263 19.76H292.263V21.76H294.263V19.76ZM289.174 8.528L287.864 10.0384L287.872 10.0456L287.88 10.0526L289.174 8.528ZM270.551 6.224L271.965 7.63822L271.981 7.62177L271.997 7.60495L270.551 6.224ZM271.511 17.072L270.357 18.7059L270.411 18.7441L270.468 18.7786L271.511 17.072ZM274.487 18.8L275.435 17.0391H275.435L274.487 18.8ZM278.423 20.624L277.635 22.4623L277.646 22.4672L277.658 22.472L278.423 20.624ZM282.263 22.256L283.09 20.4353V20.4353L282.263 22.256ZM288.503 25.136L287.608 26.9249L287.682 26.9621L287.76 26.993L288.503 25.136ZM291.287 26.48L290.355 28.2498V28.2498L291.287 26.48ZM293.975 28.208L292.646 29.7028L292.685 29.7373L292.725 29.7697L293.975 28.208ZM296.375 30.128L297.624 28.5663V28.5663L296.375 30.128ZM298.487 32.528L296.726 33.4762L296.742 33.5063L296.759 33.5357L298.487 32.528ZM299.831 35.216L297.998 36.0176L297.998 36.0176L299.831 35.216ZM300.791 42.416L302.781 42.6126L302.782 42.6012L300.791 42.416ZM294.935 54.32L296.191 55.8759L296.195 55.8731L294.935 54.32ZM266.135 54.416L267.056 52.6408L267.055 52.6405L266.135 54.416ZM258.743 56.912V54.912H256.823V56.912V58.912H258.743V56.912ZM256.823 56.912H258.823V34.544H256.823H254.823V56.912H256.823ZM256.823 34.544V36.544H258.743V34.544V32.544H256.823V34.544ZM258.743 34.544H256.743C256.743 41.096 259.102 46.7291 263.771 51.3288L265.174 49.904L266.578 48.4792C262.671 44.6309 260.743 40.024 260.743 34.544H258.743ZM265.174 49.904L263.782 51.3392C268.516 55.9348 274.3 58.24 281.014 58.24V56.24V54.24C275.313 54.24 270.537 52.3212 266.567 48.4688L265.174 49.904ZM281.014 56.24V58.24C283.979 58.24 286.561 57.3751 288.542 55.476L287.159 54.032L285.775 52.588C284.684 53.6329 283.17 54.24 281.014 54.24V56.24ZM287.159 54.032L288.544 55.4748C290.587 53.5127 291.559 50.9496 291.559 47.984H289.559H287.559C287.559 50.0104 286.93 51.4793 285.773 52.5892L287.159 54.032ZM289.559 47.984H291.559C291.559 44.1174 288.996 41.1772 285.042 39.027L284.087 40.784L283.131 42.541C286.473 44.3588 287.559 46.2186 287.559 47.984H289.559ZM284.087 40.784L285.004 39.0068C282.965 37.9546 279.496 36.3346 274.631 34.1584L273.815 35.984L272.998 37.8096C277.861 39.9854 281.24 41.5654 283.169 42.5612L284.087 40.784ZM273.815 35.984L274.651 34.1674C269.806 31.9361 266.559 30.1262 264.767 28.7386L263.543 30.32L262.318 31.9014C264.494 33.5858 268.095 35.5519 272.978 37.8006L273.815 35.984ZM263.543 30.32L264.767 28.7386C261.345 26.0893 259.866 22.6915 260.255 18.3045L258.263 18.128L256.27 17.9515C255.763 23.6765 257.804 28.4067 262.318 31.9014L263.543 30.32ZM258.263 18.128L260.252 18.3295C260.721 13.6974 262.445 10.3154 265.297 7.95729L264.023 6.416L262.748 4.87471C258.944 8.02059 256.828 12.4466 256.273 17.9265L258.263 18.128ZM264.023 6.416L265.314 7.94277C268.3 5.41641 271.592 4.192 275.255 4.192V2.192V0.191998C270.597 0.191998 266.401 1.78359 262.731 4.88923L264.023 6.416ZM275.255 2.192V4.192C279.299 4.192 282.848 4.74369 285.928 5.80997L286.583 3.92L287.237 2.03003C283.661 0.792309 279.658 0.191998 275.255 0.191998V2.192ZM286.583 3.92L285.972 5.82443C287.675 6.37092 289.029 6.787 290.021 7.06825C290.516 7.2084 290.94 7.32051 291.283 7.39922C291.558 7.46236 291.972 7.552 292.342 7.552V5.552V3.552C292.489 3.552 292.495 3.57364 292.178 3.50077C291.929 3.44349 291.577 3.3516 291.112 3.21975C290.184 2.957 288.882 2.55708 287.193 2.01557L286.583 3.92ZM292.342 5.552V7.552C293.707 7.552 294.846 6.88139 295.519 5.70428C296.096 4.69425 296.263 3.43692 296.263 2.192H294.263H292.263C292.263 2.66261 292.228 3.02221 292.178 3.28777C292.127 3.55701 292.067 3.68275 292.046 3.71972C292.032 3.74444 292.066 3.67801 292.175 3.61444C292.285 3.55043 292.363 3.552 292.342 3.552V5.552ZM294.263 2.192V4.192H296.183V2.192V0.191998H294.263V2.192ZM296.183 2.192H294.183V19.76H296.183H298.183V2.192H296.183ZM296.183 19.76V17.76H294.263V19.76V21.76H296.183V19.76ZM294.263 19.76H296.263C296.263 14.5888 294.326 10.2787 290.469 7.00341L289.174 8.528L287.88 10.0526C290.807 12.5373 292.263 15.7152 292.263 19.76H294.263ZM289.174 8.528L290.485 7.01756C286.665 3.70198 281.82 2.112 276.118 2.112V4.112V6.112C281.041 6.112 284.9 7.46602 287.864 10.0384L289.174 8.528ZM276.118 4.112V2.112C273.331 2.112 270.905 2.95633 269.104 4.84305L270.551 6.224L271.997 7.60495C272.884 6.67567 274.17 6.112 276.118 6.112V4.112ZM270.551 6.224L269.136 4.80979C267.475 6.47088 266.535 8.46484 266.535 10.736H268.535H270.535C270.535 9.67916 270.938 8.66512 271.965 7.63822L270.551 6.224ZM268.535 10.736H266.535C266.535 12.5302 266.768 14.171 267.418 15.4704L269.207 14.576L270.995 13.6816C270.749 13.189 270.535 12.2698 270.535 10.736H268.535ZM269.207 14.576L267.418 15.4704C268.054 16.7428 269.085 17.8079 270.357 18.7059L271.511 17.072L272.664 15.4381C271.76 14.8001 271.255 14.2012 270.995 13.6816L269.207 14.576ZM271.511 17.072L270.468 18.7786C271.639 19.4943 272.664 20.0901 273.538 20.5609L274.487 18.8L275.435 17.0391C274.645 16.6139 273.686 16.0578 272.553 15.3654L271.511 17.072ZM274.487 18.8L273.538 20.5609C274.453 21.0533 275.833 21.69 277.635 22.4623L278.423 20.624L279.21 18.7857C277.428 18.022 276.184 17.4427 275.435 17.0391L274.487 18.8ZM278.423 20.624L277.658 22.472C279.516 23.2408 280.766 23.7727 281.435 24.0767L282.263 22.256L283.09 20.4353C282.351 20.0993 281.041 19.5432 279.187 18.776L278.423 20.624ZM282.263 22.256L281.435 24.0767C284.974 25.6854 287.01 26.6259 287.608 26.9249L288.503 25.136L289.397 23.3471C288.715 23.0061 286.591 22.0266 283.09 20.4353L282.263 22.256ZM288.503 25.136L287.76 26.993C288.3 27.2089 289.153 27.6171 290.355 28.2498L291.287 26.48L292.218 24.7102C290.988 24.0629 289.985 23.5751 289.245 23.279L288.503 25.136ZM291.287 26.48L290.355 28.2498C291.521 28.8634 292.25 29.3507 292.646 29.7028L293.975 28.208L295.303 26.7132C294.547 26.0413 293.484 25.3766 292.218 24.7102L291.287 26.48ZM293.975 28.208L292.725 29.7697C293.365 30.2817 294.165 30.9217 295.125 31.6897L296.375 30.128L297.624 28.5663C296.664 27.7983 295.864 27.1583 295.224 26.6463L293.975 28.208ZM296.375 30.128L295.125 31.6897C295.935 32.338 296.437 32.9407 296.726 33.4762L298.487 32.528L300.247 31.5798C299.64 30.4513 298.734 29.454 297.624 28.5663L296.375 30.128ZM298.487 32.528L296.759 33.5357C297.16 34.2228 297.574 35.0472 297.998 36.0176L299.831 35.216L301.663 34.4144C301.191 33.3368 300.709 32.3692 300.214 31.5203L298.487 32.528ZM299.831 35.216L297.998 36.0176C298.73 37.6903 299.031 39.7371 298.799 42.2308L300.791 42.416L302.782 42.6012C303.062 39.5909 302.723 36.8377 301.663 34.4144L299.831 35.216ZM300.791 42.416L298.8 42.2194C298.33 46.9818 296.573 50.4152 293.674 52.7669L294.935 54.32L296.195 55.8731C300.08 52.7208 302.227 48.2182 302.781 42.6126L300.791 42.416ZM294.935 54.32L293.678 52.7641C290.808 55.0819 286.789 56.352 281.399 56.352V58.352V60.352C287.4 60.352 292.405 58.9341 296.191 55.8759L294.935 54.32ZM281.399 58.352V56.352C276.634 56.352 271.86 55.134 267.056 52.6408L266.135 54.416L265.213 56.1912C270.521 58.946 275.923 60.352 281.399 60.352V58.352ZM266.135 54.416L267.055 52.6405C265.327 51.7446 263.661 51.072 262.295 51.072V53.072V55.072C262.592 55.072 263.486 55.2954 265.214 56.1915L266.135 54.416ZM262.295 53.072V51.072C260.76 51.072 259.254 51.4939 258.162 52.6739C257.098 53.8245 256.743 55.3607 256.743 56.912H258.743H260.743C260.743 55.9033 260.979 55.5195 261.099 55.3901C261.191 55.2901 261.461 55.072 262.295 55.072V53.072ZM343.57 10.832L341.761 11.686L341.768 11.7012L341.776 11.7163L343.57 10.832ZM325.33 10.832L323.531 9.95761L325.33 10.832ZM325.138 49.232L323.329 50.0848L323.334 50.0954L323.339 50.1058L325.138 49.232ZM354.61 50.768L353.261 49.2914V49.2914L354.61 50.768ZM314.194 50.864L312.836 52.3322L312.846 52.3414L314.194 50.864ZM314.194 9.68L315.608 11.0942V11.0942L314.194 9.68ZM354.802 9.68L353.37 11.0762L353.379 11.0853L353.388 11.0942L354.802 9.68ZM346.93 29.936H348.93C348.93 21.6053 347.798 14.8857 345.364 9.94769L343.57 10.832L341.776 11.7163C343.822 15.8664 344.93 21.8827 344.93 29.936H346.93ZM343.57 10.832L345.378 9.97799C342.992 4.92483 339.374 1.92 334.45 1.92V3.92V5.92C337.333 5.92 339.795 7.52317 341.761 11.686L343.57 10.832ZM334.45 3.92V1.92C329.583 1.92 325.974 4.93162 323.531 9.95761L325.33 10.832L327.128 11.7064C329.165 7.51638 331.636 5.92 334.45 5.92V3.92ZM325.33 10.832L323.531 9.95761C321.102 14.955 319.97 21.7335 319.97 30.128H321.97H323.97C323.97 22.0105 325.078 15.925 327.128 11.7064L325.33 10.832ZM321.97 30.128H319.97C319.97 38.507 321.034 45.2172 323.329 50.0848L325.138 49.232L326.947 48.3792C325.018 44.2868 323.97 38.261 323.97 30.128H321.97ZM325.138 49.232L323.339 50.1058C324.529 52.5565 326.039 54.5307 327.927 55.8938C329.839 57.2733 332.037 57.952 334.45 57.952V55.952V53.952C332.83 53.952 331.461 53.5107 330.268 52.6502C329.053 51.7733 327.922 50.3876 326.937 48.3582L325.138 49.232ZM334.45 55.952V57.952C336.897 57.952 339.124 57.3074 341.051 55.9684C342.961 54.6411 344.462 52.7116 345.613 50.313C347.888 45.5696 348.93 38.7041 348.93 29.936H346.93H344.93C344.93 38.5119 343.891 44.6544 342.007 48.583C341.077 50.5204 339.978 51.8429 338.768 52.6836C337.575 53.5126 336.162 53.952 334.45 53.952V55.952ZM362.386 30.512H360.386C360.386 38.868 357.931 45.0248 353.261 49.2914L354.61 50.768L355.959 52.2446C361.656 47.0392 364.386 39.692 364.386 30.512H362.386ZM354.61 50.768L353.261 49.2914C348.512 53.6301 342.272 55.872 334.354 55.872V57.872V59.872C343.075 59.872 350.34 57.3779 355.959 52.2446L354.61 50.768ZM334.354 57.872V55.872C326.427 55.872 320.222 53.6575 315.542 49.3866L314.194 50.864L312.846 52.3414C318.405 57.4145 325.64 59.872 334.354 59.872V57.872ZM314.194 50.864L315.552 49.3958C310.941 45.1311 308.514 38.9716 308.514 30.608H306.514H304.514C304.514 39.7804 307.206 47.1249 312.836 52.3322L314.194 50.864ZM306.514 30.608H308.514C308.514 22.1823 310.943 15.7597 315.608 11.0942L314.194 9.68L312.78 8.26579C307.205 13.8403 304.514 21.3697 304.514 30.608H306.514ZM314.194 9.68L315.608 11.0942C320.29 6.4118 326.533 4 334.546 4V2V0C325.663 0 318.337 2.70819 312.78 8.26579L314.194 9.68ZM334.546 2V4C342.629 4 348.825 6.41486 353.37 11.0762L354.802 9.68L356.234 8.2838C350.795 2.70514 343.486 0 334.546 0V2ZM354.802 9.68L353.388 11.0942C357.984 15.6909 360.386 22.0781 360.386 30.512H362.386H364.386C364.386 21.2819 361.731 13.7811 356.216 8.26579L354.802 9.68ZM411.353 38.672V36.672H409.353V38.672H411.353ZM413.273 38.672H415.273V36.672H413.273V38.672ZM413.273 56.912V58.912H415.273V56.912H413.273ZM368.152 56.912H366.153V58.912H368.152V56.912ZM368.152 54.992V52.992H366.153V54.992H368.152ZM372.952 54.992V56.992H374.952V54.992H372.952ZM372.952 5.072H374.952V3.072H372.952V5.072ZM368.152 5.072H366.153V7.072H368.152V5.072ZM368.152 3.152V1.152H366.153V3.152H368.152ZM393.113 3.152H395.113V1.152H393.113V3.152ZM393.113 5.072V7.072H395.113V5.072H393.113ZM387.353 5.072V3.072H385.353V5.072H387.353ZM387.353 54.992H385.353V56.992H387.353V54.992ZM402.329 54.512L401.904 52.5576L401.894 52.5597L401.885 52.5617L402.329 54.512ZM406.84 52.496L405.739 50.8264L405.731 50.8319L406.84 52.496ZM411.353 38.672V40.672H413.273V38.672V36.672H411.353V38.672ZM413.273 38.672H411.273V56.912H413.273H415.273V38.672H413.273ZM413.273 56.912V54.912H368.152V56.912V58.912H413.273V56.912ZM368.152 56.912H370.152V54.992H368.152H366.153V56.912H368.152ZM368.152 54.992V56.992H372.952V54.992V52.992H368.152V54.992ZM372.952 54.992H374.952V5.072H372.952H370.952V54.992H372.952ZM372.952 5.072V3.072H368.152V5.072V7.072H372.952V5.072ZM368.152 5.072H370.152V3.152H368.152H366.153V5.072H368.152ZM368.152 3.152V5.152H393.113V3.152V1.152H368.152V3.152ZM393.113 3.152H391.113V5.072H393.113H395.113V3.152H393.113ZM393.113 5.072V3.072H387.353V5.072V7.072H393.113V5.072ZM387.353 5.072H385.353V54.992H387.353H389.353V5.072H387.353ZM387.353 54.992V56.992H396.952V54.992V52.992H387.353V54.992ZM396.952 54.992V56.992C399.211 56.992 401.165 56.8274 402.772 56.4623L402.329 54.512L401.885 52.5617C400.676 52.8366 399.046 52.992 396.952 52.992V54.992ZM402.329 54.512L402.753 56.4664C404.518 56.0828 406.251 55.2925 407.95 54.1601L406.84 52.496L405.731 50.8319C404.358 51.7475 403.083 52.3013 401.904 52.5576L402.329 54.512ZM406.84 52.496L407.942 54.1655C409.936 52.8504 411.282 50.7586 412.126 48.1726C412.967 45.5956 413.353 42.4056 413.353 38.672H411.353H409.353C409.353 42.1704 408.986 44.9004 408.323 46.9314C407.663 48.9534 406.753 50.1576 405.739 50.8265L406.84 52.496ZM442.027 56.912V58.912H444.027V56.912H442.027ZM418.027 56.912H416.027V58.912H418.027V56.912ZM418.027 54.992V52.992H416.027V54.992H418.027ZM422.827 54.992V56.992H424.827V54.992H422.827ZM422.827 5.072H424.827V3.072H422.827V5.072ZM418.027 5.072H416.027V7.072H418.027V5.072ZM418.027 3.152V1.152H416.027V3.152H418.027ZM442.027 3.152H444.027V1.152H442.027V3.152ZM442.027 5.072V7.072H444.027V5.072H442.027ZM437.228 5.072V3.072H435.228V5.072H437.228ZM437.228 54.992H435.228V56.992H437.228V54.992ZM442.027 54.992H444.027V52.992H442.027V54.992ZM442.027 56.912V54.912H418.027V56.912V58.912H442.027V56.912ZM418.027 56.912H420.027V54.992H418.027H416.027V56.912H418.027ZM418.027 54.992V56.992H422.827V54.992V52.992H418.027V54.992ZM422.827 54.992H424.827V5.072H422.827H420.827V54.992H422.827ZM422.827 5.072V3.072H418.027V5.072V7.072H422.827V5.072ZM418.027 5.072H420.027V3.152H418.027H416.027V5.072H418.027ZM418.027 3.152V5.152H442.027V3.152V1.152H418.027V3.152ZM442.027 3.152H440.027V5.072H442.027H444.027V3.152H442.027ZM442.027 5.072V3.072H437.228V5.072V7.072H442.027V5.072ZM437.228 5.072H435.228V54.992H437.228H439.228V5.072H437.228ZM437.228 54.992V56.992H442.027V54.992V52.992H437.228V54.992ZM442.027 54.992H440.027V56.912H442.027H444.027V54.992H442.027ZM449.715 56.912H447.715V58.912H449.715V56.912ZM449.715 54.992V52.992H447.715V54.992H449.715ZM454.515 54.992V56.992H456.515V54.992H454.515ZM454.515 5.072H456.515V3.072H454.515V5.072ZM449.715 5.072H447.715V7.072H449.715V5.072ZM449.715 3.152V1.152H447.715V3.152H449.715ZM486.483 5.552L485.703 7.39351L485.721 7.40142L485.74 7.40895L486.483 5.552ZM495.795 11.696L497.279 10.3551L497.271 10.3465L497.263 10.3379L495.795 11.696ZM495.795 50.192L497.16 51.6541L497.165 51.6493L497.17 51.6444L495.795 50.192ZM468.915 54.992H466.915V56.992H468.915V54.992ZM483.891 49.424L485.432 50.6991L485.437 50.6927L485.442 50.6862L483.891 49.424ZM468.915 5.072V3.072H466.915V5.072H468.915ZM473.715 56.912V54.912H449.715V56.912V58.912H473.715V56.912ZM449.715 56.912H451.715V54.992H449.715H447.715V56.912H449.715ZM449.715 54.992V56.992H454.515V54.992V52.992H449.715V54.992ZM454.515 54.992H456.515V5.072H454.515H452.515V54.992H454.515ZM454.515 5.072V3.072H449.715V5.072V7.072H454.515V5.072ZM449.715 5.072H451.715V3.152H449.715H447.715V5.072H449.715ZM449.715 3.152V5.152H473.715V3.152V1.152H449.715V3.152ZM473.715 3.152V5.152C478.224 5.152 482.209 5.91304 485.703 7.39351L486.483 5.552L487.263 3.71049C483.205 1.99096 478.678 1.152 473.715 1.152V3.152ZM486.483 5.552L485.74 7.40895C489.355 8.85492 492.195 10.7491 494.327 13.0541L495.795 11.696L497.263 10.3379C494.659 7.52293 491.291 5.32108 487.226 3.69505L486.483 5.552ZM495.795 11.696L494.311 13.0369C498.803 18.0075 500.995 23.5537 500.995 29.744H502.995H504.995C504.995 22.4943 502.387 16.0085 497.279 10.3551L495.795 11.696ZM502.995 29.744H500.995C500.995 38.4949 498.689 44.6979 494.42 48.7396L495.795 50.192L497.17 51.6444C502.501 46.5981 504.995 39.1691 504.995 29.744H502.995ZM495.795 50.192L494.43 48.7299C490.151 52.7238 483.381 54.912 473.715 54.912V56.912V58.912C483.889 58.912 491.839 56.6202 497.16 51.6541L495.795 50.192ZM468.915 54.992V56.992C476.154 56.992 481.837 55.0433 485.432 50.6991L483.891 49.424L482.35 48.1489C479.801 51.2287 475.5 52.992 468.915 52.992V54.992ZM483.891 49.424L485.442 50.6862C488.952 46.3727 490.499 39.6905 490.499 31.088H488.499H486.499C486.499 39.3815 484.974 44.9233 482.34 48.1618L483.891 49.424ZM488.499 31.088H490.499C490.499 22.3622 488.801 15.3975 485.104 10.4923L483.507 11.696L481.91 12.8997C484.869 16.8265 486.499 22.7898 486.499 31.088H488.499ZM483.507 11.696L485.104 10.4923C481.336 5.49152 475.831 3.072 468.915 3.072V5.072V7.072C474.799 7.072 479.022 9.06848 481.91 12.8997L483.507 11.696ZM468.915 5.072H466.915V54.992H468.915H470.915V5.072H468.915Z" fill="#393B41" mask="url(#path-3-outside-1_6_5)"/>
<mask id="path-5-outside-2_6_5" maskUnits="userSpaceOnUse" x="4" y="67.912" width="498" height="72" fill="black">
<rect fill="white" x="4" y="67.912" width="498" height="72"/>
<path d="M57.8056 114.682H60.1456V136.912H5.15559V134.572H11.0056V73.732H5.15559V71.392H35.5756V73.732H28.5556V134.572H40.2556C42.9076 134.572 45.0916 134.377 46.8076 133.987C48.6016 133.597 50.4346 132.778 52.3066 131.53C55.9726 129.112 57.8056 123.496 57.8056 114.682ZM101.041 134.572C112.741 134.572 118.591 127.942 118.591 114.682H120.931V136.912H65.9407V134.572H71.7907V73.732H65.9407V71.392H119.761V91.282H117.421C117.421 84.34 116.017 79.699 113.209 77.359C110.479 74.941 106.033 73.732 99.8707 73.732H89.3407V101.812H94.0207C99.6367 101.812 103.186 101.11 104.668 99.706C106.15 98.302 106.891 95.494 106.891 91.282H109.231V114.682H106.891C106.891 110.314 106.15 107.467 104.668 106.141C103.186 104.815 99.6367 104.152 94.0207 104.152H89.3407V134.572H101.041ZM197.089 71.392V73.732H189.133L164.212 136.912H161.17L131.803 73.732H126.187V71.392H159.298V73.732H153.565L170.647 112.927L186.091 73.732H176.731V71.392H197.089ZM238.036 134.572C249.736 134.572 255.586 127.942 255.586 114.682H257.926V136.912H202.936V134.572H208.786V73.732H202.936V71.392H256.756V91.282H254.416C254.416 84.34 253.012 79.699 250.204 77.359C247.474 74.941 243.028 73.732 236.866 73.732H226.336V101.812H231.016C236.632 101.812 240.181 101.11 241.663 99.706C243.145 98.302 243.886 95.494 243.886 91.282H246.226V114.682H243.886C243.886 110.314 243.145 107.467 241.663 106.141C240.181 104.815 236.632 104.152 231.016 104.152H226.336V134.572H238.036ZM319.342 114.682H321.682V136.912H266.692V134.572H272.542V73.732H266.692V71.392H297.112V73.732H290.092V134.572H301.792C304.444 134.572 306.628 134.377 308.344 133.987C310.138 133.597 311.971 132.778 313.843 131.53C317.509 129.112 319.342 123.496 319.342 114.682ZM356.727 136.912H327.477V134.572H333.327V73.732H327.477V71.392H356.727V73.732H350.877V134.572H356.727V136.912ZM373.116 134.572H382.476V136.912H363.756V134.572H370.776V78.88C368.28 75.448 365.94 73.732 363.756 73.732V71.392H385.635L418.512 110.353V73.732H409.152V71.392H429.042V73.732H420.852V138.082H418.512L373.116 81.805V134.572ZM492.416 136.912C492.416 135.118 491.909 133.636 490.895 132.466C489.881 131.218 488.555 130.594 486.917 130.594C485.357 130.594 483.719 131.257 482.003 132.583C480.365 133.909 478.415 135.274 476.153 136.678C473.969 138.004 471.317 138.667 468.197 138.667C457.589 138.667 449.36 135.937 443.51 130.477C437.738 125.017 434.852 116.632 434.852 105.322C434.852 81.688 445.889 69.871 467.963 69.871C471.941 69.871 475.997 70.846 480.131 72.796C484.343 74.746 486.917 75.721 487.853 75.721C488.789 75.721 489.569 75.253 490.193 74.317C490.817 73.303 491.129 72.328 491.129 71.392H493.352V95.143H491.012C491.012 89.215 488.672 83.911 483.992 79.231C479.39 74.551 474.047 72.211 467.963 72.211C463.283 72.211 459.734 74.746 457.316 79.816C454.898 84.808 453.689 93.115 453.689 104.737C453.689 116.281 454.898 124.432 457.316 129.19C459.812 133.948 463.439 136.327 468.197 136.327C475.685 136.327 479.429 129.658 479.429 116.32V107.662H472.058V105.322H500.138V107.662H494.639V136.912H492.416Z"/>
</mask>
<path d="M57.8056 114.682H60.1456V136.912H5.15559V134.572H11.0056V73.732H5.15559V71.392H35.5756V73.732H28.5556V134.572H40.2556C42.9076 134.572 45.0916 134.377 46.8076 133.987C48.6016 133.597 50.4346 132.778 52.3066 131.53C55.9726 129.112 57.8056 123.496 57.8056 114.682ZM101.041 134.572C112.741 134.572 118.591 127.942 118.591 114.682H120.931V136.912H65.9407V134.572H71.7907V73.732H65.9407V71.392H119.761V91.282H117.421C117.421 84.34 116.017 79.699 113.209 77.359C110.479 74.941 106.033 73.732 99.8707 73.732H89.3407V101.812H94.0207C99.6367 101.812 103.186 101.11 104.668 99.706C106.15 98.302 106.891 95.494 106.891 91.282H109.231V114.682H106.891C106.891 110.314 106.15 107.467 104.668 106.141C103.186 104.815 99.6367 104.152 94.0207 104.152H89.3407V134.572H101.041ZM197.089 71.392V73.732H189.133L164.212 136.912H161.17L131.803 73.732H126.187V71.392H159.298V73.732H153.565L170.647 112.927L186.091 73.732H176.731V71.392H197.089ZM238.036 134.572C249.736 134.572 255.586 127.942 255.586 114.682H257.926V136.912H202.936V134.572H208.786V73.732H202.936V71.392H256.756V91.282H254.416C254.416 84.34 253.012 79.699 250.204 77.359C247.474 74.941 243.028 73.732 236.866 73.732H226.336V101.812H231.016C236.632 101.812 240.181 101.11 241.663 99.706C243.145 98.302 243.886 95.494 243.886 91.282H246.226V114.682H243.886C243.886 110.314 243.145 107.467 241.663 106.141C240.181 104.815 236.632 104.152 231.016 104.152H226.336V134.572H238.036ZM319.342 114.682H321.682V136.912H266.692V134.572H272.542V73.732H266.692V71.392H297.112V73.732H290.092V134.572H301.792C304.444 134.572 306.628 134.377 308.344 133.987C310.138 133.597 311.971 132.778 313.843 131.53C317.509 129.112 319.342 123.496 319.342 114.682ZM356.727 136.912H327.477V134.572H333.327V73.732H327.477V71.392H356.727V73.732H350.877V134.572H356.727V136.912ZM373.116 134.572H382.476V136.912H363.756V134.572H370.776V78.88C368.28 75.448 365.94 73.732 363.756 73.732V71.392H385.635L418.512 110.353V73.732H409.152V71.392H429.042V73.732H420.852V138.082H418.512L373.116 81.805V134.572ZM492.416 136.912C492.416 135.118 491.909 133.636 490.895 132.466C489.881 131.218 488.555 130.594 486.917 130.594C485.357 130.594 483.719 131.257 482.003 132.583C480.365 133.909 478.415 135.274 476.153 136.678C473.969 138.004 471.317 138.667 468.197 138.667C457.589 138.667 449.36 135.937 443.51 130.477C437.738 125.017 434.852 116.632 434.852 105.322C434.852 81.688 445.889 69.871 467.963 69.871C471.941 69.871 475.997 70.846 480.131 72.796C484.343 74.746 486.917 75.721 487.853 75.721C488.789 75.721 489.569 75.253 490.193 74.317C490.817 73.303 491.129 72.328 491.129 71.392H493.352V95.143H491.012C491.012 89.215 488.672 83.911 483.992 79.231C479.39 74.551 474.047 72.211 467.963 72.211C463.283 72.211 459.734 74.746 457.316 79.816C454.898 84.808 453.689 93.115 453.689 104.737C453.689 116.281 454.898 124.432 457.316 129.19C459.812 133.948 463.439 136.327 468.197 136.327C475.685 136.327 479.429 129.658 479.429 116.32V107.662H472.058V105.322H500.138V107.662H494.639V136.912H492.416Z" fill="#17507B"/>
<path d="M57.8056 114.682V113.682H56.8056V114.682H57.8056ZM60.1456 114.682H61.1456V113.682H60.1456V114.682ZM60.1456 136.912V137.912H61.1456V136.912H60.1456ZM5.15559 136.912H4.15559V137.912H5.15559V136.912ZM5.15559 134.572V133.572H4.15559V134.572H5.15559ZM11.0056 134.572V135.572H12.0056V134.572H11.0056ZM11.0056 73.732H12.0056V72.732H11.0056V73.732ZM5.15559 73.732H4.15559V74.732H5.15559V73.732ZM5.15559 71.392V70.392H4.15559V71.392H5.15559ZM35.5756 71.392H36.5756V70.392H35.5756V71.392ZM35.5756 73.732V74.732H36.5756V73.732H35.5756ZM28.5556 73.732V72.732H27.5556V73.732H28.5556ZM28.5556 134.572H27.5556V135.572H28.5556V134.572ZM46.8076 133.987L46.5951 133.01L46.586 133.012L46.8076 133.987ZM52.3066 131.53L51.756 130.695L51.7519 130.698L52.3066 131.53ZM57.8056 114.682V115.682H60.1456V114.682V113.682H57.8056V114.682ZM60.1456 114.682H59.1456V136.912H60.1456H61.1456V114.682H60.1456ZM60.1456 136.912V135.912H5.15559V136.912V137.912H60.1456V136.912ZM5.15559 136.912H6.15559V134.572H5.15559H4.15559V136.912H5.15559ZM5.15559 134.572V135.572H11.0056V134.572V133.572H5.15559V134.572ZM11.0056 134.572H12.0056V73.732H11.0056H10.0056V134.572H11.0056ZM11.0056 73.732V72.732H5.15559V73.732V74.732H11.0056V73.732ZM5.15559 73.732H6.15559V71.392H5.15559H4.15559V73.732H5.15559ZM5.15559 71.392V72.392H35.5756V71.392V70.392H5.15559V71.392ZM35.5756 71.392H34.5756V73.732H35.5756H36.5756V71.392H35.5756ZM35.5756 73.732V72.732H28.5556V73.732V74.732H35.5756V73.732ZM28.5556 73.732H27.5556V134.572H28.5556H29.5556V73.732H28.5556ZM28.5556 134.572V135.572H40.2556V134.572V133.572H28.5556V134.572ZM40.2556 134.572V135.572C42.9486 135.572 45.2138 135.375 47.0292 134.962L46.8076 133.987L46.586 133.012C44.9694 133.379 42.8665 133.572 40.2556 133.572V134.572ZM46.8076 133.987L47.02 134.964C48.9603 134.542 50.908 133.664 52.8613 132.362L52.3066 131.53L51.7519 130.698C49.9612 131.892 48.2429 132.652 46.5952 133.01L46.8076 133.987ZM52.3066 131.53L52.8572 132.365C54.9351 130.994 56.419 128.764 57.3815 125.815C58.3425 122.87 58.8056 119.148 58.8056 114.682H57.8056H56.8056C56.8056 119.03 56.3521 122.523 55.4802 125.194C54.6097 127.861 53.3441 129.648 51.756 130.695L52.3066 131.53ZM118.591 114.682V113.682H117.591V114.682H118.591ZM120.931 114.682H121.931V113.682H120.931V114.682ZM120.931 136.912V137.912H121.931V136.912H120.931ZM65.9407 136.912H64.9407V137.912H65.9407V136.912ZM65.9407 134.572V133.572H64.9407V134.572H65.9407ZM71.7907 134.572V135.572H72.7907V134.572H71.7907ZM71.7907 73.732H72.7907V72.732H71.7907V73.732ZM65.9407 73.732H64.9407V74.732H65.9407V73.732ZM65.9407 71.392V70.392H64.9407V71.392H65.9407ZM119.761 71.392H120.761V70.392H119.761V71.392ZM119.761 91.282V92.282H120.761V91.282H119.761ZM117.421 91.282H116.421V92.282H117.421V91.282ZM113.209 77.359L112.546 78.1076L112.557 78.1176L112.569 78.1272L113.209 77.359ZM89.3407 73.732V72.732H88.3407V73.732H89.3407ZM89.3407 101.812H88.3407V102.812H89.3407V101.812ZM106.891 91.282V90.282H105.891V91.282H106.891ZM109.231 91.282H110.231V90.282H109.231V91.282ZM109.231 114.682V115.682H110.231V114.682H109.231ZM106.891 114.682H105.891V115.682H106.891V114.682ZM104.668 106.141L105.335 105.396V105.396L104.668 106.141ZM89.3407 104.152V103.152H88.3407V104.152H89.3407ZM89.3407 134.572H88.3407V135.572H89.3407V134.572ZM101.041 134.572V135.572C107.08 135.572 111.782 133.855 114.953 130.261C118.103 126.691 119.591 121.438 119.591 114.682H118.591H117.591C117.591 121.187 116.153 125.878 113.453 128.938C110.775 131.974 106.702 133.572 101.041 133.572V134.572ZM118.591 114.682V115.682H120.931V114.682V113.682H118.591V114.682ZM120.931 114.682H119.931V136.912H120.931H121.931V114.682H120.931ZM120.931 136.912V135.912H65.9407V136.912V137.912H120.931V136.912ZM65.9407 136.912H66.9407V134.572H65.9407H64.9407V136.912H65.9407ZM65.9407 134.572V135.572H71.7907V134.572V133.572H65.9407V134.572ZM71.7907 134.572H72.7907V73.732H71.7907H70.7907V134.572H71.7907ZM71.7907 73.732V72.732H65.9407V73.732V74.732H71.7907V73.732ZM65.9407 73.732H66.9407V71.392H65.9407H64.9407V73.732H65.9407ZM65.9407 71.392V72.392H119.761V71.392V70.392H65.9407V71.392ZM119.761 71.392H118.761V91.282H119.761H120.761V71.392H119.761ZM119.761 91.282V90.282H117.421V91.282V92.282H119.761V91.282ZM117.421 91.282H118.421C118.421 84.2875 117.022 79.2354 113.849 76.5908L113.209 77.359L112.569 78.1272C115.011 80.1626 116.421 84.3925 116.421 91.282H117.421ZM113.209 77.359L113.872 76.6104C110.869 73.9506 106.121 72.732 99.8707 72.732V73.732V74.732C105.944 74.732 110.089 75.9314 112.546 78.1076L113.209 77.359ZM99.8707 73.732V72.732H89.3407V73.732V74.732H99.8707V73.732ZM89.3407 73.732H88.3407V101.812H89.3407H90.3407V73.732H89.3407ZM89.3407 101.812V102.812H94.0207V101.812V100.812H89.3407V101.812ZM94.0207 101.812V102.812C96.8624 102.812 99.2253 102.635 101.089 102.266C102.924 101.903 104.408 101.33 105.355 100.432L104.668 99.706L103.98 98.98C103.446 99.4861 102.414 99.9655 100.7 100.305C99.0147 100.638 96.7951 100.812 94.0207 100.812V101.812ZM104.668 99.706L105.355 100.432C106.277 99.5589 106.903 98.3138 107.302 96.8022C107.702 95.2867 107.891 93.4391 107.891 91.282H106.891H105.891C105.891 93.3369 105.709 94.9993 105.368 96.2918C105.026 97.5882 104.54 98.4491 103.98 98.98L104.668 99.706ZM106.891 91.282V92.282H109.231V91.282V90.282H106.891V91.282ZM109.231 91.282H108.231V114.682H109.231H110.231V91.282H109.231ZM109.231 114.682V113.682H106.891V114.682V115.682H109.231V114.682ZM106.891 114.682H107.891C107.891 112.45 107.702 110.554 107.303 109.019C106.905 107.491 106.277 106.239 105.335 105.396L104.668 106.141L104.001 106.886C104.541 107.369 105.024 108.204 105.367 109.523C105.709 110.835 105.891 112.546 105.891 114.682H106.891ZM104.668 106.141L105.335 105.396C104.386 104.547 102.907 104.008 101.078 103.666C99.2195 103.319 96.8605 103.152 94.0207 103.152V104.152V105.152C96.797 105.152 99.0205 105.316 100.711 105.632C102.431 105.954 103.467 106.409 104.001 106.886L104.668 106.141ZM94.0207 104.152V103.152H89.3407V104.152V105.152H94.0207V104.152ZM89.3407 104.152H88.3407V134.572H89.3407H90.3407V104.152H89.3407ZM89.3407 134.572V135.572H101.041V134.572V133.572H89.3407V134.572ZM197.089 71.392H198.089V70.392H197.089V71.392ZM197.089 73.732V74.732H198.089V73.732H197.089ZM189.133 73.732V72.732H188.452L188.202 73.3651L189.133 73.732ZM164.212 136.912V137.912H164.892L165.142 137.279L164.212 136.912ZM161.17 136.912L160.263 137.334L160.532 137.912H161.17V136.912ZM131.803 73.732L132.709 73.3105L132.441 72.732H131.803V73.732ZM126.187 73.732H125.187V74.732H126.187V73.732ZM126.187 71.392V70.392H125.187V71.392H126.187ZM159.298 71.392H160.298V70.392H159.298V71.392ZM159.298 73.732V74.732H160.298V73.732H159.298ZM153.565 73.732V72.732H152.038L152.648 74.1315L153.565 73.732ZM170.647 112.927L169.73 113.327L170.693 115.537L171.577 113.294L170.647 112.927ZM186.091 73.732L187.021 74.0986L187.559 72.732H186.091V73.732ZM176.731 73.732H175.731V74.732H176.731V73.732ZM176.731 71.392V70.392H175.731V71.392H176.731ZM197.089 71.392H196.089V73.732H197.089H198.089V71.392H197.089ZM197.089 73.732V72.732H189.133V73.732V74.732H197.089V73.732ZM189.133 73.732L188.202 73.3651L163.281 136.545L164.212 136.912L165.142 137.279L190.063 74.0989L189.133 73.732ZM164.212 136.912V135.912H161.17V136.912V137.912H164.212V136.912ZM161.17 136.912L162.076 136.49L132.709 73.3105L131.803 73.732L130.896 74.1535L160.263 137.334L161.17 136.912ZM131.803 73.732V72.732H126.187V73.732V74.732H131.803V73.732ZM126.187 73.732H127.187V71.392H126.187H125.187V73.732H126.187ZM126.187 71.392V72.392H159.298V71.392V70.392H126.187V71.392ZM159.298 71.392H158.298V73.732H159.298H160.298V71.392H159.298ZM159.298 73.732V72.732H153.565V73.732V74.732H159.298V73.732ZM153.565 73.732L152.648 74.1315L169.73 113.327L170.647 112.927L171.563 112.527L154.481 73.3325L153.565 73.732ZM170.647 112.927L171.577 113.294L187.021 74.0986L186.091 73.732L185.16 73.3654L169.716 112.56L170.647 112.927ZM186.091 73.732V72.732H176.731V73.732V74.732H186.091V73.732ZM176.731 73.732H177.731V71.392H176.731H175.731V73.732H176.731ZM176.731 71.392V72.392H197.089V71.392V70.392H176.731V71.392ZM255.586 114.682V113.682H254.586V114.682H255.586ZM257.926 114.682H258.926V113.682H257.926V114.682ZM257.926 136.912V137.912H258.926V136.912H257.926ZM202.936 136.912H201.936V137.912H202.936V136.912ZM202.936 134.572V133.572H201.936V134.572H202.936ZM208.786 134.572V135.572H209.786V134.572H208.786ZM208.786 73.732H209.786V72.732H208.786V73.732ZM202.936 73.732H201.936V74.732H202.936V73.732ZM202.936 71.392V70.392H201.936V71.392H202.936ZM256.756 71.392H257.756V70.392H256.756V71.392ZM256.756 91.282V92.282H257.756V91.282H256.756ZM254.416 91.282H253.416V92.282H254.416V91.282ZM250.204 77.359L249.541 78.1076L249.552 78.1176L249.564 78.1272L250.204 77.359ZM226.336 73.732V72.732H225.336V73.732H226.336ZM226.336 101.812H225.336V102.812H226.336V101.812ZM243.886 91.282V90.282H242.886V91.282H243.886ZM246.226 91.282H247.226V90.282H246.226V91.282ZM246.226 114.682V115.682H247.226V114.682H246.226ZM243.886 114.682H242.886V115.682H243.886V114.682ZM241.663 106.141L242.33 105.396V105.396L241.663 106.141ZM226.336 104.152V103.152H225.336V104.152H226.336ZM226.336 134.572H225.336V135.572H226.336V134.572ZM238.036 134.572V135.572C244.075 135.572 248.777 133.855 251.948 130.261C255.098 126.691 256.586 121.438 256.586 114.682H255.586H254.586C254.586 121.187 253.148 125.878 250.449 128.938C247.77 131.974 243.697 133.572 238.036 133.572V134.572ZM255.586 114.682V115.682H257.926V114.682V113.682H255.586V114.682ZM257.926 114.682H256.926V136.912H257.926H258.926V114.682H257.926ZM257.926 136.912V135.912H202.936V136.912V137.912H257.926V136.912ZM202.936 136.912H203.936V134.572H202.936H201.936V136.912H202.936ZM202.936 134.572V135.572H208.786V134.572V133.572H202.936V134.572ZM208.786 134.572H209.786V73.732H208.786H207.786V134.572H208.786ZM208.786 73.732V72.732H202.936V73.732V74.732H208.786V73.732ZM202.936 73.732H203.936V71.392H202.936H201.936V73.732H202.936ZM202.936 71.392V72.392H256.756V71.392V70.392H202.936V71.392ZM256.756 71.392H255.756V91.282H256.756H257.756V71.392H256.756ZM256.756 91.282V90.282H254.416V91.282V92.282H256.756V91.282ZM254.416 91.282H255.416C255.416 84.2875 254.018 79.2354 250.844 76.5908L250.204 77.359L249.564 78.1272C252.006 80.1626 253.416 84.3925 253.416 91.282H254.416ZM250.204 77.359L250.867 76.6104C247.864 73.9506 243.117 72.732 236.866 72.732V73.732V74.732C242.939 74.732 247.084 75.9314 249.541 78.1076L250.204 77.359ZM236.866 73.732V72.732H226.336V73.732V74.732H236.866V73.732ZM226.336 73.732H225.336V101.812H226.336H227.336V73.732H226.336ZM226.336 101.812V102.812H231.016V101.812V100.812H226.336V101.812ZM231.016 101.812V102.812C233.858 102.812 236.22 102.635 238.084 102.266C239.919 101.903 241.403 101.33 242.351 100.432L241.663 99.706L240.975 98.98C240.441 99.4861 239.409 99.9655 237.696 100.305C236.01 100.638 233.79 100.812 231.016 100.812V101.812ZM241.663 99.706L242.351 100.432C243.272 99.5589 243.898 98.3138 244.297 96.8022C244.697 95.2867 244.886 93.4391 244.886 91.282H243.886H242.886C242.886 93.3369 242.704 94.9993 242.363 96.2918C242.021 97.5882 241.536 98.4491 240.975 98.98L241.663 99.706ZM243.886 91.282V92.282H246.226V91.282V90.282H243.886V91.282ZM246.226 91.282H245.226V114.682H246.226H247.226V91.282H246.226ZM246.226 114.682V113.682H243.886V114.682V115.682H246.226V114.682ZM243.886 114.682H244.886C244.886 112.45 244.697 110.554 244.298 109.019C243.9 107.491 243.272 106.239 242.33 105.396L241.663 106.141L240.996 106.886C241.536 107.369 242.019 108.204 242.362 109.523C242.704 110.835 242.886 112.546 242.886 114.682H243.886ZM241.663 106.141L242.33 105.396C241.381 104.547 239.902 104.008 238.073 103.666C236.215 103.319 233.856 103.152 231.016 103.152V104.152V105.152C233.792 105.152 236.016 105.316 237.706 105.632C239.426 105.954 240.463 106.409 240.996 106.886L241.663 106.141ZM231.016 104.152V103.152H226.336V104.152V105.152H231.016V104.152ZM226.336 104.152H225.336V134.572H226.336H227.336V104.152H226.336ZM226.336 134.572V135.572H238.036V134.572V133.572H226.336V134.572ZM319.342 114.682V113.682H318.342V114.682H319.342ZM321.682 114.682H322.682V113.682H321.682V114.682ZM321.682 136.912V137.912H322.682V136.912H321.682ZM266.692 136.912H265.692V137.912H266.692V136.912ZM266.692 134.572V133.572H265.692V134.572H266.692ZM272.542 134.572V135.572H273.542V134.572H272.542ZM272.542 73.732H273.542V72.732H272.542V73.732ZM266.692 73.732H265.692V74.732H266.692V73.732ZM266.692 71.392V70.392H265.692V71.392H266.692ZM297.112 71.392H298.112V70.392H297.112V71.392ZM297.112 73.732V74.732H298.112V73.732H297.112ZM290.092 73.732V72.732H289.092V73.732H290.092ZM290.092 134.572H289.092V135.572H290.092V134.572ZM308.344 133.987L308.131 133.01L308.122 133.012L308.344 133.987ZM313.843 131.53L313.292 130.695L313.288 130.698L313.843 131.53ZM319.342 114.682V115.682H321.682V114.682V113.682H319.342V114.682ZM321.682 114.682H320.682V136.912H321.682H322.682V114.682H321.682ZM321.682 136.912V135.912H266.692V136.912V137.912H321.682V136.912ZM266.692 136.912H267.692V134.572H266.692H265.692V136.912H266.692ZM266.692 134.572V135.572H272.542V134.572V133.572H266.692V134.572ZM272.542 134.572H273.542V73.732H272.542H271.542V134.572H272.542ZM272.542 73.732V72.732H266.692V73.732V74.732H272.542V73.732ZM266.692 73.732H267.692V71.392H266.692H265.692V73.732H266.692ZM266.692 71.392V72.392H297.112V71.392V70.392H266.692V71.392ZM297.112 71.392H296.112V73.732H297.112H298.112V71.392H297.112ZM297.112 73.732V72.732H290.092V73.732V74.732H297.112V73.732ZM290.092 73.732H289.092V134.572H290.092H291.092V73.732H290.092ZM290.092 134.572V135.572H301.792V134.572V133.572H290.092V134.572ZM301.792 134.572V135.572C304.485 135.572 306.75 135.375 308.565 134.962L308.344 133.987L308.122 133.012C306.505 133.379 304.403 133.572 301.792 133.572V134.572ZM308.344 133.987L308.556 134.964C310.496 134.542 312.444 133.664 314.397 132.362L313.843 131.53L313.288 130.698C311.497 131.892 309.779 132.652 308.131 133.01L308.344 133.987ZM313.843 131.53L314.393 132.365C316.471 130.994 317.955 128.764 318.918 125.815C319.879 122.87 320.342 119.148 320.342 114.682H319.342H318.342C318.342 119.03 317.888 122.523 317.016 125.194C316.146 127.861 314.88 129.648 313.292 130.695L313.843 131.53ZM356.727 136.912V137.912H357.727V136.912H356.727ZM327.477 136.912H326.477V137.912H327.477V136.912ZM327.477 134.572V133.572H326.477V134.572H327.477ZM333.327 134.572V135.572H334.327V134.572H333.327ZM333.327 73.732H334.327V72.732H333.327V73.732ZM327.477 73.732H326.477V74.732H327.477V73.732ZM327.477 71.392V70.392H326.477V71.392H327.477ZM356.727 71.392H357.727V70.392H356.727V71.392ZM356.727 73.732V74.732H357.727V73.732H356.727ZM350.877 73.732V72.732H349.877V73.732H350.877ZM350.877 134.572H349.877V135.572H350.877V134.572ZM356.727 134.572H357.727V133.572H356.727V134.572ZM356.727 136.912V135.912H327.477V136.912V137.912H356.727V136.912ZM327.477 136.912H328.477V134.572H327.477H326.477V136.912H327.477ZM327.477 134.572V135.572H333.327V134.572V133.572H327.477V134.572ZM333.327 134.572H334.327V73.732H333.327H332.327V134.572H333.327ZM333.327 73.732V72.732H327.477V73.732V74.732H333.327V73.732ZM327.477 73.732H328.477V71.392H327.477H326.477V73.732H327.477ZM327.477 71.392V72.392H356.727V71.392V70.392H327.477V71.392ZM356.727 71.392H355.727V73.732H356.727H357.727V71.392H356.727ZM356.727 73.732V72.732H350.877V73.732V74.732H356.727V73.732ZM350.877 73.732H349.877V134.572H350.877H351.877V73.732H350.877ZM350.877 134.572V135.572H356.727V134.572V133.572H350.877V134.572ZM356.727 134.572H355.727V136.912H356.727H357.727V134.572H356.727ZM373.116 134.572H372.116V135.572H373.116V134.572ZM382.476 134.572H383.476V133.572H382.476V134.572ZM382.476 136.912V137.912H383.476V136.912H382.476ZM363.756 136.912H362.756V137.912H363.756V136.912ZM363.756 134.572V133.572H362.756V134.572H363.756ZM370.776 134.572V135.572H371.776V134.572H370.776ZM370.776 78.88H371.776V78.5548L371.585 78.2918L370.776 78.88ZM363.756 73.732H362.756V74.732H363.756V73.732ZM363.756 71.392V70.392H362.756V71.392H363.756ZM385.635 71.392L386.399 70.7471L386.1 70.392H385.635V71.392ZM418.512 110.353L417.748 110.998L419.512 113.089V110.353H418.512ZM418.512 73.732H419.512V72.732H418.512V73.732ZM409.152 73.732H408.152V74.732H409.152V73.732ZM409.152 71.392V70.392H408.152V71.392H409.152ZM429.042 71.392H430.042V70.392H429.042V71.392ZM429.042 73.732V74.732H430.042V73.732H429.042ZM420.852 73.732V72.732H419.852V73.732H420.852ZM420.852 138.082V139.082H421.852V138.082H420.852ZM418.512 138.082L417.734 138.71L418.034 139.082H418.512V138.082ZM373.116 81.805L373.894 81.1772L372.116 78.9726V81.805H373.116ZM373.116 134.572V135.572H382.476V134.572V133.572H373.116V134.572ZM382.476 134.572H381.476V136.912H382.476H383.476V134.572H382.476ZM382.476 136.912V135.912H363.756V136.912V137.912H382.476V136.912ZM363.756 136.912H364.756V134.572H363.756H362.756V136.912H363.756ZM363.756 134.572V135.572H370.776V134.572V133.572H363.756V134.572ZM370.776 134.572H371.776V78.88H370.776H369.776V134.572H370.776ZM370.776 78.88L371.585 78.2918C369.065 74.827 366.463 72.732 363.756 72.732V73.732V74.732C365.417 74.732 367.495 76.069 369.967 79.4682L370.776 78.88ZM363.756 73.732H364.756V71.392H363.756H362.756V73.732H363.756ZM363.756 71.392V72.392H385.635V71.392V70.392H363.756V71.392ZM385.635 71.392L384.871 72.0369L417.748 110.998L418.512 110.353L419.276 109.708L386.399 70.7471L385.635 71.392ZM418.512 110.353H419.512V73.732H418.512H417.512V110.353H418.512ZM418.512 73.732V72.732H409.152V73.732V74.732H418.512V73.732ZM409.152 73.732H410.152V71.392H409.152H408.152V73.732H409.152ZM409.152 71.392V72.392H429.042V71.392V70.392H409.152V71.392ZM429.042 71.392H428.042V73.732H429.042H430.042V71.392H429.042ZM429.042 73.732V72.732H420.852V73.732V74.732H429.042V73.732ZM420.852 73.732H419.852V138.082H420.852H421.852V73.732H420.852ZM420.852 138.082V137.082H418.512V138.082V139.082H420.852V138.082ZM418.512 138.082L419.29 137.454L373.894 81.1772L373.116 81.805L372.338 82.4328L417.734 138.71L418.512 138.082ZM373.116 81.805H372.116V134.572H373.116H374.116V81.805H373.116ZM492.416 136.912H491.416V137.912H492.416V136.912ZM490.895 132.466L490.119 133.097L490.129 133.109L490.139 133.121L490.895 132.466ZM482.003 132.583L481.391 131.792L481.382 131.799L481.374 131.806L482.003 132.583ZM476.153 136.678L476.672 137.533L476.68 137.528L476.153 136.678ZM443.51 130.477L442.823 131.203L442.827 131.208L443.51 130.477ZM480.131 72.796L479.704 73.7005L479.711 73.7035L480.131 72.796ZM490.193 74.317L491.025 74.8717L491.035 74.8566L491.044 74.8411L490.193 74.317ZM491.129 71.392V70.392H490.129V71.392H491.129ZM493.352 71.392H494.352V70.392H493.352V71.392ZM493.352 95.143V96.143H494.352V95.143H493.352ZM491.012 95.143H490.012V96.143H491.012V95.143ZM483.992 79.231L483.279 79.9322L483.285 79.9381L483.992 79.231ZM457.316 79.816L458.216 80.2519L458.218 80.2465L457.316 79.816ZM457.316 129.19L456.424 129.643L456.43 129.655L457.316 129.19ZM479.429 107.662H480.429V106.662H479.429V107.662ZM472.058 107.662H471.058V108.662H472.058V107.662ZM472.058 105.322V104.322H471.058V105.322H472.058ZM500.138 105.322H501.138V104.322H500.138V105.322ZM500.138 107.662V108.662H501.138V107.662H500.138ZM494.639 107.662V106.662H493.639V107.662H494.639ZM494.639 136.912V137.912H495.639V136.912H494.639ZM492.416 136.912H493.416C493.416 134.918 492.847 133.191 491.65 131.811L490.895 132.466L490.139 133.121C490.971 134.081 491.416 135.318 491.416 136.912H492.416ZM490.895 132.466L491.671 131.835C490.463 130.349 488.849 129.594 486.917 129.594V130.594V131.594C488.26 131.594 489.299 132.087 490.119 133.097L490.895 132.466ZM486.917 130.594V129.594C485.064 129.594 483.215 130.382 481.391 131.792L482.003 132.583L482.614 133.374C484.222 132.132 485.65 131.594 486.917 131.594V130.594ZM482.003 132.583L481.374 131.806C479.775 133.1 477.861 134.441 475.625 135.828L476.153 136.678L476.68 137.528C478.969 136.107 480.954 134.718 482.632 133.36L482.003 132.583ZM476.153 136.678L475.634 135.823C473.638 137.035 471.174 137.667 468.197 137.667V138.667V139.667C471.459 139.667 474.3 138.973 476.672 137.533L476.153 136.678ZM468.197 138.667V137.667C457.758 137.667 449.803 134.983 444.192 129.746L443.51 130.477L442.827 131.208C448.916 136.891 457.42 139.667 468.197 139.667V138.667ZM443.51 130.477L444.197 129.751C438.697 124.548 435.852 116.476 435.852 105.322H434.852H433.852C433.852 116.788 436.779 125.486 442.823 131.203L443.51 130.477ZM434.852 105.322H435.852C435.852 93.6428 438.58 85.0696 443.86 79.4163C449.128 73.7759 457.098 70.871 467.963 70.871V69.871V68.871C456.754 68.871 448.168 71.8746 442.399 78.0512C436.642 84.2149 433.852 93.3672 433.852 105.322H434.852ZM467.963 69.871V70.871C471.773 70.871 475.684 71.804 479.704 73.7004L480.131 72.796L480.557 71.8916C476.31 69.888 472.109 68.871 467.963 68.871V69.871ZM480.131 72.796L479.711 73.7035C481.826 74.6827 483.547 75.4252 484.866 75.9249C485.525 76.1746 486.097 76.3687 486.576 76.5017C487.036 76.6295 487.479 76.721 487.853 76.721V75.721V74.721C487.759 74.721 487.529 74.6906 487.111 74.5747C486.713 74.4639 486.202 74.2924 485.575 74.0546C484.32 73.5793 482.648 72.8593 480.551 71.8885L480.131 72.796ZM487.853 75.721V76.721C489.194 76.721 490.258 76.0214 491.025 74.8717L490.193 74.317L489.361 73.7623C488.879 74.4846 488.384 74.721 487.853 74.721V75.721ZM490.193 74.317L491.044 74.8411C491.739 73.7119 492.129 72.5572 492.129 71.392H491.129H490.129C490.129 72.0988 489.894 72.8941 489.341 73.7929L490.193 74.317ZM491.129 71.392V72.392H493.352V71.392V70.392H491.129V71.392ZM493.352 71.392H492.352V95.143H493.352H494.352V71.392H493.352ZM493.352 95.143V94.143H491.012V95.143V96.143H493.352V95.143ZM491.012 95.143H492.012C492.012 88.9178 489.543 83.3675 484.699 78.5239L483.992 79.231L483.285 79.9381C487.801 84.4545 490.012 89.5122 490.012 95.143H491.012ZM483.992 79.231L484.705 78.5299C479.931 73.6754 474.337 71.211 467.963 71.211V72.211V73.211C473.756 73.211 478.848 75.4266 483.279 79.9321L483.992 79.231ZM467.963 72.211V71.211C465.43 71.211 463.167 71.9008 461.21 73.2985C459.263 74.6889 457.675 76.7405 456.413 79.3855L457.316 79.816L458.218 80.2465C459.375 77.8215 460.77 76.0706 462.372 74.926C463.965 73.7887 465.815 73.211 467.963 73.211V72.211ZM457.316 79.816L456.416 79.3801C453.892 84.59 452.689 93.0943 452.689 104.737H453.689H454.689C454.689 93.1357 455.903 85.026 458.216 80.2519L457.316 79.816ZM453.689 104.737H452.689C452.689 116.296 453.89 124.657 456.424 129.643L457.316 129.19L458.207 128.737C455.905 124.207 454.689 116.266 454.689 104.737H453.689ZM457.316 129.19L456.43 129.655C457.739 132.149 459.374 134.076 461.36 135.379C463.352 136.686 465.643 137.327 468.197 137.327V136.327V135.327C465.993 135.327 464.091 134.779 462.457 133.707C460.815 132.63 459.389 130.989 458.201 128.725L457.316 129.19ZM468.197 136.327V137.327C470.222 137.327 472.041 136.875 473.621 135.936C475.2 134.999 476.486 133.609 477.493 131.815C479.49 128.257 480.429 123.05 480.429 116.32H479.429H478.429C478.429 122.928 477.496 127.724 475.749 130.836C474.884 132.376 473.829 133.487 472.6 134.217C471.372 134.946 469.916 135.327 468.197 135.327V136.327ZM479.429 116.32H480.429V107.662H479.429H478.429V116.32H479.429ZM479.429 107.662V106.662H472.058V107.662V108.662H479.429V107.662ZM472.058 107.662H473.058V105.322H472.058H471.058V107.662H472.058ZM472.058 105.322V106.322H500.138V105.322V104.322H472.058V105.322ZM500.138 105.322H499.138V107.662H500.138H501.138V105.322H500.138ZM500.138 107.662V106.662H494.639V107.662V108.662H500.138V107.662ZM494.639 107.662H493.639V136.912H494.639H495.639V107.662H494.639ZM494.639 136.912V135.912H492.416V136.912V137.912H494.639V136.912Z" fill="#17507B" mask="url(#path-5-outside-2_6_5)"/>
</svg>
